<?xml version="1.0" encoding="UTF-8" standalone="no"?>
<svg
   id="Layer_1"
   data-name="Layer 1"
   width="20mm"
   height="20mm"
   viewBox="0 0 75.590551 75.590553"
   version="1.1"
   xmlns="http://www.w3.org/2000/svg"
   xmlns:svg="http://www.w3.org/2000/svg"
   xmlns:rdf="http://www.w3.org/1999/02/22-rdf-syntax-ns#"
   xmlns:cc="http://creativecommons.org/ns#"
   xmlns:dc="http://purl.org/dc/elements/1.1/">
  <defs
     id="defs31" />
  <title
     id="title2">hw-logo-black</title>
  <g
     id="g36"
     transform="translate(-47.3,-47.510008)">
    <g
       id="g130"
       transform="matrix(1.2577466,0,0,1.2577466,-4.204733,-12.245543)">
      <path
         d="m 51.43,101.32 a 2.18,2.18 0 0 1 0.2,-0.93 2.23,2.23 0 0 1 4.1,0 2.34,2.34 0 0 1 0.2,0.93 2.25,2.25 0 1 1 -4.5,0 M 88.31,51.49 a 2.27,2.27 0 0 1 2.25,2.28 2.43,2.43 0 0 1 -0.2,0.94 2.26,2.26 0 1 1 -2,-3.22 M 55.73,95.22 v -10 L 89,73.91 a 2.07,2.07 0 0 0 1.4,-2 V 59.87 a 6.35,6.35 0 1 0 -4.1,0 V 70.44 L 53,81.75 a 2.07,2.07 0 0 0 -1.39,2 v 11.5 a 6.35,6.35 0 1 0 4.1,0"
         id="path4" />
      <path
         d="m 55.92,53.77 a 2.43,2.43 0 0 1 -0.19,0.94 2.3,2.3 0 1 1 0.19,-0.94 M 71,62.94 a 2.28,2.28 0 0 1 0,4.56 h -0.22 a 2.27,2.27 0 0 1 -2,-2.27 2.31,2.31 0 0 1 0.72,-1.68 2.27,2.27 0 0 1 1.52,-0.6 M 51.63,59.87 v 11.24 a 2.1,2.1 0 0 0 0.85,1.69 2,2 0 0 0 1.2,0.39 2.06,2.06 0 0 0 0.65,-0.11 l 11.63,-4 a 6.28,6.28 0 0 0 5,2.53 6.45,6.45 0 1 0 -6.34,-6.48 l -8.92,3 v -8.26 a 6.35,6.35 0 1 0 -4.1,0"
         id="path6" />
      <path
         d="m 86.06,101.32 a 2.18,2.18 0 0 1 0.2,-0.93 2.23,2.23 0 0 1 4.1,0 2.34,2.34 0 0 1 0.2,0.93 2.25,2.25 0 1 1 -4.5,0 M 71,92.72 a 2.28,2.28 0 0 1 0,-4.56 h 0.22 a 2.28,2.28 0 0 1 2,2.28 2.26,2.26 0 0 1 -0.73,1.67 2.18,2.18 0 0 1 -1.52,0.6 m 19.37,2.5 V 84.55 A 2.1,2.1 0 0 0 89.49,82.86 2,2 0 0 0 87.64,82.58 L 76,86.54 A 6.3,6.3 0 0 0 71,84 a 6.45,6.45 0 1 0 6.35,6.48 l 8.92,-3 v 7.77 a 6.35,6.35 0 1 0 4.1,0"
         id="path8" />
    </g>
  </g>
  <metadata
     id="metadata125">
    <rdf:RDF>
      <cc:Work
         rdf:about="">
        <dc:title>hw-logo-black</dc:title>
      </cc:Work>
    </rdf:RDF>
  </metadata>
</svg>
