<?xml version="1.0" standalone="no"?>
<!DOCTYPE svg PUBLIC "-//W3C//DTD SVG 20010904//EN"
 "http://www.w3.org/TR/2001/REC-SVG-20010904/DTD/svg10.dtd">
<svg version="1.0" xmlns="http://www.w3.org/2000/svg"
 width="280.000000pt" height="280.000000pt" viewBox="0 0 280.000000 280.000000"
 preserveAspectRatio="xMidYMid meet">

<g transform="translate(0.000000,280.000000) scale(0.100000,-0.100000)"
fill="#000000" stroke="none">
<path d="M725 2439 c-84 -24 -149 -118 -150 -215 0 -54 4 -68 35 -113 20 -31
51 -61 73 -72 l37 -19 0 -204 c0 -189 1 -205 20 -229 11 -14 28 -28 38 -31 9
-3 109 26 222 64 112 39 210 70 217 70 7 0 27 -12 44 -27 127 -115 331 -36
363 140 25 134 -117 276 -251 251 -103 -19 -193 -110 -193 -196 0 -23 -30 -35
-307 -126 -10 -3 -13 29 -13 141 l0 145 29 11 c70 30 121 115 121 203 -1 148
-141 250 -285 207z m124 -155 c28 -36 27 -79 -4 -109 -33 -34 -70 -32 -107 5
-25 26 -29 36 -24 63 13 67 95 92 135 41z m606 -399 c41 -40 29 -106 -22 -126
-40 -15 -81 -2 -99 33 -43 83 56 159 121 93z"/>
<path d="M1944 2436 c-61 -19 -101 -54 -129 -110 -53 -107 -12 -242 90 -290
l35 -17 -2 -187 -3 -187 -105 -36 c-58 -19 -199 -67 -315 -107 -115 -39 -331
-112 -480 -162 -151 -51 -279 -100 -290 -111 -18 -18 -20 -36 -25 -233 l-5
-213 -45 -35 c-65 -49 -90 -98 -90 -178 0 -55 5 -72 30 -112 50 -79 147 -120
232 -98 126 33 194 155 157 281 -15 49 -59 102 -104 123 l-35 17 0 175 0 174
28 11 c32 13 562 194 907 310 133 44 249 89 260 100 18 18 20 36 25 243 l5
223 45 35 c65 49 90 98 90 178 0 55 -5 72 -30 112 -52 82 -157 123 -246 94z
m115 -143 c11 -10 24 -32 27 -50 5 -27 1 -37 -24 -63 -34 -33 -66 -38 -100
-14 -45 32 -48 99 -5 132 24 17 77 15 102 -5z m-1212 -1665 c49 -46 12 -138
-54 -138 -47 1 -78 32 -78 80 0 32 6 46 25 61 33 25 78 24 107 -3z"/>
<path d="M1787 1158 l-208 -70 -22 20 c-92 85 -229 83 -319 -3 -106 -99 -79
-278 52 -349 132 -72 286 -2 324 148 l12 46 145 50 c79 27 150 50 157 50 9 0
12 -33 12 -134 0 -127 -1 -135 -21 -141 -11 -4 -36 -21 -55 -37 -100 -88 -104
-234 -8 -324 86 -81 193 -85 287 -11 120 94 101 292 -35 363 l-27 14 -3 201
-3 201 -28 24 c-15 13 -33 24 -40 23 -7 0 -106 -32 -220 -71z m-348 -138 c10
-5 24 -23 31 -40 16 -38 0 -82 -36 -99 -35 -16 -48 -14 -78 10 -70 55 4 172
83 129z m615 -391 c20 -16 26 -29 26 -59 0 -71 -76 -104 -125 -55 -50 49 -17
135 50 135 12 0 34 -9 49 -21z"/>
</g>
</svg>
