<svg xmlns="http://www.w3.org/2000/svg" width="512" height="512"><rect id="backgroundrect" width="100%" height="100%" x="0" y="0" fill="none" stroke="none"/><title>ionicons-v5-d</title><g class="currentLayer" style=""><title>Layer 1</title><circle cx="176" cy="416" r="32" id="svg_1" class=""/><circle cx="176" cy="416" r="32" class="selected" id="svg_5" fill="#ffffff" fill-opacity="1"/><circle cx="400" cy="416" r="32" id="svg_2" class="selected" fill="#ffffff" fill-opacity="1"/><polygon points="167.78 304 429.12 304 467.52 112 133.89 112 125.42 64 32 64 32 96 98.58 96 146.58 368 432 368 432 336 173.42 336 167.78 304" id="svg_3" class=""/><polygon points="167.77999877929688,304 429.1199951171875,304 467.5199890136719,112 133.88999938964844,112 125.41999816894531,64 32,64 32,96 98.58000183105469,96 146.5800018310547,368 432,368 432,336 173.4199981689453,336 167.77999877929688,304 " class="selected" id="svg_4" fill="#ffffff" fill-opacity="1"/></g></svg>