<svg xmlns="http://www.w3.org/2000/svg" xmlns:xlink="http://www.w3.org/1999/xlink" width="24" height="24" version="1.1" style=""><rect id="backgroundrect" width="100%" height="100%" x="0" y="0" fill="none" stroke="none"/>
    <!-- Uploaded to SVGRepo https://www.svgrepo.com -->
    <title>ic_fluent_comment_24_regular</title>
    <desc>Created with Sketch.</desc>
    
<g class="currentLayer" style=""><title>Layer 1</title><g id="ðŸ”-Product-Icons" stroke="none" stroke-width="1" fill="#ffffff" fill-rule="evenodd" class="" fill-opacity="1">
        <g id="ic_fluent_comment_24_regular" fill="#ffffff" fill-rule="nonzero" fill-opacity="1">
            <path d="M5.25,18 C3.45507456,18 2,16.5449254 2,14.75 L2,6.25 C2,4.45507456 3.45507456,3 5.25,3 L18.75,3 C20.5449254,3 22,4.45507456 22,6.25 L22,14.75 C22,16.5449254 20.5449254,18 18.75,18 L13.0124851,18 L7.99868152,21.7506795 C7.44585139,22.1641649 6.66249789,22.0512036 6.2490125,21.4983735 C6.08735764,21.2822409 6,21.0195912 6,20.7499063 L5.99921427,18 L5.25,18 Z M12.5135149,16.5 L18.75,16.5 C19.7164983,16.5 20.5,15.7164983 20.5,14.75 L20.5,6.25 C20.5,5.28350169 19.7164983,4.5 18.75,4.5 L5.25,4.5 C4.28350169,4.5 3.5,5.28350169 3.5,6.25 L3.5,14.75 C3.5,15.7164983 4.28350169,16.5 5.25,16.5 L7.49878573,16.5 L7.49899997,17.2497857 L7.49985739,20.2505702 L12.5135149,16.5 Z" id="ðŸŽ¨-Color" fill="#ffffff" fill-opacity="1"/>
        </g>
    </g><polyline fill="none" stroke="#ffffff" stroke-dashoffset="" fill-rule="evenodd" marker-start="" marker-mid="" marker-end="" id="svg_1" points="4.767857253146023,5.042857015295093 4.767857253146023,5.042857015295093 4.678571537339783,5.042857015295093 4.678571537339783,5.132142731101334 4.678571537339783,5.132142731101334 4.589285821533542,5.132142731101334 4.589285821533542,5.132142731101334 4.589285821533542,5.221428446907575 4.589285821533542,5.221428446907575 4.589285821533542,5.221428446907575 4.500000105727301,5.399999878520058 4.4107143899210595,5.489285594326299 4.4107143899210595,5.757142741745021 4.321428674114818,5.935714173357503 4.321428674114818,6.114285604969985 4.321428674114818,6.203571320776225 4.321428674114818,6.114285604969985 4.321428674114818,6.024999889163745 4.321428674114818,5.66785702593878 4.4107143899210595,5.489285594326299 4.4107143899210595,5.221428446907575 4.4107143899210595,5.132142731101334 4.4107143899210595,4.953571299488852 4.4107143899210595,5.042857015295093 4.4107143899210595,5.042857015295093 4.4107143899210595,5.042857015295093 4.232142958308577,5.310714162713817 4.053571526696096,5.757142741745021 4.053571526696096,5.935714173357503 3.964285810889855,6.114285604969985 3.964285810889855,6.203571320776225 3.964285810889855,6.203571320776225 3.964285810889855,6.203571320776225 3.964285810889855,6.114285604969985 3.964285810889855,6.114285604969985 3.964285810889855,5.66785702593878 3.8750000950836143,5.310714162713817 3.8750000950836143,5.221428446907575 3.8750000950836143,5.221428446907575 3.8750000950836143,5.221428446907575 3.8750000950836143,5.310714162713817 3.8750000950836143,5.66785702593878 3.8750000950836143,6.382142752388707 3.8750000950836143,6.739285615613673 3.7857143792773726,6.917857047226153 3.7857143792773726,7.453571342063599 3.7857143792773726,7.7214284894823235 3.7857143792773726,7.989285636901045 3.7857143792773726,8.257142784319768 3.7857143792773726,8.524999931738492 3.7857143792773726,8.703571363350973 3.7857143792773726,8.971428510769696 3.7857143792773726,9.149999942382179 3.7857143792773726,9.4178570898009 3.696428663471131,9.685714237219624 3.696428663471131,9.864285668832105 3.696428663471131,10.132142816250829 3.60714294766489,10.578571395282033 3.60714294766489,10.757142826894516 3.60714294766489,11.114285690119479 3.60714294766489,11.292857121731961 3.60714294766489,11.471428553344444 3.60714294766489,11.560714269150685 3.5178572318586507,11.739285700763165 3.5178572318586507,11.917857132375648 3.5178572318586507,12.09642856398813 3.5178572318586507,12.185714279794372 3.5178572318586507,12.274999995600611 3.5178572318586507,12.453571427213094 3.5178572318586507,12.542857143019335 3.5178572318586507,12.632142858825578 3.60714294766489,12.810714290438057 3.60714294766489,13.078571437856779 3.60714294766489,13.257142869469261 3.60714294766489,13.3464285852755 3.60714294766489,13.614285732694228 3.60714294766489,13.792857164306707 3.60714294766489,13.88214288011295 3.60714294766489,13.97142859591919 3.60714294766489,14.150000027531673 3.60714294766489,14.239285743337915 3.60714294766489,14.417857174950393 3.60714294766489,14.507142890756635 3.60714294766489,14.596428606562878 3.60714294766489,14.685714322369117 3.60714294766489,14.8642857539816 3.60714294766489,14.95357146978784 3.60714294766489,15.132142901400323 3.60714294766489,15.221428617206564 3.60714294766489,15.310714333012806 3.60714294766489,15.400000048819047 3.696428663471131,15.489285764625285 3.696428663471131,15.489285764625285 3.696428663471131,15.578571480431528 3.696428663471131,15.578571480431528 3.7857143792773726,15.578571480431528 3.7857143792773726,15.578571480431528 3.7857143792773726,15.578571480431528 3.7857143792773726,15.578571480431528 3.8750000950836143,15.578571480431528 3.8750000950836143,15.578571480431528 3.8750000950836143,15.578571480431528 3.964285810889855,15.578571480431528 3.964285810889855,15.667857196237767 4.053571526696096,15.667857196237767 4.142857242502336,15.667857196237767 4.142857242502336,15.757142912044008 4.232142958308577,15.757142912044008 4.232142958308577,15.757142912044008 4.321428674114818,15.757142912044008 4.321428674114818,15.757142912044008 4.4107143899210595,15.757142912044008 4.4107143899210595,15.84642862785025 4.500000105727301,15.84642862785025 4.500000105727301,15.84642862785025 4.589285821533542,15.84642862785025 4.589285821533542,15.84642862785025 4.589285821533542,15.84642862785025 4.678571537339783,15.84642862785025 4.678571537339783,15.93571434365649 4.678571537339783,15.93571434365649 4.767857253146023,15.93571434365649 4.767857253146023,15.93571434365649 4.767857253146023,15.93571434365649 4.857142968952266,15.93571434365649 4.946428684758507,16.025000059462734 4.946428684758507,16.025000059462734 5.0357144005647445,16.025000059462734 5.0357144005647445,16.025000059462734 5.125000116370986,16.025000059462734 5.214285832177227,16.114285775268975 5.214285832177227,16.114285775268975 5.303571547983468,16.114285775268975 5.392857263789709,16.114285775268975 5.482142979595951,16.114285775268975 5.482142979595951,16.114285775268975 5.571428695402192,16.203571491075216 5.750000127014674,16.203571491075216 5.750000127014674,16.203571491075216 5.839285842820916,16.203571491075216 5.839285842820916,16.203571491075216 5.928571558627157,16.203571491075216 " style="color: rgb(0, 0, 0);"/><rect fill="none" stroke="#ffffff" stroke-dashoffset="" fill-rule="evenodd" id="svg_2" x="6" y="6" width="5" height="4" style="color: rgb(0, 0, 0);"/><rect fill="#ffffff" stroke="#ffffff" stroke-dashoffset="" fill-rule="evenodd" opacity="0" id="svg_4" x="6" y="8" width="7" height="5" style="color: rgb(0, 0, 0);"/><rect fill="#ffffff" stroke="#ffffff" stroke-dashoffset="" fill-rule="evenodd" opacity="0" id="svg_6" x="11" y="9" width="2" height="3" style="color: rgb(0, 0, 0);"/><rect fill="#ffffff" stroke="#ffffff" stroke-dashoffset="" fill-rule="evenodd" opacity="0" id="svg_8" x="5" y="6" width="7" height="4" style="color: rgb(0, 0, 0);"/><rect fill="#ffffff" stroke="#ffffff" stroke-dashoffset="" fill-rule="evenodd" opacity="0" id="svg_10" x="7" y="7" width="3" height="3" style="color: rgb(0, 0, 0);"/><rect fill="#ffffff" stroke="#ffffff" stroke-dashoffset="" fill-rule="evenodd" opacity="0" id="svg_12" x="12" y="6" width="1" height="4" style="color: rgb(0, 0, 0);"/><rect fill="#ffffff" stroke="#ffffff" stroke-dashoffset="" fill-rule="evenodd" id="svg_14" x="5" y="6" width="14" height="10" style="color: rgb(0, 0, 0);"/><rect fill="#ffffff" stroke="#ffffff" stroke-dashoffset="" fill-rule="evenodd" id="svg_16" x="4" y="5" width="15" height="1" style="color: rgb(0, 0, 0);"/><rect fill="#ffffff" stroke="#ffffff" stroke-dashoffset="" fill-rule="evenodd" id="svg_18" x="19" y="5" width="1" height="11" style="color: rgb(0, 0, 0);"/><rect fill="#ffffff" stroke="#ffffff" stroke-dashoffset="" fill-rule="evenodd" id="svg_20" x="3" y="5" width="1" height="10" style="color: rgb(0, 0, 0);"/><rect fill="#ffffff" stroke="#ffffff" stroke-dashoffset="" fill-rule="evenodd" id="svg_22" x="7" y="16" width="5" height="1" style="color: rgb(0, 0, 0);"/><polyline fill="none" stroke="#ffffff" stroke-dashoffset="" fill-rule="evenodd" marker-start="" marker-mid="" marker-end="" id="svg_24" points="8.16071445378318,17.185714364943866 8.16071445378318,17.185714364943866 8.16071445378318,17.185714364943866 8.07142873797694,17.275000080750107 8.07142873797694,17.275000080750107 8.07142873797694,17.275000080750107 8.07142873797694,17.36428579655635 7.982143022170699,17.45357151236259 7.982143022170699,17.45357151236259 7.982143022170699,17.54285722816883 7.892857306364457,17.632142943975072 7.892857306364457,17.721428659781314 7.892857306364457,17.810714375587555 7.892857306364457,17.900000091393792 7.8035715905582155,18.078571523006275 7.8035715905582155,18.167857238812516 7.8035715905582155,18.257142954618757 7.8035715905582155,18.43571438623124 7.8035715905582155,18.52500010203748 7.8035715905582155,18.614285817843722 7.714285874751974,18.614285817843722 7.714285874751974,18.703571533649963 7.714285874751974,18.792857249456205 7.714285874751974,18.792857249456205 7.714285874751974,18.882142965262446 7.714285874751974,18.971428681068687 7.714285874751974,19.06071439687493 7.714285874751974,19.150000112681166 7.714285874751974,19.239285828487407 7.714285874751974,19.32857154429365 7.714285874751974,19.32857154429365 7.714285874751974,19.41785726009989 7.714285874751974,19.50714297590613 7.714285874751974,19.50714297590613 7.714285874751974,19.596428691712372 7.714285874751974,19.596428691712372 7.714285874751974,19.596428691712372 7.714285874751974,19.685714407518613 7.714285874751974,19.685714407518613 7.714285874751974,19.685714407518613 7.714285874751974,19.775000123324855 7.714285874751974,19.775000123324855 7.714285874751974,19.864285839131096 7.714285874751974,19.864285839131096 7.714285874751974,19.864285839131096 7.714285874751974,19.953571554937337 7.625000158945732,19.953571554937337 7.625000158945732,20.04285727074358 7.625000158945732,20.13214298654982 7.625000158945732,20.13214298654982 7.625000158945732,20.22142870235606 7.625000158945732,20.22142870235606 7.625000158945732,20.22142870235606 7.625000158945732,20.3107144181623 7.625000158945732,20.3107144181623 7.625000158945732,20.3107144181623 7.625000158945732,20.40000013396854 7.625000158945732,20.40000013396854 7.714285874751974,20.3107144181623 7.714285874751974,20.3107144181623 7.8035715905582155,20.22142870235606 7.8035715905582155,20.22142870235606 7.892857306364457,20.22142870235606 7.982143022170699,20.13214298654982 8.07142873797694,20.04285727074358 8.16071445378318,19.953571554937337 8.339285885395663,19.864285839131096 8.428571601201904,19.775000123324855 8.517857317008145,19.685714407518613 8.517857317008145,19.596428691712372 8.607143032814387,19.596428691712372 8.696428748620624,19.50714297590613 8.785714464426865,19.41785726009989 8.875000180233107,19.32857154429365 8.875000180233107,19.32857154429365 9.05357161184559,19.150000112681166 9.14285732765183,19.150000112681166 9.232143043458072,18.971428681068687 9.321428759264313,18.882142965262446 9.410714475070554,18.792857249456205 9.500000190876795,18.703571533649963 9.589285906683036,18.614285817843722 9.678571622489278,18.52500010203748 9.678571622489278,18.52500010203748 9.857143054101757,18.43571438623124 9.946428769907998,18.346428670425 10.035714485714239,18.257142954618757 10.12500020152048,18.167857238812516 10.214285917326722,18.167857238812516 10.214285917326722,18.078571523006275 10.214285917326722,18.078571523006275 10.303571633132963,18.078571523006275 10.392857348939204,17.989285807200034 10.482143064745445,17.989285807200034 10.482143064745445,17.989285807200034 10.571428780551686,17.900000091393792 10.660714496357928,17.900000091393792 10.750000212164169,17.900000091393792 10.750000212164169,17.810714375587555 10.83928592797041,17.810714375587555 10.928571643776651,17.810714375587555 11.017857359582893,17.721428659781314 11.017857359582893,17.721428659781314 11.017857359582893,17.721428659781314 11.017857359582893,17.632142943975072 11.017857359582893,17.632142943975072 10.928571643776651,17.721428659781314 10.83928592797041,17.721428659781314 10.750000212164169,17.721428659781314 10.571428780551686,17.721428659781314 10.392857348939204,17.721428659781314 10.12500020152048,17.721428659781314 10.035714485714239,17.721428659781314 9.857143054101757,17.721428659781314 9.767857338295519,17.721428659781314 9.678571622489278,17.632142943975072 9.500000190876795,17.632142943975072 9.410714475070554,17.632142943975072 9.232143043458072,17.632142943975072 9.14285732765183,17.54285722816883 9.05357161184559,17.54285722816883 8.964285896039348,17.54285722816883 8.785714464426865,17.54285722816883 8.785714464426865,17.54285722816883 8.607143032814387,17.54285722816883 8.517857317008145,17.54285722816883 8.428571601201904,17.54285722816883 8.339285885395663,17.54285722816883 8.339285885395663,17.54285722816883 8.339285885395663,17.54285722816883 8.428571601201904,17.721428659781314 8.428571601201904,17.989285807200034 8.428571601201904,18.257142954618757 8.339285885395663,18.52500010203748 8.339285885395663,18.792857249456205 8.339285885395663,18.971428681068687 8.250000169589422,19.150000112681166 8.250000169589422,19.150000112681166 8.250000169589422,19.239285828487407 8.250000169589422,19.239285828487407 8.250000169589422,19.32857154429365 8.250000169589422,19.32857154429365 8.250000169589422,19.32857154429365 8.339285885395663,19.32857154429365 8.339285885395663,19.239285828487407 8.428571601201904,19.150000112681166 8.517857317008145,18.882142965262446 8.696428748620624,18.703571533649963 8.875000180233107,18.43571438623124 9.05357161184559,18.257142954618757 9.14285732765183,18.078571523006275 9.232143043458072,17.989285807200034 9.321428759264313,17.900000091393792 9.410714475070554,17.810714375587555 9.500000190876795,17.810714375587555 9.500000190876795,17.810714375587555 9.589285906683036,17.721428659781314 9.678571622489278,17.721428659781314 9.767857338295519,17.632142943975072 9.767857338295519,17.632142943975072 " style="color: rgb(0, 0, 0);"/></g></svg>