<svg xmlns="http://www.w3.org/2000/svg" xmlns:svg="http://www.w3.org/2000/svg" xmlns:rdf="http://www.w3.org/1999/02/22-rdf-syntax-ns#" xmlns:cc="http://creativecommons.org/ns#" xmlns:dc="http://purl.org/dc/elements/1.1/" data-name="Layer 1" width="75.590551" height="75.590553" version="1.1"><rect id="backgroundrect" width="100%" height="100%" x="0" y="0" fill="none" stroke="none"/>
  <defs id="defs31"/>
  <title id="title2">hw-logo-black</title>
  
  <metadata id="metadata125">
    <rdf:RDF>
      <cc:Work rdf:about="">
        <dc:title>hw-logo-black</dc:title>
      </cc:Work>
    </rdf:RDF>
  </metadata>
<g class="currentLayer" style=""><title>Layer 1</title><g id="g36" class="selected" fill="#ffffff" fill-opacity="1">
    <g id="g130" fill="#ffffff" fill-opacity="1">
      <path d="m13.181176976112638,67.67933498367051 a2.741887588,2.741887588 0 0 1 0.25154932,-1.169704338 a2.8047749179999997,2.8047749179999997 0 0 1 5.156761059999999,0 a2.9431270439999997,2.9431270439999997 0 0 1 0.25154932,1.169704338 a2.82992985,2.82992985 0 1 1 -5.6598597,0 M59.56687158411264,5.005821905670535 a2.855084782,2.855084782 0 0 1 2.82992985,2.8676622480000002 a3.056324238,3.056324238 0 0 1 -0.25154932,1.182281804 a2.8425073159999994,2.8425073159999994 0 1 1 -2.5154932,-4.049944052 M18.589487356112635,60.007080723670526 v-12.577466 L60.434716738112634,33.20450067767053 a2.6035354619999995,2.6035354619999995 0 0 0 1.7608452399999999,-2.5154932 V15.545738413670529 a7.986690909999999,7.986690909999999 0 1 0 -5.156761059999999,0 V28.840119975670532 L15.15583913811264,43.065234021670534 a2.6035354619999995,2.6035354619999995 0 0 0 -1.748267774,2.5154932 v14.464085899999999 a7.986690909999999,7.986690909999999 0 1 0 5.156761059999999,0 " id="path4" stroke-width="0" fill="#ffffff" fill-opacity="1"/>
      <path d="m18.82845921011264,7.873484153670537 a3.056324238,3.056324238 0 0 1 -0.23897185400000007,1.182281804 a2.8928171799999998,2.8928171799999998 0 1 1 0.23897185400000007,-1.182281804 M37.79527793811264,19.407020475670528 a2.8676622480000002,2.8676622480000002 0 0 1 0,5.7353244960000005 h-0.27670425200000004 a2.855084782,2.855084782 0 0 1 -2.5154932,-2.855084782 a2.905394646,2.905394646 0 0 1 0.9055775520000002,-2.1130142880000005 a2.855084782,2.855084782 0 0 1 1.9117748319999999,-0.7546479600000002 M13.43272629611264,15.545738413670529 v14.137071784 a2.64126786,2.64126786 0 0 0 1.0690846100000002,2.125591754 a2.5154932,2.5154932 0 0 0 1.5092959199999998,0.4905211740000001 a2.5909579959999998,2.5909579959999998 0 0 0 0.8175352900000002,-0.13835212600000002 l14.627592958000001,-5.0309864 a7.898648648,7.898648648 0 0 0 6.288733,3.182098898 a8.11246557,8.11246557 0 1 0 -7.974113443999999,-8.150197968 l-11.219099671999999,3.7732398 v-10.388986915999999 a7.986690909999999,7.986690909999999 0 1 0 -5.156761059999999,0 " id="path6" stroke-width="0" fill="#ffffff" fill-opacity="1"/>
      <path d="m56.73694173411264,67.67933498367051 a2.741887588,2.741887588 0 0 1 0.25154932,-1.169704338 a2.8047749179999997,2.8047749179999997 0 0 1 5.156761059999999,0 a2.9431270439999997,2.9431270439999997 0 0 1 0.25154932,1.169704338 a2.82992985,2.82992985 0 1 1 -5.6598597,0 M37.79527793811264,56.86271422367052 a2.8676622480000002,2.8676622480000002 0 0 1 0,-5.7353244960000005 h0.27670425200000004 a2.8676622480000002,2.8676622480000002 0 0 1 2.5154932,2.8676622480000002 a2.8425073159999994,2.8425073159999994 0 0 1 -0.9181550180000002,2.1004368220000003 a2.741887588,2.741887588 0 0 1 -1.9117748319999999,0.7546479600000002 m24.362551642,3.1443665 V46.58692450167053 A2.64126786,2.64126786 0 0 0 61.05101257211263,44.46133274767053 A2.5154932,2.5154932 0 0 0 58.72418136211264,44.10916369967053 L44.08401093811264,49.089840235670536 A7.9238035799999995,7.9238035799999995 0 0 0 37.79527793811264,45.89516387167053 a8.11246557,8.11246557 0 1 0 7.986690909999999,8.150197968 l11.219099671999999,-3.7732398 v9.772691082 a7.986690909999999,7.986690909999999 0 1 0 5.156761059999999,0 " id="path8" stroke-width="0" fill="#ffffff" fill-opacity="1"/>
    </g>
  </g></g></svg>