<svg xmlns="http://www.w3.org/2000/svg" xmlns:xlink="http://www.w3.org/1999/xlink" width="24" height="24" version="1.1"><rect id="backgroundrect" width="100%" height="100%" x="0" y="0" fill="none" stroke="none"/>
    <!-- Uploaded to SVGRepo https://www.svgrepo.com -->
    <title>ic_fluent_extension_24_regular</title>
    <desc>Created with Sketch.</desc>
    
<g class="currentLayer" style=""><title>Layer 1</title><g id="ðŸ”-Product-Icons" stroke="none" stroke-width="1" fill="#ffffff" fill-rule="evenodd" class="" fill-opacity="1">
        <g id="ic_fluent_extension_24_regular" fill="#ffffff" fill-rule="nonzero" fill-opacity="1">
            <path d="M13,2.00423634 C14.5976809,2.00423634 15.9036609,3.25315631 15.9940107,4.82326845 L15.999,4.999 L18.25,5 C19.1171638,5 19.8370138,5.6307249 19.9758229,6.45857899 L19.9941988,6.60662896 L20,6.75018215 L19.999089,10.5011932 L18.0014641,10.5013081 C17.2578749,10.5013081 16.6352666,11.0444906 16.5215026,11.7403495 L16.5062295,11.8725169 L16.5014641,12.0013081 C16.5014641,12.7448973 17.0446466,13.3675056 17.7405055,13.4812697 L17.8726729,13.4965427 L18.001421,13.5013081 L19.999089,13.5011932 L20,17.2526162 C20,18.1707896 19.2928897,18.9238085 18.3934458,18.996815 L18.2499051,19.0026162 L15.999,19.002 L15.9949073,19.1746527 C15.9105551,20.6304745 14.7880945,21.8077938 13.3567472,21.9773891 L13.1762728,21.9932872 L13,21.9983799 C11.4023191,21.9983799 10.0963391,20.7494599 10.0050927,19.1778986 L10,19.002 L7.75,19.0026162 C6.88283624,19.0026162 6.16298617,18.3718913 6.02417709,17.5443003 L6.00580122,17.3962996 L6.00000002,17.2527983 L5.999,15.001 L5.83599833,14.9962154 C4.38017652,14.9118632 3.20285717,13.7894026 3.03326191,12.3580553 L3.01736381,12.1775809 L3.01227112,12.0013081 C3.01227112,10.4036272 4.26119108,9.09764722 5.83593285,9.0064008 L5.999,9.001 L6,6.75 C6,5.88283624 6.6307249,5.16298617 7.45830951,5.02417709 L7.60630906,5.00580122 L7.74980904,5.00000002 L9.999,4.999 L10.0050927,4.82796355 C10.0894449,3.37214174 11.2119055,2.1948224 12.6432528,2.02522713 L12.8237272,2.00932903 L13,2.00423634 Z M13,3.50423634 C12.2203039,3.50423634 11.5795513,4.09912442 11.5068663,4.86038808 L11.4999996,5.00497011 L11.4985379,6.49904559 L7.75,6.5 C7.63165327,6.5 7.53251318,6.58223341 7.50660266,6.692792 L7.49999998,6.75018215 L7.49908901,10.5011633 L6.01227112,10.5013081 C5.18384399,10.5013081 4.51227112,11.172881 4.51227112,12.0013081 C4.51227112,12.7810042 5.1071592,13.4217568 5.86775022,13.4944415 L6.01219809,13.5013081 L7.49908899,13.5011633 L7.5,17.2526162 C7.5,17.3709629 7.58223341,17.470103 7.69261747,17.4960135 L7.74990501,17.5026162 L11.4985387,17.5021414 L11.5,18.9983799 C11.5,19.826807 12.1715729,20.4983799 13,20.4983799 C13.7796961,20.4983799 14.4204487,19.9034918 14.4931337,19.1434507 L14.5000004,18.9991125 L14.498538,17.5021413 L18.25,17.5026162 C18.3683467,17.5026162 18.4674868,17.4203828 18.4933973,17.3100536 L18.5,17.2527983 L18.499,15 L17.9762065,15.0008827 L17.7968187,14.9944087 C16.2855295,14.8922211 15.0927456,13.6769414 15.0068442,12.153191 L15.0018895,11.9760505 L15.0083636,11.7966627 C15.1105511,10.2853735 16.3258308,9.09258955 17.8269888,9.00630828 L18.001421,9.0013081 L18.499,9.001 L18.5,6.75 C18.5,6.65532261 18.4473706,6.57293748 18.3697101,6.53050434 L18.3072025,6.50660266 L18.2498091,6.49999998 L14.4985372,6.49904531 L14.5,5.00423634 C14.5,4.17580922 13.8284271,3.50423634 13,3.50423634 Z" id="ðŸŽ¨-Color" fill="#ffffff" fill-opacity="1"/>
        </g>
    </g><polyline fill="none" stroke="#ffffff" stroke-dashoffset="" fill-rule="evenodd" marker-start="" marker-mid="" marker-end="" id="svg_1" points="7.982143022170699,6.947618952494899 7.982143022170699,6.947618952494899 7.892857306364457,6.947618952494899 7.892857306364457,7.036904668301141 7.892857306364457,7.036904668301141 7.892857306364457,7.036904668301141 7.982143022170699,7.036904668301141 7.982143022170699,6.947618952494899 8.16071445378318,6.947618952494899 8.339285885395663,6.858333236688659 8.517857317008145,6.858333236688659 8.696428748620624,6.769047520882419 8.875000180233107,6.769047520882419 8.964285896039348,6.769047520882419 9.05357161184559,6.769047520882419 9.05357161184559,6.858333236688659 9.05357161184559,6.858333236688659 8.964285896039348,6.858333236688659 8.875000180233107,6.858333236688659 8.785714464426865,6.947618952494899 8.607143032814387,6.947618952494899 8.517857317008145,7.036904668301141 8.428571601201904,7.036904668301141 8.428571601201904,7.036904668301141 8.339285885395663,7.126190384107381 8.339285885395663,7.126190384107381 8.428571601201904,7.036904668301141 8.428571601201904,7.036904668301141 8.517857317008145,7.036904668301141 8.607143032814387,7.036904668301141 8.696428748620624,6.947618952494899 8.785714464426865,6.947618952494899 9.14285732765183,6.947618952494899 9.500000190876795,6.947618952494899 9.767857338295519,6.947618952494899 9.946428769907998,7.036904668301141 10.214285917326722,7.036904668301141 10.482143064745445,7.036904668301141 10.571428780551686,7.036904668301141 10.750000212164169,7.036904668301141 10.83928592797041,7.036904668301141 10.83928592797041,7.036904668301141 10.928571643776651,7.036904668301141 11.017857359582893,7.036904668301141 11.10714307538913,7.036904668301141 11.196428791195371,7.036904668301141 11.285714507001613,7.036904668301141 11.285714507001613,7.036904668301141 11.285714507001613,7.036904668301141 11.285714507001613,7.036904668301141 11.375000222807854,7.036904668301141 11.375000222807854,6.947618952494899 11.375000222807854,6.947618952494899 11.464285938614097,6.947618952494899 11.464285938614097,6.947618952494899 11.464285938614097,6.947618952494899 11.553571654420336,6.947618952494899 11.553571654420336,6.947618952494899 11.464285938614097,6.947618952494899 11.375000222807854,6.947618952494899 11.285714507001613,7.036904668301141 11.10714307538913,7.126190384107381 11.017857359582893,7.126190384107381 10.83928592797041,7.215476099913623 10.750000212164169,7.215476099913623 10.571428780551686,7.215476099913623 10.392857348939204,7.215476099913623 10.303571633132963,7.215476099913623 10.214285917326722,7.126190384107381 10.035714485714239,7.036904668301141 10.035714485714239,7.036904668301141 10.035714485714239,6.947618952494899 10.035714485714239,6.947618952494899 10.035714485714239,6.947618952494899 10.035714485714239,6.947618952494899 10.12500020152048,6.858333236688659 10.214285917326722,6.858333236688659 10.392857348939204,6.769047520882419 10.571428780551686,6.769047520882419 10.750000212164169,6.769047520882419 10.83928592797041,6.769047520882419 11.10714307538913,6.769047520882419 11.285714507001613,6.769047520882419 11.553571654420336,6.769047520882419 11.82142880183906,6.769047520882419 11.910714517645303,6.769047520882419 12.089285949257782,6.769047520882419 12.089285949257782,6.769047520882419 12.178571665064025,6.769047520882419 12.089285949257782,6.769047520882419 12.089285949257782,6.769047520882419 12.000000233451543,6.679761805076177 12.000000233451543,6.590476089269936 12.000000233451543,6.501190373463695 11.910714517645303,6.411904657657453 11.82142880183906,6.233333226044973 11.732143086032819,5.965476078626249 11.732143086032819,5.786904647013767 11.642857370226576,5.697618931207526 11.642857370226576,5.608333215401286 11.642857370226576,5.429761783788804 11.642857370226576,5.3404760679825625 11.642857370226576,5.251190352176321 11.642857370226576,5.16190463637008 11.732143086032819,5.072618920563839 11.732143086032819,4.894047488951358 11.732143086032819,4.804761773145117 11.82142880183906,4.804761773145117 11.82142880183906,4.715476057338876 11.82142880183906,4.715476057338876 11.82142880183906,4.626190341532634 11.910714517645303,4.536904625726395 11.910714517645303,4.447618909920154 11.910714517645303,4.447618909920154 12.000000233451543,4.3583331941139125 12.000000233451543,4.269047478307671 12.000000233451543,4.269047478307671 12.000000233451543,4.17976176250143 12.089285949257782,4.090476046695189 12.089285949257782,4.090476046695189 12.178571665064025,4.001190330888949 12.178571665064025,4.001190330888949 12.267857380870263,3.9119046150827077 12.267857380870263,3.9119046150827077 12.357143096676504,3.9119046150827077 12.446428812482747,3.8226188992764665 12.535714528288986,3.8226188992764665 12.625000244095226,3.8226188992764665 12.714285959901469,3.7333331834702257 12.714285959901469,3.7333331834702257 12.714285959901469,3.7333331834702257 12.892857391513953,3.7333331834702257 12.892857391513953,3.7333331834702257 12.982143107320192,3.7333331834702257 12.982143107320192,3.7333331834702257 13.071428823126432,3.7333331834702257 13.071428823126432,3.7333331834702257 13.160714538932675,3.7333331834702257 13.250000254738916,3.7333331834702257 13.33928597054516,3.7333331834702257 13.428571686351399,3.8226188992764665 13.428571686351399,3.8226188992764665 13.517857402157636,3.9119046150827077 13.607143117963876,3.9119046150827077 13.696428833770119,4.001190330888949 13.78571454957636,4.001190330888949 13.875000265382603,4.090476046695189 13.964285981188842,4.17976176250143 14.053571696995084,4.17976176250143 14.053571696995084,4.269047478307671 14.142857412801325,4.269047478307671 14.142857412801325,4.3583331941139125 14.232143128607566,4.3583331941139125 14.32142884441381,4.447618909920154 14.32142884441381,4.447618909920154 14.32142884441381,4.536904625726395 14.410714560220049,4.536904625726395 14.410714560220049,4.626190341532634 14.410714560220049,4.715476057338876 14.410714560220049,4.804761773145117 14.50000027602629,4.894047488951358 14.50000027602629,4.983333204757599 14.50000027602629,5.16190463637008 14.50000027602629,5.251190352176321 14.50000027602629,5.429761783788804 14.50000027602629,5.519047499595045 14.50000027602629,5.519047499595045 14.50000027602629,5.697618931207526 14.50000027602629,5.786904647013767 14.50000027602629,5.876190362820008 14.50000027602629,5.965476078626249 14.410714560220049,6.0547617944324905 14.410714560220049,6.144047510238731 14.32142884441381,6.233333226044973 14.32142884441381,6.322618941851212 14.32142884441381,6.322618941851212 14.232143128607566,6.322618941851212 14.232143128607566,6.322618941851212 14.232143128607566,6.411904657657453 14.142857412801325,6.411904657657453 14.142857412801325,6.411904657657453 14.142857412801325,6.411904657657453 14.053571696995084,6.411904657657453 14.053571696995084,6.411904657657453 13.875000265382603,6.144047510238731 13.696428833770119,5.965476078626249 13.607143117963876,5.519047499595045 13.428571686351399,5.251190352176321 13.33928597054516,4.894047488951358 13.160714538932675,4.447618909920154 13.071428823126432,4.269047478307671 12.982143107320192,4.090476046695189 12.982143107320192,4.17976176250143 12.982143107320192,4.17976176250143 12.982143107320192,4.269047478307671 12.80357167570771,4.536904625726395 12.714285959901469,4.804761773145117 12.625000244095226,5.16190463637008 12.446428812482747,5.608333215401286 12.267857380870263,6.0547617944324905 12.178571665064025,6.233333226044973 12.178571665064025,6.501190373463695 12.089285949257782,6.679761805076177 12.089285949257782,6.769047520882419 12.089285949257782,6.679761805076177 12.089285949257782,6.679761805076177 12.178571665064025,6.233333226044973 12.267857380870263,5.519047499595045 12.446428812482747,5.072618920563839 12.535714528288986,4.894047488951358 12.625000244095226,4.804761773145117 12.625000244095226,4.804761773145117 12.625000244095226,4.894047488951358 12.625000244095226,4.894047488951358 12.535714528288986,5.429761783788804 12.535714528288986,6.144047510238731 12.535714528288986,6.769047520882419 12.535714528288986,7.304761815719864 12.535714528288986,7.304761815719864 12.535714528288986,7.304761815719864 12.625000244095226,7.304761815719864 12.625000244095226,7.215476099913623 12.625000244095226,6.590476089269936 12.714285959901469,5.786904647013767 12.80357167570771,5.3404760679825625 12.892857391513953,5.16190463637008 12.892857391513953,5.072618920563839 12.892857391513953,5.16190463637008 12.892857391513953,5.965476078626249 12.892857391513953,6.858333236688659 12.982143107320192,7.126190384107381 13.071428823126432,7.483333247332345 13.160714538932675,7.572618963138586 13.160714538932675,7.483333247332345 13.160714538932675,7.483333247332345 13.160714538932675,7.215476099913623 13.250000254738916,6.501190373463695 13.33928597054516,5.876190362820008 13.33928597054516,5.697618931207526 13.428571686351399,5.608333215401286 13.428571686351399,5.697618931207526 13.428571686351399,5.697618931207526 13.696428833770119,6.322618941851212 13.78571454957636,7.126190384107381 13.78571454957636,7.661904678944827 13.875000265382603,8.019047542169792 13.964285981188842,8.108333257976032 13.964285981188842,8.108333257976032 13.964285981188842,8.108333257976032 13.964285981188842,8.108333257976032 13.964285981188842,8.019047542169792 13.964285981188842,7.929761826363551 14.053571696995084,7.751190394751069 14.232143128607566,7.572618963138586 14.76785742344501,7.215476099913623 15.571428865701181,7.036904668301141 16.107143160538627,6.947618952494899 16.46428602376359,6.858333236688659 16.553571739569833,6.858333236688659 16.642857455376074,6.858333236688659 16.732143171182315,6.858333236688659 16.732143171182315,6.769047520882419 16.821428886988556,6.769047520882419 16.910714602794798,6.769047520882419 16.910714602794798,6.769047520882419 17.00000031860104,6.769047520882419 17.089286034407273,6.769047520882419 17.178571750213514,6.769047520882419 17.267857466019755,6.769047520882419 17.357143181825997,6.679761805076177 17.357143181825997,6.679761805076177 17.357143181825997,6.679761805076177 17.446428897632238,6.679761805076177 17.446428897632238,6.679761805076177 17.53571461343848,6.679761805076177 17.53571461343848,6.679761805076177 17.62500032924472,6.590476089269936 17.71428604505096,6.590476089269936 17.892857476663444,6.590476089269936 17.892857476663444,6.590476089269936 17.982143192469685,6.590476089269936 17.982143192469685,6.590476089269936 17.892857476663444,6.590476089269936 17.892857476663444,6.679761805076177 17.71428604505096,6.679761805076177 17.53571461343848,6.679761805076177 17.357143181825997,6.679761805076177 16.732143171182315,6.590476089269936 16.37500030795735,6.501190373463695 16.017857444732385,6.501190373463695 15.839286013119905,6.411904657657453 15.660714581507422,6.411904657657453 15.392857434088699,6.411904657657453 15.214286002476216,6.411904657657453 15.035714570863734,6.411904657657453 14.857143139251253,6.411904657657453 14.76785742344501,6.411904657657453 14.589285991832531,6.411904657657453 14.50000027602629,6.411904657657453 14.50000027602629,6.411904657657453 14.50000027602629,6.411904657657453 14.50000027602629,6.411904657657453 14.589285991832531,6.411904657657453 14.678571707638769,6.411904657657453 14.857143139251253,6.322618941851212 15.035714570863734,6.322618941851212 15.303571718282459,6.322618941851212 15.571428865701181,6.322618941851212 15.928571728926142,6.411904657657453 16.37500030795735,6.501190373463695 16.732143171182315,6.501190373463695 17.00000031860104,6.501190373463695 17.267857466019755,6.590476089269936 17.446428897632238,6.590476089269936 17.53571461343848,6.590476089269936 17.62500032924472,6.679761805076177 17.71428604505096,6.679761805076177 17.803571760857203,6.679761805076177 17.803571760857203,6.679761805076177 17.982143192469685,6.679761805076177 18.071428908275927,6.769047520882419 18.25000033988841,6.769047520882419 18.33928605569465,6.858333236688659 18.517857487307133,6.947618952494899 18.517857487307133,6.947618952494899 18.517857487307133,6.947618952494899 18.607143203113374,7.036904668301141 18.607143203113374,7.215476099913623 18.696428918919615,7.304761815719864 18.696428918919615,7.483333247332345 18.696428918919615,7.661904678944827 18.696428918919615,7.751190394751069 18.696428918919615,7.840476110557309 18.696428918919615,7.840476110557309 18.607143203113374,7.929761826363551 18.607143203113374,8.019047542169792 18.607143203113374,8.108333257976032 18.517857487307133,8.197618973782273 18.42857177150089,8.286904689588514 18.42857177150089,8.376190405394755 18.42857177150089,8.376190405394755 18.33928605569465,8.376190405394755 18.33928605569465,8.376190405394755 18.25000033988841,8.376190405394755 18.160714624082168,8.465476121200997 18.160714624082168,8.465476121200997 18.071428908275927,8.465476121200997 17.982143192469685,8.465476121200997 17.892857476663444,8.554761837007238 17.892857476663444,8.554761837007238 17.803571760857203,8.554761837007238 17.71428604505096,8.554761837007238 17.62500032924472,8.554761837007238 17.446428897632238,8.554761837007238 17.446428897632238,8.465476121200997 17.267857466019755,8.376190405394755 17.089286034407273,8.197618973782273 16.910714602794798,8.019047542169792 16.910714602794798,8.019047542169792 16.821428886988556,7.840476110557309 16.821428886988556,7.751190394751069 16.821428886988556,7.572618963138586 16.821428886988556,7.394047531526105 16.821428886988556,7.394047531526105 16.910714602794798,7.304761815719864 16.910714602794798,7.215476099913623 17.089286034407273,7.126190384107381 17.089286034407273,7.126190384107381 17.267857466019755,7.126190384107381 17.446428897632238,7.036904668301141 17.53571461343848,7.036904668301141 17.62500032924472,7.036904668301141 17.71428604505096,7.036904668301141 17.71428604505096,7.036904668301141 17.71428604505096,7.036904668301141 17.71428604505096,7.126190384107381 17.71428604505096,7.304761815719864 17.71428604505096,7.483333247332345 17.71428604505096,7.661904678944827 17.71428604505096,7.751190394751069 17.62500032924472,7.751190394751069 17.53571461343848,7.840476110557309 17.446428897632238,7.929761826363551 17.357143181825997,7.929761826363551 17.357143181825997,7.929761826363551 17.357143181825997,7.929761826363551 17.446428897632238,7.840476110557309 17.53571461343848,7.840476110557309 17.62500032924472,7.751190394751069 17.71428604505096,7.751190394751069 17.803571760857203,7.661904678944827 17.892857476663444,7.661904678944827 17.892857476663444,7.661904678944827 17.892857476663444,7.661904678944827 17.892857476663444,7.751190394751069 17.71428604505096,8.019047542169792 17.446428897632238,8.286904689588514 17.178571750213514,8.465476121200997 16.910714602794798,8.644047552813479 16.553571739569833,8.733333268619718 16.28571459215111,8.82261898442596 15.928571728926142,8.911904700232201 15.750000297313665,8.911904700232201 15.660714581507422,8.911904700232201 15.660714581507422,8.911904700232201 15.660714581507422,8.733333268619718 15.750000297313665,8.465476121200997 15.928571728926142,8.019047542169792 16.196428876344868,7.572618963138586 16.553571739569833,7.215476099913623 16.642857455376074,7.126190384107381 16.642857455376074,7.126190384107381 16.642857455376074,7.304761815719864 16.46428602376359,7.661904678944827 16.017857444732385,8.108333257976032 15.571428865701181,8.465476121200997 15.214286002476216,8.644047552813479 14.857143139251253,8.733333268619718 14.589285991832531,8.82261898442596 14.50000027602629,8.82261898442596 14.410714560220049,8.733333268619718 14.410714560220049,8.554761837007238 14.589285991832531,7.840476110557309 14.857143139251253,7.304761815719864 15.303571718282459,7.036904668301141 15.48214314989494,6.858333236688659 15.571428865701181,6.858333236688659 15.571428865701181,6.858333236688659 15.750000297313665,7.215476099913623 15.928571728926142,7.661904678944827 15.928571728926142,8.108333257976032 15.928571728926142,8.376190405394755 15.750000297313665,8.644047552813479 15.392857434088699,8.82261898442596 14.50000027602629,8.911904700232201 14.232143128607566,8.911904700232201 13.517857402157636,8.733333268619718 13.33928597054516,8.554761837007238 13.428571686351399,8.376190405394755 13.607143117963876,8.019047542169792 14.053571696995084,7.661904678944827 14.678571707638769,7.483333247332345 15.214286002476216,7.483333247332345 15.571428865701181,7.572618963138586 15.839286013119905,7.751190394751069 16.017857444732385,8.108333257976032 16.196428876344868,8.554761837007238 16.196428876344868,8.911904700232201 16.196428876344868,9.358333279263405 15.660714581507422,9.894047574100851 15.303571718282459,10.072619005713333 15.214286002476216,10.072619005713333 15.125000286669975,10.072619005713333 15.125000286669975,10.072619005713333 15.035714570863734,9.894047574100851 15.125000286669975,9.536904710875888 15.392857434088699,9.179761847650925 15.839286013119905,8.82261898442596 16.28571459215111,8.644047552813479 16.553571739569833,8.554761837007238 16.553571739569833,8.554761837007238 16.553571739569833,8.554761837007238 16.553571739569833,8.644047552813479 16.46428602376359,8.82261898442596 16.017857444732385,9.269047563457166 15.125000286669975,9.804761858294611 14.589285991832531,9.983333289907092 14.32142884441381,10.072619005713333 14.410714560220049,10.072619005713333 14.410714560220049,9.983333289907092 14.50000027602629,9.804761858294611 14.857143139251253,9.358333279263405 15.303571718282459,8.911904700232201 15.928571728926142,8.644047552813479 16.28571459215111,8.554761837007238 16.553571739569833,8.554761837007238 16.642857455376074,8.554761837007238 16.642857455376074,8.554761837007238 16.642857455376074,8.733333268619718 16.732143171182315,8.82261898442596 16.821428886988556,8.911904700232201 16.821428886988556,8.911904700232201 16.910714602794798,8.911904700232201 16.910714602794798,8.911904700232201 17.00000031860104,8.911904700232201 17.267857466019755,8.911904700232201 17.446428897632238,8.911904700232201 17.53571461343848,8.911904700232201 17.62500032924472,8.911904700232201 17.71428604505096,8.82261898442596 17.803571760857203,8.82261898442596 17.892857476663444,8.82261898442596 17.982143192469685,8.82261898442596 18.071428908275927,8.82261898442596 18.160714624082168,8.82261898442596 18.25000033988841,8.82261898442596 18.33928605569465,8.82261898442596 18.42857177150089,8.733333268619718 18.517857487307133,8.733333268619718 18.607143203113374,8.733333268619718 18.696428918919615,8.733333268619718 18.785714634725856,8.733333268619718 18.875000350532098,8.644047552813479 18.875000350532098,8.644047552813479 18.875000350532098,8.644047552813479 18.875000350532098,8.644047552813479 18.785714634725856,8.644047552813479 18.607143203113374,8.554761837007238 18.517857487307133,8.376190405394755 18.42857177150089,8.197618973782273 18.42857177150089,7.929761826363551 18.33928605569465,7.661904678944827 18.25000033988841,7.394047531526105 18.160714624082168,7.126190384107381 18.071428908275927,6.947618952494899 17.982143192469685,6.858333236688659 17.892857476663444,6.769047520882419 17.71428604505096,6.679761805076177 17.53571461343848,6.590476089269936 17.267857466019755,6.411904657657453 17.00000031860104,6.411904657657453 16.732143171182315,6.322618941851212 16.37500030795735,6.322618941851212 16.107143160538627,6.322618941851212 15.750000297313665,6.322618941851212 15.392857434088699,6.233333226044973 14.946428855057492,6.144047510238731 14.678571707638769,6.0547617944324905 14.50000027602629,6.0547617944324905 14.410714560220049,5.965476078626249 14.32142884441381,5.965476078626249 14.142857412801325,5.876190362820008 13.964285981188842,5.876190362820008 13.78571454957636,5.786904647013767 13.696428833770119,5.786904647013767 13.696428833770119,5.786904647013767 13.517857402157636,5.786904647013767 13.33928597054516,5.876190362820008 13.071428823126432,5.965476078626249 12.892857391513953,6.0547617944324905 12.625000244095226,6.144047510238731 12.446428812482747,6.233333226044973 12.267857380870263,6.411904657657453 11.910714517645303,6.590476089269936 11.642857370226576,6.769047520882419 11.642857370226576,6.769047520882419 11.285714507001613,7.036904668301141 11.10714307538913,7.215476099913623 10.928571643776651,7.483333247332345 10.750000212164169,7.661904678944827 10.750000212164169,7.840476110557309 10.750000212164169,7.929761826363551 10.83928592797041,7.929761826363551 10.83928592797041,7.929761826363551 10.928571643776651,7.840476110557309 11.10714307538913,7.751190394751069 11.464285938614097,7.483333247332345 12.000000233451543,7.215476099913623 12.357143096676504,7.126190384107381 12.357143096676504,7.126190384107381 12.357143096676504,7.304761815719864 12.267857380870263,7.840476110557309 12.000000233451543,8.554761837007238 11.732143086032819,9.090476131844683 11.642857370226576,9.358333279263405 11.732143086032819,9.358333279263405 11.732143086032819,9.358333279263405 11.82142880183906,9.358333279263405 12.000000233451543,9.001190416038442 12.357143096676504,8.465476121200997 12.982143107320192,7.661904678944827 13.428571686351399,7.126190384107381 13.428571686351399,7.126190384107381 13.428571686351399,7.126190384107381 13.250000254738916,7.483333247332345 13.071428823126432,8.376190405394755 12.80357167570771,9.447618995069647 12.625000244095226,10.161904721519575 12.535714528288986,10.608333300550779 12.625000244095226,10.69761901635702 12.625000244095226,10.608333300550779 12.625000244095226,10.519047584744538 12.625000244095226,10.429761868938298 12.625000244095226,9.626190426682129 12.714285959901469,8.733333268619718 12.892857391513953,8.108333257976032 12.892857391513953,8.019047542169792 12.892857391513953,8.108333257976032 12.982143107320192,8.733333268619718 12.892857391513953,9.804761858294611 12.892857391513953,10.69761901635702 13.160714538932675,11.144047595388225 13.250000254738916,11.144047595388225 13.250000254738916,11.144047595388225 13.160714538932675,11.144047595388225 13.160714538932675,10.965476163775744 13.071428823126432,10.072619005713333 13.250000254738916,9.001190416038442 13.33928597054516,8.554761837007238 13.33928597054516,8.465476121200997 13.33928597054516,8.554761837007238 13.517857402157636,9.447618995069647 13.517857402157636,10.876190447969503 13.428571686351399,12.304761900869357 13.517857402157636,13.286904774738007 13.607143117963876,13.46547620635049 13.607143117963876,13.46547620635049 13.607143117963876,13.46547620635049 13.428571686351399,13.197619058931767 13.428571686351399,11.947619037644394 13.517857402157636,10.519047584744538 13.696428833770119,9.536904710875888 13.78571454957636,9.358333279263405 13.78571454957636,9.358333279263405 13.78571454957636,9.447618995069647 13.875000265382603,10.69761901635702 13.875000265382603,12.840476195706803 13.964285981188842,13.733333353769213 14.142857412801325,13.822619069575452 14.142857412801325,13.822619069575452 14.142857412801325,13.733333353769213 14.142857412801325,13.197619058931767 14.142857412801325,11.769047606031911 14.410714560220049,10.429761868938298 14.678571707638769,9.447618995069647 14.76785742344501,9.269047563457166 14.76785742344501,9.269047563457166 14.76785742344501,9.536904710875888 14.76785742344501,10.608333300550779 14.678571707638769,12.036904753450633 14.678571707638769,12.929761911513044 14.76785742344501,13.286904774738007 14.76785742344501,13.286904774738007 14.76785742344501,13.286904774738007 14.678571707638769,12.929761911513044 14.589285991832531,11.858333321838153 14.589285991832531,10.519047584744538 14.589285991832531,9.983333289907092 14.589285991832531,9.894047574100851 14.589285991832531,9.894047574100851 14.678571707638769,10.161904721519575 14.857143139251253,11.322619027000707 14.857143139251253,12.48333333248184 14.857143139251253,13.376190490544246 14.946428855057492,13.376190490544246 14.857143139251253,13.376190490544246 14.857143139251253,13.46547620635049 14.76785742344501,13.286904774738007 14.589285991832531,12.304761900869357 14.589285991832531,11.233333311194466 14.589285991832531,10.69761901635702 14.589285991832531,10.608333300550779 14.589285991832531,10.608333300550779 14.678571707638769,10.69761901635702 14.76785742344501,11.411904742806948 14.857143139251253,12.304761900869357 14.946428855057492,13.197619058931767 15.035714570863734,13.911904785381696 15.214286002476216,14.44761908021914 15.214286002476216,14.53690479602538 15.303571718282459,14.53690479602538 15.303571718282459,14.53690479602538 15.303571718282459,14.53690479602538 15.392857434088699,14.53690479602538 15.48214314989494,14.53690479602538 15.48214314989494,14.44761908021914 15.48214314989494,14.44761908021914 15.48214314989494,14.44761908021914 15.392857434088699,14.44761908021914 15.392857434088699,14.358333364412902 15.303571718282459,14.26904764860666 15.214286002476216,14.001190501187937 15.125000286669975,13.733333353769213 15.035714570863734,13.55476192215673 15.035714570863734,13.55476192215673 15.035714570863734,13.55476192215673 14.946428855057492,13.46547620635049 14.946428855057492,13.376190490544246 14.946428855057492,13.197619058931767 14.946428855057492,13.197619058931767 14.946428855057492,13.197619058931767 15.035714570863734,13.197619058931767 15.125000286669975,13.10833334312553 15.303571718282459,13.197619058931767 15.571428865701181,13.376190490544246 15.839286013119905,13.644047637962974 16.017857444732385,13.911904785381696 16.107143160538627,14.001190501187937 16.196428876344868,14.17976193280042 16.28571459215111,14.26904764860666 16.37500030795735,14.358333364412902 16.37500030795735,14.44761908021914 16.46428602376359,14.44761908021914 16.46428602376359,14.44761908021914 16.46428602376359,14.44761908021914 16.553571739569833,14.53690479602538 16.553571739569833,14.53690479602538 16.553571739569833,14.53690479602538 16.642857455376074,14.626190511831624 16.642857455376074,14.626190511831624 16.821428886988556,14.715476227637863 16.910714602794798,14.804761943444104 17.00000031860104,14.894047659250345 17.089286034407273,14.983333375056587 17.178571750213514,15.07261909086283 17.178571750213514,15.16190480666907 17.267857466019755,15.16190480666907 17.357143181825997,15.25119052247531 17.446428897632238,15.340476238281552 17.53571461343848,15.340476238281552 17.62500032924472,15.429761954087793 17.62500032924472,15.429761954087793 17.71428604505096,15.429761954087793 17.803571760857203,15.429761954087793 17.982143192469685,15.429761954087793 18.160714624082168,15.519047669894036 18.25000033988841,15.519047669894036 18.33928605569465,15.519047669894036 18.33928605569465,15.519047669894036 18.42857177150089,15.519047669894036 18.42857177150089,15.519047669894036 18.517857487307133,15.429761954087793 18.517857487307133,15.429761954087793 18.517857487307133,15.429761954087793 18.517857487307133,15.429761954087793 18.517857487307133,15.429761954087793 18.517857487307133,15.429761954087793 18.42857177150089,15.340476238281552 18.42857177150089,15.340476238281552 18.33928605569465,15.340476238281552 18.160714624082168,15.16190480666907 18.160714624082168,15.07261909086283 18.160714624082168,15.07261909086283 18.071428908275927,15.07261909086283 18.071428908275927,15.07261909086283 18.160714624082168,15.07261909086283 18.160714624082168,15.07261909086283 18.160714624082168,15.07261909086283 18.25000033988841,15.16190480666907 18.25000033988841,15.16190480666907 18.33928605569465,15.340476238281552 18.33928605569465,15.608333385700274 18.33928605569465,15.876190533118995 18.33928605569465,16.05476196473148 18.33928605569465,16.233333396343962 18.33928605569465,16.411904827956445 18.33928605569465,16.501190543762686 18.25000033988841,16.67976197537517 18.25000033988841,16.67976197537517 18.25000033988841,16.67976197537517 18.160714624082168,16.858333406987647 18.160714624082168,16.94761912279389 18.071428908275927,16.94761912279389 18.071428908275927,16.94761912279389 18.071428908275927,16.94761912279389 17.982143192469685,17.03690483860013 17.982143192469685,17.12619055440637 17.892857476663444,17.215476270212612 17.892857476663444,17.215476270212612 17.803571760857203,17.215476270212612 17.803571760857203,17.215476270212612 17.71428604505096,17.215476270212612 17.62500032924472,17.304761986018853 17.53571461343848,17.304761986018853 17.53571461343848,17.394047701825095 17.446428897632238,17.394047701825095 17.357143181825997,17.394047701825095 17.178571750213514,17.394047701825095 17.089286034407273,17.483333417631336 17.00000031860104,17.483333417631336 16.910714602794798,17.483333417631336 16.821428886988556,17.483333417631336 16.821428886988556,17.483333417631336 16.732143171182315,17.394047701825095 16.642857455376074,17.394047701825095 16.37500030795735,17.304761986018853 16.28571459215111,17.304761986018853 16.017857444732385,17.215476270212612 16.017857444732385,17.215476270212612 15.839286013119905,17.215476270212612 15.839286013119905,17.215476270212612 15.750000297313665,17.215476270212612 15.750000297313665,17.12619055440637 15.750000297313665,17.12619055440637 15.750000297313665,17.12619055440637 15.750000297313665,17.03690483860013 " style="color: rgb(0, 0, 0);"/><polyline fill="none" stroke="#ffffff" stroke-dashoffset="" fill-rule="evenodd" marker-start="" marker-mid="" marker-end="" id="svg_2" points="16.107143160538627,16.94761912279389 16.196428876344868,16.858333406987647 16.196428876344868,16.858333406987647 16.37500030795735,16.858333406987647 16.37500030795735,16.858333406987647 16.553571739569833,16.858333406987647 16.553571739569833,16.858333406987647 16.642857455376074,16.76904769118141 16.732143171182315,16.67976197537517 16.910714602794798,16.590476259568927 17.00000031860104,16.590476259568927 17.178571750213514,16.411904827956445 17.446428897632238,16.322619112150203 17.53571461343848,16.233333396343962 17.53571461343848,16.233333396343962 17.53571461343848,16.233333396343962 17.53571461343848,16.233333396343962 17.446428897632238,16.233333396343962 17.357143181825997,16.233333396343962 17.178571750213514,16.322619112150203 16.821428886988556,16.322619112150203 16.46428602376359,16.322619112150203 16.017857444732385,16.322619112150203 15.571428865701181,16.322619112150203 15.303571718282459,16.322619112150203 15.214286002476216,16.322619112150203 15.303571718282459,16.322619112150203 15.303571718282459,16.322619112150203 15.571428865701181,16.233333396343962 15.660714581507422,16.233333396343962 15.839286013119905,16.14404768053772 16.196428876344868,16.05476196473148 16.46428602376359,16.05476196473148 16.821428886988556,16.05476196473148 17.089286034407273,15.965476248925237 17.357143181825997,15.965476248925237 17.53571461343848,15.876190533118995 17.62500032924472,15.876190533118995 " style="color: rgb(0, 0, 0);"/><polyline fill="none" stroke="#ffffff" stroke-dashoffset="" fill-rule="evenodd" marker-start="" marker-mid="" marker-end="" id="svg_3" points="16.196428876344868,16.233333396343962 16.107143160538627,16.233333396343962 15.839286013119905,16.322619112150203 15.48214314989494,16.411904827956445 15.392857434088699,16.411904827956445 15.303571718282459,16.501190543762686 15.214286002476216,16.501190543762686 15.303571718282459,16.501190543762686 15.303571718282459,16.411904827956445 15.48214314989494,16.411904827956445 15.660714581507422,16.233333396343962 16.017857444732385,15.876190533118995 16.28571459215111,15.608333385700274 16.553571739569833,15.16190480666907 16.642857455376074,14.983333375056587 16.732143171182315,14.804761943444104 16.821428886988556,14.804761943444104 16.732143171182315,14.804761943444104 16.642857455376074,14.804761943444104 16.37500030795735,15.07261909086283 15.839286013119905,15.340476238281552 15.125000286669975,15.608333385700274 14.410714560220049,15.786904817312754 14.053571696995084,15.965476248925237 14.053571696995084,15.965476248925237 14.053571696995084,15.965476248925237 14.142857412801325,15.876190533118995 14.232143128607566,15.786904817312754 14.410714560220049,15.608333385700274 14.589285991832531,15.16190480666907 14.76785742344501,14.804761943444104 15.125000286669975,14.44761908021914 15.214286002476216,14.17976193280042 15.214286002476216,14.17976193280042 15.214286002476216,14.17976193280042 15.125000286669975,14.17976193280042 15.035714570863734,14.358333364412902 14.678571707638769,14.894047659250345 14.142857412801325,15.608333385700274 13.964285981188842,15.965476248925237 13.875000265382603,16.05476196473148 13.875000265382603,16.05476196473148 13.875000265382603,15.965476248925237 13.964285981188842,15.519047669894036 14.142857412801325,14.804761943444104 14.232143128607566,14.09047621699418 14.232143128607566,13.733333353769213 14.232143128607566,13.733333353769213 14.232143128607566,13.733333353769213 14.232143128607566,13.822619069575452 14.32142884441381,14.715476227637863 14.32142884441381,15.876190533118995 14.232143128607566,17.304761986018853 14.232143128607566,17.483333417631336 14.410714560220049,17.572619133437577 14.32142884441381,17.394047701825095 14.410714560220049,16.590476259568927 14.678571707638769,15.876190533118995 14.857143139251253,15.340476238281552 14.946428855057492,15.25119052247531 14.946428855057492,15.340476238281552 14.857143139251253,15.519047669894036 14.76785742344501,16.14404768053772 14.76785742344501,16.858333406987647 14.76785742344501,17.03690483860013 14.76785742344501,16.94761912279389 14.857143139251253,16.858333406987647 14.946428855057492,16.67976197537517 15.214286002476216,16.322619112150203 15.392857434088699,16.233333396343962 15.392857434088699,16.233333396343962 15.392857434088699,16.233333396343962 15.48214314989494,16.322619112150203 15.48214314989494,16.411904827956445 15.571428865701181,16.590476259568927 15.571428865701181,16.76904769118141 15.571428865701181,16.76904769118141 15.571428865701181,16.76904769118141 15.48214314989494,16.76904769118141 15.48214314989494,16.858333406987647 15.48214314989494,16.858333406987647 15.392857434088699,16.858333406987647 15.392857434088699,16.858333406987647 15.214286002476216,16.94761912279389 15.035714570863734,17.03690483860013 14.946428855057492,17.12619055440637 14.76785742344501,17.215476270212612 14.76785742344501,17.304761986018853 14.678571707638769,17.394047701825095 14.589285991832531,17.394047701825095 14.50000027602629,17.572619133437577 14.50000027602629,17.572619133437577 14.50000027602629,17.661904849243818 14.50000027602629,17.75119056505006 14.50000027602629,17.8404762808563 14.410714560220049,17.929761996662542 14.410714560220049,18.01904771246878 14.410714560220049,18.10833342827502 14.410714560220049,18.197619144081262 14.410714560220049,18.376190575693744 14.32142884441381,18.465476291499986 14.32142884441381,18.554762007306227 14.32142884441381,18.644047723112468 14.232143128607566,18.73333343891871 14.232143128607566,18.911904870531192 14.232143128607566,19.001190586337433 14.142857412801325,19.001190586337433 14.142857412801325,19.090476302143674 14.142857412801325,19.090476302143674 14.142857412801325,19.090476302143674 14.053571696995084,19.090476302143674 14.053571696995084,19.179762017949916 14.053571696995084,19.179762017949916 14.053571696995084,19.179762017949916 14.142857412801325,19.179762017949916 14.142857412801325,19.179762017949916 14.232143128607566,19.269047733756153 14.232143128607566,19.358333449562394 14.232143128607566,19.447619165368636 14.232143128607566,19.536904881174877 14.232143128607566,19.71547631278736 14.32142884441381,19.8047620285936 14.32142884441381,19.894047744399842 14.32142884441381,19.894047744399842 14.232143128607566,19.894047744399842 14.232143128607566,19.8047620285936 14.142857412801325,19.626190596981118 14.142857412801325,19.179762017949916 14.232143128607566,18.644047723112468 14.32142884441381,18.197619144081262 14.32142884441381,18.10833342827502 14.32142884441381,18.197619144081262 14.32142884441381,18.197619144081262 14.232143128607566,18.286904859887503 14.142857412801325,18.644047723112468 13.964285981188842,18.911904870531192 13.78571454957636,19.269047733756153 13.696428833770119,19.447619165368636 13.607143117963876,19.447619165368636 13.607143117963876,19.536904881174877 13.517857402157636,19.626190596981118 13.428571686351399,19.626190596981118 13.428571686351399,19.71547631278736 13.33928597054516,19.71547631278736 13.250000254738916,19.71547631278736 13.250000254738916,19.8047620285936 13.160714538932675,19.8047620285936 13.071428823126432,19.8047620285936 13.071428823126432,19.8047620285936 12.982143107320192,19.894047744399842 12.892857391513953,19.894047744399842 12.80357167570771,19.894047744399842 12.80357167570771,19.894047744399842 12.625000244095226,19.983333460206083 12.535714528288986,19.983333460206083 12.446428812482747,19.983333460206083 12.357143096676504,20.072619176012324 12.267857380870263,20.072619176012324 12.089285949257782,20.161904891818565 12.089285949257782,20.161904891818565 12.000000233451543,20.161904891818565 11.910714517645303,20.161904891818565 11.910714517645303,20.161904891818565 11.82142880183906,20.161904891818565 11.910714517645303,20.161904891818565 12.089285949257782,20.072619176012324 12.178571665064025,20.072619176012324 12.357143096676504,19.983333460206083 12.535714528288986,19.894047744399842 12.625000244095226,19.894047744399842 12.80357167570771,19.8047620285936 12.892857391513953,19.8047620285936 12.982143107320192,19.8047620285936 13.071428823126432,19.8047620285936 13.071428823126432,19.8047620285936 13.160714538932675,19.8047620285936 13.160714538932675,19.8047620285936 13.160714538932675,19.8047620285936 13.071428823126432,19.8047620285936 13.071428823126432,19.8047620285936 12.892857391513953,19.894047744399842 12.80357167570771,19.894047744399842 12.80357167570771,19.983333460206083 12.714285959901469,19.983333460206083 12.625000244095226,20.072619176012324 12.535714528288986,20.072619176012324 12.535714528288986,20.072619176012324 12.446428812482747,20.161904891818565 12.446428812482747,20.161904891818565 12.446428812482747,20.251190607624807 12.446428812482747,20.251190607624807 12.535714528288986,20.251190607624807 12.535714528288986,20.251190607624807 12.625000244095226,20.340476323431048 12.714285959901469,20.340476323431048 12.714285959901469,20.340476323431048 12.80357167570771,20.340476323431048 12.892857391513953,20.340476323431048 12.982143107320192,20.340476323431048 13.071428823126432,20.429762039237286 13.071428823126432,20.429762039237286 13.071428823126432,20.429762039237286 13.160714538932675,20.429762039237286 13.160714538932675,20.340476323431048 13.250000254738916,20.340476323431048 13.250000254738916,20.340476323431048 13.250000254738916,20.340476323431048 13.33928597054516,20.161904891818565 13.428571686351399,19.894047744399842 13.696428833770119,19.269047733756153 13.78571454957636,18.911904870531192 13.964285981188842,18.554762007306227 14.053571696995084,18.286904859887503 14.053571696995084,17.929761996662542 14.053571696995084,17.483333417631336 13.964285981188842,17.03690483860013 13.964285981188842,16.76904769118141 13.964285981188842,16.590476259568927 14.053571696995084,16.590476259568927 14.053571696995084,16.590476259568927 14.053571696995084,16.76904769118141 13.964285981188842,17.304761986018853 13.696428833770119,18.10833342827502 13.696428833770119,18.554762007306227 13.607143117963876,18.644047723112468 13.607143117963876,18.73333343891871 13.607143117963876,18.73333343891871 13.607143117963876,18.73333343891871 13.517857402157636,18.73333343891871 13.517857402157636,18.73333343891871 13.250000254738916,18.197619144081262 13.160714538932675,17.483333417631336 13.071428823126432,16.76904769118141 13.071428823126432,16.501190543762686 13.071428823126432,16.411904827956445 13.071428823126432,16.501190543762686 13.071428823126432,16.590476259568927 13.160714538932675,17.215476270212612 13.071428823126432,18.01904771246878 12.982143107320192,18.644047723112468 12.892857391513953,19.001190586337433 12.892857391513953,19.090476302143674 12.892857391513953,19.090476302143674 12.80357167570771,19.090476302143674 12.80357167570771,19.090476302143674 12.714285959901469,19.090476302143674 12.535714528288986,18.82261915472495 12.357143096676504,18.286904859887503 12.267857380870263,18.10833342827502 12.267857380870263,18.01904771246878 12.267857380870263,18.10833342827502 12.357143096676504,18.10833342827502 12.446428812482747,18.465476291499986 12.357143096676504,18.73333343891871 12.357143096676504,18.911904870531192 12.357143096676504,18.911904870531192 12.267857380870263,18.911904870531192 12.267857380870263,18.911904870531192 12.178571665064025,18.911904870531192 12.178571665064025,18.911904870531192 12.000000233451543,18.82261915472495 11.910714517645303,18.82261915472495 11.82142880183906,18.73333343891871 11.82142880183906,18.644047723112468 11.82142880183906,18.644047723112468 11.82142880183906,18.644047723112468 11.910714517645303,18.644047723112468 11.910714517645303,18.73333343891871 12.000000233451543,19.001190586337433 12.000000233451543,19.090476302143674 11.910714517645303,19.090476302143674 11.910714517645303,19.090476302143674 11.910714517645303,19.090476302143674 11.910714517645303,19.179762017949916 11.82142880183906,19.179762017949916 11.82142880183906,19.179762017949916 11.82142880183906,19.179762017949916 11.82142880183906,19.269047733756153 11.732143086032819,19.269047733756153 11.732143086032819,19.269047733756153 11.732143086032819,19.269047733756153 11.732143086032819,19.358333449562394 11.732143086032819,19.447619165368636 11.732143086032819,19.536904881174877 11.732143086032819,19.626190596981118 11.732143086032819,19.626190596981118 11.642857370226576,19.626190596981118 11.642857370226576,19.626190596981118 11.642857370226576,19.626190596981118 11.642857370226576,19.626190596981118 11.553571654420336,19.536904881174877 11.553571654420336,19.358333449562394 11.553571654420336,19.090476302143674 11.553571654420336,18.82261915472495 11.553571654420336,18.644047723112468 11.553571654420336,18.465476291499986 11.553571654420336,18.376190575693744 11.553571654420336,18.197619144081262 11.642857370226576,18.10833342827502 11.642857370226576,17.929761996662542 11.642857370226576,17.8404762808563 11.642857370226576,17.661904849243818 11.732143086032819,17.572619133437577 11.82142880183906,17.394047701825095 11.82142880183906,17.304761986018853 11.910714517645303,17.215476270212612 11.910714517645303,17.12619055440637 12.000000233451543,17.03690483860013 12.089285949257782,16.94761912279389 12.178571665064025,16.76904769118141 12.267857380870263,16.501190543762686 12.357143096676504,16.411904827956445 12.357143096676504,16.322619112150203 12.446428812482747,16.233333396343962 12.446428812482747,16.14404768053772 12.535714528288986,16.14404768053772 12.625000244095226,16.05476196473148 12.625000244095226,15.965476248925237 12.80357167570771,15.786904817312754 12.80357167570771,15.608333385700274 12.892857391513953,15.519047669894036 12.982143107320192,15.340476238281552 13.071428823126432,15.16190480666907 13.071428823126432,15.16190480666907 13.160714538932675,15.07261909086283 " style="color: rgb(0, 0, 0);"/><polyline fill="none" stroke="#ffffff" stroke-dashoffset="" fill-rule="evenodd" marker-start="" marker-mid="" marker-end="" id="svg_4" points="13.250000254738916,14.804761943444104 13.250000254738916,14.804761943444104 13.250000254738916,14.715476227637863 13.250000254738916,14.715476227637863 13.250000254738916,14.715476227637863 13.250000254738916,14.715476227637863 13.250000254738916,14.804761943444104 13.250000254738916,15.07261909086283 13.160714538932675,15.608333385700274 13.071428823126432,15.876190533118995 12.982143107320192,16.322619112150203 12.892857391513953,16.858333406987647 12.80357167570771,17.03690483860013 12.80357167570771,17.304761986018853 12.80357167570771,17.483333417631336 12.80357167570771,17.572619133437577 12.80357167570771,17.661904849243818 12.714285959901469,17.75119056505006 12.714285959901469,17.8404762808563 12.714285959901469,17.75119056505006 12.625000244095226,17.483333417631336 12.625000244095226,16.94761912279389 12.714285959901469,16.14404768053772 12.892857391513953,15.608333385700274 12.982143107320192,14.983333375056587 13.071428823126432,14.53690479602538 13.071428823126432,14.001190501187937 13.160714538932675,13.644047637962974 13.160714538932675,13.286904774738007 13.160714538932675,13.197619058931767 13.160714538932675,13.10833334312553 13.33928597054516,13.55476192215673 13.428571686351399,14.358333364412902 13.517857402157636,15.07261909086283 13.517857402157636,15.876190533118995 13.517857402157636,16.501190543762686 13.517857402157636,16.76904769118141 13.517857402157636,16.858333406987647 13.517857402157636,16.858333406987647 13.33928597054516,16.501190543762686 13.250000254738916,15.519047669894036 13.071428823126432,14.44761908021914 12.892857391513953,13.286904774738007 12.80357167570771,12.394047616675596 12.625000244095226,11.679761890225674 12.535714528288986,11.50119045861319 12.535714528288986,11.50119045861319 12.535714528288986,11.858333321838153 12.535714528288986,12.661904764094324 12.535714528288986,13.644047637962974 12.625000244095226,14.17976193280042 12.625000244095226,14.358333364412902 12.625000244095226,14.44761908021914 12.625000244095226,14.358333364412902 12.446428812482747,13.733333353769213 12.357143096676504,13.197619058931767 " style="color: rgb(0, 0, 0);"/><polyline fill="none" stroke="#ffffff" stroke-dashoffset="" fill-rule="evenodd" marker-start="" marker-mid="" marker-end="" id="svg_5" points="12.089285949257782,10.072619005713333 12.089285949257782,10.161904721519575 12.178571665064025,10.876190447969503 12.267857380870263,11.679761890225674 12.267857380870263,12.751190479900563 12.357143096676504,13.911904785381696 12.357143096676504,14.983333375056587 12.357143096676504,15.608333385700274 12.357143096676504,15.786904817312754 12.357143096676504,15.697619101506513 12.267857380870263,15.697619101506513 12.178571665064025,15.429761954087793 11.910714517645303,14.17976193280042 11.732143086032819,12.661904764094324 11.464285938614097,10.519047584744538 11.375000222807854,9.626190426682129 11.285714507001613,9.358333279263405 11.375000222807854,9.71547614248837 11.553571654420336,11.054761879581985 11.732143086032819,12.661904764094324 11.732143086032819,14.09047621699418 11.732143086032819,15.07261909086283 11.732143086032819,15.340476238281552 11.642857370226576,15.340476238281552 11.642857370226576,15.25119052247531 11.553571654420336,15.25119052247531 11.375000222807854,14.358333364412902 11.196428791195371,12.215476185063117 11.10714307538913,10.786904732163261 11.10714307538913,10.251190437325816 " style="color: rgb(0, 0, 0);" class=""/><polyline fill="none" stroke="#ffffff" stroke-dashoffset="" fill-rule="evenodd" marker-start="" marker-mid="" marker-end="" id="svg_6" points="11.10714307538913,9.179761847650925 11.10714307538913,9.269047563457166 11.196428791195371,9.804761858294611 11.375000222807854,10.786904732163261 11.553571654420336,11.858333321838153 11.642857370226576,12.840476195706803 11.732143086032819,13.55476192215673 11.82142880183906,13.822619069575452 11.82142880183906,13.822619069575452 11.82142880183906,13.733333353769213 11.82142880183906,13.55476192215673 11.732143086032819,12.840476195706803 11.642857370226576,11.947619037644394 11.642857370226576,10.786904732163261 11.553571654420336,9.894047574100851 11.553571654420336,9.358333279263405 11.553571654420336,9.179761847650925 11.553571654420336,9.179761847650925 11.553571654420336,9.269047563457166 11.553571654420336,9.71547614248837 11.642857370226576,10.786904732163261 11.732143086032819,11.769047606031911 11.732143086032819,12.304761900869357 11.732143086032819,12.48333333248184 11.732143086032819,12.48333333248184 11.553571654420336,11.858333321838153 11.375000222807854,10.876190447969503 11.285714507001613,9.983333289907092 " style="color: rgb(0, 0, 0);"/><polyline fill="none" stroke="#ffffff" stroke-dashoffset="" fill-rule="evenodd" marker-start="" marker-mid="" marker-end="" id="svg_7" points="11.196428791195371,9.090476131844683 11.10714307538913,9.090476131844683 11.10714307538913,9.090476131844683 " style="color: rgb(0, 0, 0);" class=""/><polyline fill="none" stroke="#ffffff" stroke-dashoffset="" fill-rule="evenodd" marker-start="" marker-mid="" marker-end="" id="svg_8" points="8.16071445378318,9.685714237219624 8.16071445378318,9.685714237219624 8.16071445378318,9.864285668832105 8.16071445378318,10.310714247863311 8.16071445378318,10.757142826894516 8.07142873797694,11.02499997431324 8.07142873797694,11.20357140592572 8.07142873797694,11.114285690119479 8.07142873797694,11.02499997431324 8.07142873797694,10.489285679475792 7.8035715905582155,9.685714237219624 7.535714443139493,8.882142794963455 7.446428727333251,8.43571421593225 7.357143011527013,8.257142784319768 7.357143011527013,8.257142784319768 7.357143011527013,8.257142784319768 7.357143011527013,8.34642850012601 7.357143011527013,8.43571421593225 7.535714443139493,9.23928565818842 7.625000158945732,9.953571384638346 7.625000158945732,10.310714247863311 7.714285874751974,10.489285679475792 7.714285874751974,10.489285679475792 7.714285874751974,10.489285679475792 7.714285874751974,10.310714247863311 7.714285874751974,9.596428521413383 7.625000158945732,8.703571363350973 7.714285874751974,7.989285636901046 7.8035715905582155,7.54285705786984 7.8035715905582155,7.453571342063599 7.8035715905582155,7.632142773676081 7.8035715905582155,8.524999931738492 7.8035715905582155,8.792857079157214 7.8035715905582155,9.060714226575938 7.8035715905582155,9.149999942382179 7.8035715905582155,9.060714226575938 7.8035715905582155,8.614285647544733 7.8035715905582155,7.899999921094805 7.892857306364457,7.274999910451118 7.892857306364457,7.096428478838635 7.892857306364457,7.096428478838635 7.982143022170699,7.096428478838635 8.07142873797694,7.7214284894823235 8.16071445378318,8.614285647544733 8.250000169589422,9.32857137399466 8.250000169589422,9.4178570898009 8.339285885395663,9.4178570898009 8.339285885395663,9.4178570898009 8.339285885395663,9.32857137399466 8.250000169589422,8.792857079157214 8.339285885395663,8.167857068513527 8.339285885395663,7.632142773676081 8.339285885395663,7.54285705786984 8.339285885395663,7.632142773676081 8.428571601201904,7.810714205288563 8.428571601201904,8.703571363350973 8.607143032814387,9.4178570898009 8.696428748620624,9.864285668832105 8.785714464426865,9.953571384638346 8.785714464426865,9.953571384638346 8.785714464426865,9.864285668832105 8.785714464426865,9.4178570898009 8.785714464426865,8.614285647544733 8.785714464426865,7.810714205288563 8.875000180233107,7.54285705786984 8.875000180233107,7.54285705786984 8.875000180233107,7.632142773676081 8.964285896039348,7.899999921094805 9.05357161184559,8.882142794963455 9.14285732765183,9.685714237219624 9.232143043458072,10.042857100444587 9.232143043458072,10.042857100444587 9.232143043458072,10.042857100444587 9.232143043458072,10.042857100444587 9.232143043458072,9.4178570898009 9.321428759264313,8.43571421593225 9.589285906683036,7.7214284894823235 9.678571622489278,7.453571342063599 9.678571622489278,7.54285705786984 9.678571622489278,7.54285705786984 9.767857338295519,7.989285636901046 9.946428769907998,8.792857079157214 10.035714485714239,9.507142805607142 10.12500020152048,9.864285668832105 10.214285917326722,9.953571384638346 10.214285917326722,9.953571384638346 10.214285917326722,9.953571384638346 10.12500020152048,9.864285668832105 10.12500020152048,9.596428521413383 " style="color: rgb(0, 0, 0);"/><polyline fill="none" stroke="#ffffff" stroke-dashoffset="" fill-rule="evenodd" marker-start="" marker-mid="" marker-end="" id="svg_9" points="10.12500020152048,7.989285636901046 10.12500020152048,7.989285636901046 10.12500020152048,8.078571352707286 10.214285917326722,8.792857079157214 10.303571633132963,9.4178570898009 10.392857348939204,9.953571384638346 10.482143064745445,10.22142853205707 10.571428780551686,10.310714247863311 10.571428780551686,10.310714247863311 10.482143064745445,10.22142853205707 10.482143064745445,10.042857100444587 10.392857348939204,9.4178570898009 10.482143064745445,8.792857079157214 10.571428780551686,8.524999931738492 10.571428780551686,8.614285647544733 10.571428780551686,8.882142794963455 10.660714496357928,9.685714237219624 10.750000212164169,10.310714247863311 10.750000212164169,10.578571395282033 10.83928592797041,10.667857111088274 10.83928592797041,10.667857111088274 10.750000212164169,10.578571395282033 10.750000212164169,10.399999963669552 10.660714496357928,9.774999953025866 10.660714496357928,8.971428510769696 " style="color: rgb(0, 0, 0);"/><polyline fill="none" stroke="#ffffff" stroke-dashoffset="" fill-rule="evenodd" marker-start="" marker-mid="" marker-end="" id="svg_10" points="10.660714496357928,8.43571421593225 10.660714496357928,8.43571421593225 10.660714496357928,8.792857079157214 10.660714496357928,10.132142816250829 10.660714496357928,10.935714258506998 10.750000212164169,11.292857121731961 10.83928592797041,11.382142837538202 10.83928592797041,11.382142837538202 10.750000212164169,11.292857121731961 10.660714496357928,11.114285690119479 10.571428780551686,10.310714247863311 10.571428780551686,9.507142805607142 10.571428780551686,9.060714226575938 10.571428780551686,9.149999942382179 10.571428780551686,9.507142805607142 10.571428780551686,10.399999963669552 10.482143064745445,10.935714258506998 10.392857348939204,12.007142848181887 10.392857348939204,12.632142858825578 10.392857348939204,12.721428574631817 10.392857348939204,12.632142858825578 10.392857348939204,12.632142858825578 10.12500020152048,12.274999995600611 9.946428769907998,11.292857121731961 9.857143054101757,10.399999963669552 9.767857338295519,10.132142816250829 9.767857338295519,10.132142816250829 9.767857338295519,10.310714247863311 9.857143054101757,11.20357140592572 9.946428769907998,13.167857153663022 10.12500020152048,14.150000027531673 10.214285917326722,14.507142890756635 10.214285917326722,14.596428606562878 10.303571633132963,14.596428606562878 10.214285917326722,14.507142890756635 10.035714485714239,14.239285743337915 10.035714485714239,13.525000016887985 10.12500020152048,13.078571437856784 10.12500020152048,13.078571437856784 10.12500020152048,13.078571437856784 10.214285917326722,13.703571448500467 10.392857348939204,14.507142890756635 10.571428780551686,15.132142901400323 10.750000212164169,15.400000048819047 10.750000212164169,15.400000048819047 10.83928592797041,15.400000048819047 10.83928592797041,15.310714333012806 10.83928592797041,15.132142901400323 11.017857359582893,14.775000038175358 11.10714307538913,14.685714322369117 11.196428791195371,14.685714322369117 11.285714507001613,14.775000038175358 11.553571654420336,15.310714333012806 11.732143086032819,15.757142912044008 11.910714517645303,16.025000059462734 11.910714517645303,16.025000059462734 11.910714517645303,16.025000059462734 11.910714517645303,16.025000059462734 11.82142880183906,16.025000059462734 11.642857370226576,15.84642862785025 11.642857370226576,15.667857196237767 11.642857370226576,15.757142912044008 11.553571654420336,15.757142912044008 11.553571654420336,15.84642862785025 11.553571654420336,16.025000059462734 11.553571654420336,16.203571491075216 11.464285938614097,16.203571491075216 11.464285938614097,16.203571491075216 11.464285938614097,16.203571491075216 11.375000222807854,16.114285775268975 11.375000222807854,15.578571480431528 11.375000222807854,15.310714333012806 11.375000222807854,15.310714333012806 11.285714507001613,15.310714333012806 11.285714507001613,15.400000048819047 11.285714507001613,15.93571434365649 11.285714507001613,16.292857206881457 11.285714507001613,16.56071435430018 11.285714507001613,16.650000070106422 11.196428791195371,16.650000070106422 11.196428791195371,16.650000070106422 11.10714307538913,16.650000070106422 11.017857359582893,16.56071435430018 10.83928592797041,16.3821429226877 10.750000212164169,16.292857206881457 10.750000212164169,16.292857206881457 10.750000212164169,16.292857206881457 10.83928592797041,16.292857206881457 10.83928592797041,16.3821429226877 10.83928592797041,16.56071435430018 10.83928592797041,16.650000070106422 10.83928592797041,16.650000070106422 10.750000212164169,16.739285785912664 10.571428780551686,16.828571501718898 10.392857348939204,16.828571501718898 10.303571633132963,16.91785721752514 10.303571633132963,16.91785721752514 10.214285917326722,16.91785721752514 10.214285917326722,16.91785721752514 10.12500020152048,16.91785721752514 10.12500020152048,16.91785721752514 10.12500020152048,16.91785721752514 10.035714485714239,16.91785721752514 10.035714485714239,17.00714293333138 9.946428769907998,17.00714293333138 9.946428769907998,17.00714293333138 9.946428769907998,17.00714293333138 10.035714485714239,17.00714293333138 10.12500020152048,17.00714293333138 10.214285917326722,17.00714293333138 10.303571633132963,17.00714293333138 10.482143064745445,16.91785721752514 10.571428780551686,16.91785721752514 10.660714496357928,16.91785721752514 10.660714496357928,16.91785721752514 10.750000212164169,16.91785721752514 10.750000212164169,16.91785721752514 10.750000212164169,16.91785721752514 10.660714496357928,16.91785721752514 10.660714496357928,16.91785721752514 10.571428780551686,16.91785721752514 10.482143064745445,17.00714293333138 10.392857348939204,17.00714293333138 10.303571633132963,17.09642864913762 10.214285917326722,17.09642864913762 10.214285917326722,17.09642864913762 10.12500020152048,17.09642864913762 10.12500020152048,17.09642864913762 10.035714485714239,17.09642864913762 10.035714485714239,17.185714364943863 9.946428769907998,17.185714364943863 9.857143054101757,17.185714364943863 9.857143054101757,17.185714364943863 9.857143054101757,17.185714364943863 9.767857338295519,17.185714364943863 9.767857338295519,17.185714364943863 9.678571622489278,17.275000080750104 9.500000190876795,17.275000080750104 9.410714475070554,17.275000080750104 9.410714475070554,17.275000080750104 9.321428759264313,17.275000080750104 9.232143043458072,17.275000080750104 9.14285732765183,17.275000080750104 9.05357161184559,17.275000080750104 8.964285896039348,17.275000080750104 8.785714464426865,17.275000080750104 8.785714464426865,17.275000080750104 8.696428748620624,17.275000080750104 8.696428748620624,17.275000080750104 8.517857317008145,17.275000080750104 8.428571601201904,17.275000080750104 8.339285885395663,17.185714364943863 8.250000169589422,17.185714364943863 8.250000169589422,17.185714364943863 8.250000169589422,17.185714364943863 8.16071445378318,17.185714364943863 7.982143022170699,17.185714364943863 7.982143022170699,17.185714364943863 7.892857306364457,17.185714364943863 7.892857306364457,17.185714364943863 7.892857306364457,17.185714364943863 7.8035715905582155,17.185714364943863 7.8035715905582155,17.185714364943863 7.8035715905582155,17.185714364943863 7.714285874751974,17.185714364943863 7.714285874751974,17.185714364943863 7.714285874751974,17.185714364943863 7.714285874751974,17.185714364943863 7.625000158945732,17.185714364943863 7.625000158945732,17.09642864913762 7.625000158945732,17.09642864913762 7.625000158945732,17.09642864913762 7.535714443139493,17.09642864913762 7.535714443139493,17.00714293333138 7.535714443139493,17.00714293333138 7.535714443139493,17.00714293333138 7.535714443139493,16.91785721752514 7.535714443139493,16.828571501718898 7.535714443139493,16.739285785912664 7.446428727333251,16.650000070106422 7.446428727333251,16.47142863849394 7.446428727333251,16.47142863849394 7.446428727333251,16.292857206881457 7.446428727333251,16.292857206881457 7.446428727333251,16.203571491075216 7.446428727333251,16.025000059462734 7.446428727333251,15.93571434365649 7.446428727333251,15.84642862785025 7.446428727333251,15.757142912044008 7.446428727333251,15.667857196237767 7.446428727333251,15.667857196237767 7.446428727333251,15.578571480431528 7.446428727333251,15.48928576462529 7.446428727333251,15.48928576462529 7.446428727333251,15.400000048819047 7.446428727333251,15.310714333012806 7.446428727333251,15.221428617206564 7.446428727333251,15.132142901400323 7.446428727333251,14.95357146978784 7.446428727333251,14.95357146978784 7.446428727333251,14.775000038175358 7.446428727333251,14.596428606562878 7.446428727333251,14.507142890756635 7.446428727333251,14.328571459144156 7.446428727333251,14.239285743337915 7.446428727333251,14.060714311725434 7.446428727333251,13.88214288011295 7.446428727333251,13.703571448500467 7.446428727333251,13.525000016887985 7.446428727333251,13.257142869469261 7.446428727333251,13.167857153663022 7.446428727333251,12.900000006244298 7.446428727333251,12.632142858825578 7.446428727333251,12.542857143019335 7.446428727333251,12.36428571140685 7.446428727333251,12.274999995600611 7.446428727333251,11.828571416569407 7.446428727333251,11.649999984956928 7.446428727333251,11.292857121731961 7.535714443139493,11.20357140592572 7.535714443139493,10.846428542700757 7.535714443139493,10.667857111088274 7.625000158945732,10.578571395282033 7.625000158945732,10.399999963669552 7.714285874751974,10.310714247863311 7.714285874751974,10.132142816250829 7.8035715905582155,10.132142816250829 7.8035715905582155,10.042857100444587 7.8035715905582155,9.953571384638346 7.892857306364457,9.953571384638346 7.982143022170699,9.953571384638346 7.982143022170699,9.953571384638346 8.07142873797694,9.864285668832105 8.250000169589422,9.864285668832105 8.339285885395663,9.864285668832105 8.517857317008145,9.864285668832105 8.696428748620624,9.864285668832105 8.785714464426865,9.864285668832105 8.875000180233107,9.864285668832105 8.964285896039348,9.864285668832105 8.964285896039348,9.864285668832105 8.964285896039348,9.953571384638346 8.964285896039348,10.042857100444587 8.964285896039348,10.132142816250829 8.875000180233107,10.489285679475792 8.785714464426865,10.846428542700757 8.696428748620624,11.20357140592572 8.517857317008145,11.649999984956928 8.428571601201904,11.917857132375648 8.428571601201904,12.36428571140685 8.339285885395663,12.632142858825578 8.339285885395663,13.078571437856784 8.250000169589422,13.435714301081743 8.250000169589422,13.792857164306707 8.250000169589422,14.150000027531673 8.250000169589422,14.417857174950393 8.16071445378318,14.775000038175358 8.16071445378318,14.95357146978784 8.250000169589422,15.221428617206564 8.250000169589422,15.400000048819047 8.250000169589422,15.578571480431528 8.339285885395663,15.667857196237767 8.339285885395663,15.84642862785025 8.339285885395663,15.93571434365649 8.339285885395663,15.93571434365649 8.339285885395663,16.025000059462734 8.339285885395663,16.114285775268975 8.339285885395663,16.203571491075216 8.428571601201904,16.114285775268975 8.428571601201904,16.114285775268975 8.428571601201904,16.114285775268975 8.428571601201904,15.757142912044008 8.428571601201904,15.132142901400323 8.428571601201904,14.328571459144156 8.339285885395663,13.614285732694228 8.250000169589422,12.453571427213094 8.16071445378318,11.917857132375648 8.07142873797694,11.292857121731961 8.07142873797694,10.935714258506998 8.07142873797694,10.667857111088274 8.07142873797694,10.489285679475792 8.07142873797694,10.22142853205707 8.16071445378318,10.132142816250829 8.16071445378318,9.953571384638346 8.250000169589422,9.774999953025866 8.250000169589422,9.596428521413383 8.250000169589422,9.507142805607142 8.339285885395663,9.507142805607142 8.339285885395663,9.507142805607142 8.339285885395663,9.507142805607142 8.517857317008145,9.685714237219624 8.696428748620624,9.864285668832105 8.875000180233107,10.132142816250829 8.964285896039348,10.489285679475792 9.05357161184559,10.935714258506998 9.14285732765183,11.560714269150685 9.232143043458072,12.185714279794372 9.321428759264313,12.632142858825578 9.321428759264313,13.257142869469261 9.410714475070554,13.703571448500467 9.410714475070554,14.060714311725434 9.410714475070554,14.596428606562878 9.410714475070554,15.221428617206564 9.410714475070554,15.400000048819047 9.410714475070554,15.578571480431528 9.321428759264313,16.025000059462734 9.321428759264313,16.203571491075216 9.410714475070554,16.3821429226877 9.410714475070554,16.47142863849394 9.321428759264313,16.47142863849394 9.232143043458072,16.47142863849394 9.05357161184559,16.203571491075216 9.05357161184559,15.48928576462529 8.964285896039348,14.775000038175358 8.964285896039348,13.88214288011295 9.05357161184559,12.721428574631817 9.14285732765183,12.453571427213094 9.14285732765183,12.36428571140685 9.14285732765183,12.632142858825578 9.232143043458072,13.525000016887985 9.232143043458072,14.507142890756635 9.321428759264313,15.578571480431528 9.321428759264313,16.292857206881457 9.321428759264313,16.828571501718898 9.321428759264313,17.09642864913762 9.321428759264313,17.09642864913762 9.410714475070554,17.09642864913762 9.410714475070554,17.09642864913762 9.500000190876795,17.09642864913762 9.500000190876795,17.00714293333138 9.589285906683036,16.56071435430018 9.767857338295519,16.025000059462734 10.035714485714239,15.48928576462529 10.214285917326722,15.042857185594084 10.303571633132963,14.775000038175358 10.392857348939204,14.596428606562878 10.392857348939204,14.596428606562878 10.392857348939204,14.596428606562878 10.392857348939204,14.596428606562878 10.392857348939204,15.132142901400323 10.392857348939204,15.93571434365649 10.392857348939204,16.3821429226877 10.392857348939204,16.47142863849394 10.392857348939204,16.47142863849394 10.303571633132963,16.203571491075216 10.214285917326722,15.400000048819047 10.12500020152048,14.328571459144156 10.12500020152048,13.435714301081743 10.035714485714239,12.98928572205054 10.035714485714239,12.98928572205054 10.035714485714239,12.98928572205054 10.035714485714239,13.078571437856784 10.12500020152048,13.3464285852755 10.392857348939204,14.060714311725434 10.571428780551686,14.417857174950393 10.660714496357928,14.507142890756635 10.660714496357928,14.328571459144156 10.83928592797041,13.703571448500467 11.10714307538913,13.167857153663022 11.285714507001613,12.98928572205054 11.285714507001613,12.98928572205054 11.285714507001613,12.98928572205054 11.285714507001613,13.078571437856784 11.10714307538913,13.257142869469261 10.928571643776651,13.3464285852755 10.750000212164169,13.435714301081743 10.571428780551686,13.435714301081743 10.571428780551686,13.435714301081743 10.571428780551686,13.435714301081743 10.482143064745445,13.078571437856784 10.392857348939204,12.810714290438057 10.214285917326722,12.632142858825578 10.035714485714239,12.542857143019335 9.857143054101757,12.542857143019335 9.589285906683036,12.542857143019335 9.232143043458072,12.542857143019335 8.964285896039348,12.542857143019335 8.696428748620624,12.542857143019335 8.428571601201904,12.542857143019335 8.250000169589422,12.632142858825578 7.982143022170699,12.632142858825578 7.892857306364457,12.632142858825578 7.714285874751974,12.721428574631817 7.357143011527013,12.721428574631817 7.267857295720772,12.721428574631817 7.17857157991453,12.810714290438057 7.089285864108288,12.810714290438057 7.089285864108288,12.810714290438057 7.000000148302049,12.810714290438057 7.000000148302049,12.810714290438057 6.910714432495807,12.810714290438057 6.8214287166895655,12.900000006244298 6.732143000883324,12.900000006244298 6.732143000883324,12.900000006244298 6.642857285077082,12.900000006244298 6.642857285077082,12.900000006244298 6.553571569270842,12.900000006244298 6.553571569270842,12.900000006244298 6.464285853464601,12.900000006244298 6.464285853464601,12.900000006244298 6.375000137658359,12.98928572205054 6.375000137658359,12.98928572205054 6.375000137658359,12.98928572205054 6.285714421852118,12.98928572205054 6.285714421852118,12.98928572205054 6.285714421852118,12.98928572205054 6.1964287060458805,12.98928572205054 6.1964287060458805,12.98928572205054 6.1964287060458805,12.98928572205054 6.107142990239638,12.98928572205054 6.107142990239638,12.98928572205054 6.017857274433398,12.98928572205054 6.017857274433398,12.98928572205054 5.928571558627157,12.98928572205054 5.839285842820916,12.900000006244298 5.839285842820916,12.900000006244298 5.750000127014674,12.900000006244298 5.750000127014674,12.900000006244298 5.660714411208433,12.900000006244298 5.660714411208433,12.900000006244298 5.660714411208433,12.900000006244298 5.571428695402192,12.900000006244298 5.571428695402192,12.900000006244298 5.482142979595951,12.810714290438057 5.482142979595951,12.810714290438057 5.392857263789709,12.810714290438057 5.392857263789709,12.810714290438057 5.303571547983468,12.721428574631817 5.303571547983468,12.721428574631817 5.303571547983468,12.721428574631817 5.214285832177227,12.632142858825578 5.125000116370986,12.632142858825578 5.125000116370986,12.632142858825578 5.125000116370986,12.632142858825578 5.0357144005647445,12.542857143019335 5.0357144005647445,12.542857143019335 5.0357144005647445,12.453571427213094 4.946428684758507,12.453571427213094 4.946428684758507,12.453571427213094 4.857142968952266,12.36428571140685 4.857142968952266,12.36428571140685 4.857142968952266,12.274999995600611 4.767857253146023,12.274999995600611 4.767857253146023,12.185714279794372 4.767857253146023,12.09642856398813 4.767857253146023,12.09642856398813 4.767857253146023,12.007142848181887 4.767857253146023,12.007142848181887 4.767857253146023,11.917857132375648 4.767857253146023,11.828571416569407 4.767857253146023,11.739285700763165 4.767857253146023,11.649999984956928 4.767857253146023,11.649999984956928 4.767857253146023,11.560714269150685 4.767857253146023,11.560714269150685 4.857142968952266,11.471428553344444 4.857142968952266,11.382142837538202 4.857142968952266,11.382142837538202 4.857142968952266,11.292857121731961 4.946428684758507,11.20357140592572 4.946428684758507,11.20357140592572 5.0357144005647445,11.114285690119479 5.0357144005647445,11.114285690119479 5.125000116370986,11.02499997431324 5.125000116370986,11.02499997431324 5.214285832177227,10.935714258506998 5.214285832177227,10.935714258506998 5.214285832177227,10.935714258506998 5.303571547983468,10.846428542700757 5.392857263789709,10.846428542700757 5.482142979595951,10.757142826894516 5.482142979595951,10.757142826894516 5.571428695402192,10.667857111088274 5.571428695402192,10.667857111088274 5.660714411208433,10.667857111088274 5.750000127014674,10.578571395282033 5.750000127014674,10.578571395282033 5.839285842820916,10.578571395282033 5.839285842820916,10.489285679475792 5.928571558627157,10.489285679475792 5.928571558627157,10.489285679475792 6.017857274433398,10.399999963669552 6.107142990239638,10.399999963669552 6.1964287060458805,10.399999963669552 6.1964287060458805,10.310714247863311 6.285714421852118,10.310714247863311 6.375000137658359,10.310714247863311 6.375000137658359,10.310714247863311 6.464285853464601,10.310714247863311 6.464285853464601,10.310714247863311 6.553571569270842,10.22142853205707 6.642857285077082,10.22142853205707 6.642857285077082,10.22142853205707 6.732143000883324,10.22142853205707 6.732143000883324,10.22142853205707 6.732143000883324,10.22142853205707 6.8214287166895655,10.22142853205707 6.8214287166895655,10.22142853205707 6.8214287166895655,10.22142853205707 6.910714432495807,10.22142853205707 6.910714432495807,10.22142853205707 6.910714432495807,10.310714247863311 6.910714432495807,10.310714247863311 6.910714432495807,10.310714247863311 6.8214287166895655,10.489285679475792 6.8214287166895655,10.489285679475792 6.8214287166895655,10.578571395282033 6.732143000883324,10.667857111088274 6.732143000883324,10.757142826894516 6.732143000883324,10.846428542700757 6.732143000883324,10.935714258506998 6.732143000883324,11.114285690119479 6.732143000883324,11.20357140592572 6.732143000883324,11.382142837538202 6.732143000883324,11.471428553344444 6.732143000883324,11.739285700763165 6.732143000883324,11.917857132375648 6.8214287166895655,12.274999995600611 6.8214287166895655,12.36428571140685 6.8214287166895655,12.542857143019335 6.8214287166895655,12.632142858825578 6.8214287166895655,12.810714290438057 6.8214287166895655,12.900000006244298 6.8214287166895655,12.98928572205054 6.8214287166895655,13.078571437856784 6.8214287166895655,13.167857153663022 6.8214287166895655,13.257142869469261 6.8214287166895655,13.257142869469261 6.8214287166895655,13.3464285852755 6.8214287166895655,13.3464285852755 6.8214287166895655,13.435714301081743 6.8214287166895655,13.435714301081743 6.732143000883324,13.435714301081743 6.642857285077082,13.525000016887985 6.553571569270842,13.525000016887985 6.553571569270842,13.525000016887985 6.553571569270842,13.525000016887985 6.464285853464601,13.525000016887985 6.464285853464601,13.525000016887985 6.464285853464601,13.525000016887985 6.375000137658359,13.525000016887985 6.375000137658359,13.525000016887985 6.375000137658359,13.435714301081743 6.375000137658359,13.435714301081743 6.285714421852118,13.257142869469261 6.285714421852118,12.98928572205054 6.1964287060458805,12.721428574631817 6.107142990239638,12.542857143019335 6.017857274433398,12.274999995600611 6.017857274433398,12.09642856398813 6.017857274433398,12.007142848181887 5.928571558627157,11.917857132375648 5.928571558627157,11.828571416569407 5.928571558627157,11.828571416569407 5.928571558627157,11.739285700763165 5.839285842820916,11.649999984956928 5.839285842820916,11.560714269150685 5.839285842820916,11.560714269150685 5.839285842820916,11.560714269150685 5.839285842820916,11.471428553344444 5.750000127014674,11.471428553344444 5.750000127014674,11.471428553344444 5.750000127014674,11.471428553344444 5.660714411208433,11.382142837538202 5.660714411208433,11.382142837538202 5.660714411208433,11.292857121731961 5.660714411208433,11.292857121731961 5.660714411208433,11.292857121731961 5.660714411208433,11.20357140592572 5.839285842820916,11.20357140592572 5.928571558627157,11.20357140592572 6.017857274433398,11.20357140592572 6.107142990239638,11.20357140592572 6.1964287060458805,11.20357140592572 6.375000137658359,11.20357140592572 6.464285853464601,11.292857121731961 6.464285853464601,11.292857121731961 6.553571569270842,11.292857121731961 6.553571569270842,11.382142837538202 6.642857285077082,11.382142837538202 6.732143000883324,11.471428553344444 6.732143000883324,11.560714269150685 6.732143000883324,11.560714269150685 6.732143000883324,11.649999984956928 6.732143000883324,11.649999984956928 6.8214287166895655,11.739285700763165 6.8214287166895655,11.739285700763165 6.732143000883324,11.739285700763165 6.732143000883324,11.739285700763165 6.8214287166895655,11.739285700763165 6.910714432495807,11.739285700763165 7.000000148302049,11.739285700763165 7.17857157991453,11.739285700763165 7.446428727333251,11.739285700763165 7.625000158945732,11.649999984956928 7.982143022170699,11.649999984956928 8.250000169589422,11.560714269150685 8.607143032814387,11.471428553344444 8.696428748620624,11.471428553344444 8.964285896039348,11.382142837538202 9.232143043458072,11.382142837538202 9.410714475070554,11.292857121731961 9.589285906683036,11.20357140592572 9.857143054101757,11.114285690119479 9.946428769907998,11.02499997431324 10.214285917326722,10.935714258506998 10.303571633132963,10.846428542700757 10.482143064745445,10.667857111088274 10.571428780551686,10.489285679475792 10.83928592797041,10.22142853205707 11.017857359582893,9.953571384638346 11.196428791195371,9.774999953025866 11.464285938614097,9.4178570898009 11.732143086032819,8.971428510769696 12.000000233451543,8.703571363350973 12.178571665064025,8.43571421593225 12.357143096676504,8.167857068513527 12.535714528288986,7.899999921094805 12.625000244095226,7.7214284894823235 12.80357167570771,7.54285705786984 12.892857391513953,7.3642856262573595 12.982143107320192,7.096428478838635 13.071428823126432,6.917857047226153 13.250000254738916,6.739285615613673 13.33928597054516,6.56071418400119 13.428571686351399,6.382142752388707 13.517857402157636,6.203571320776227 13.696428833770119,6.024999889163745 13.78571454957636,5.846428457551262 13.875000265382603,5.66785702593878 13.964285981188842,5.57857131013254 14.053571696995084,5.489285594326299 14.142857412801325,5.310714162713817 14.232143128607566,5.221428446907575 14.232143128607566,5.132142731101334 14.410714560220049,4.953571299488853 14.50000027602629,4.864285583682612 14.50000027602629,4.774999867876371 14.589285991832531,4.774999867876371 14.589285991832531,4.68571415207013 14.589285991832531,4.68571415207013 14.589285991832531,4.68571415207013 14.678571707638769,4.5964284362638885 14.678571707638769,4.5964284362638885 14.76785742344501,4.5964284362638885 14.76785742344501,4.5964284362638885 14.76785742344501,4.507142720457648 14.76785742344501,4.507142720457648 14.76785742344501,4.507142720457648 14.76785742344501,4.507142720457648 14.857143139251253,4.417857004651407 14.857143139251253,4.417857004651407 14.857143139251253,4.328571288845166 14.857143139251253,4.328571288845166 14.857143139251253,4.328571288845166 14.857143139251253,4.239285573038925 14.857143139251253,4.239285573038925 14.857143139251253,4.149999857232684 14.857143139251253,4.239285573038925 14.857143139251253,4.239285573038925 14.76785742344501,4.328571288845166 14.50000027602629,4.774999867876371 14.32142884441381,5.221428446907575 14.142857412801325,5.489285594326299 14.053571696995084,5.66785702593878 13.964285981188842,5.846428457551262 13.875000265382603,6.024999889163745 13.78571454957636,6.203571320776227 13.78571454957636,6.203571320776227 13.78571454957636,6.203571320776227 13.78571454957636,6.203571320776227 13.78571454957636,6.2928570365824665 13.696428833770119,6.382142752388707 13.696428833770119,6.471428468194949 13.607143117963876,6.6499998998074314 13.607143117963876,6.739285615613673 13.517857402157636,6.917857047226153 13.517857402157636,6.828571331419913 13.607143117963876,6.828571331419913 13.607143117963876,6.6499998998074314 13.78571454957636,6.203571320776227 13.964285981188842,5.757142741745021 14.142857412801325,5.399999878520058 14.232143128607566,5.042857015295093 14.410714560220049,4.864285583682612 14.410714560220049,4.68571415207013 14.50000027602629,4.5964284362638885 14.50000027602629,4.507142720457648 14.50000027602629,4.507142720457648 14.589285991832531,4.417857004651407 14.589285991832531,4.417857004651407 14.589285991832531,4.328571288845166 14.589285991832531,4.328571288845166 14.589285991832531,4.328571288845166 14.678571707638769,4.239285573038925 14.678571707638769,4.149999857232684 14.678571707638769,4.149999857232684 14.678571707638769,4.149999857232684 14.678571707638769,4.149999857232684 14.589285991832531,4.149999857232684 14.32142884441381,4.149999857232684 14.053571696995084,4.060714141426443 13.875000265382603,4.060714141426443 13.607143117963876,4.060714141426443 13.428571686351399,4.060714141426443 12.982143107320192,4.149999857232684 12.714285959901469,4.149999857232684 12.446428812482747,4.239285573038925 12.178571665064025,4.239285573038925 12.000000233451543,4.328571288845166 11.910714517645303,4.417857004651407 11.82142880183906,4.507142720457648 11.732143086032819,4.5964284362638885 11.553571654420336,4.774999867876371 11.464285938614097,5.042857015295093 11.375000222807854,5.310714162713817 11.375000222807854,5.66785702593878 11.375000222807854,6.024999889163745 11.285714507001613,6.2928570365824665 11.285714507001613,6.6499998998074314 11.375000222807854,7.0071427630323955 11.464285938614097,7.3642856262573595 11.553571654420336,7.632142773676081 11.642857370226576,7.989285636901046 11.732143086032819,8.257142784319768 11.82142880183906,8.614285647544733 11.910714517645303,9.060714226575938 12.000000233451543,9.32857137399466 12.000000233451543,9.507142805607142 12.089285949257782,9.774999953025866 12.089285949257782,10.132142816250829 12.089285949257782,10.399999963669552 12.000000233451543,10.578571395282033 11.910714517645303,10.667857111088274 11.910714517645303,10.846428542700757 11.732143086032819,11.02499997431324 11.642857370226576,11.20357140592572 11.464285938614097,11.292857121731961 11.375000222807854,11.471428553344444 11.196428791195371,11.649999984956928 11.017857359582893,11.828571416569407 10.928571643776651,11.917857132375648 10.83928592797041,12.09642856398813 10.660714496357928,12.274999995600611 10.571428780551686,12.542857143019335 10.482143064745445,12.721428574631817 10.392857348939204,12.98928572205054 10.303571633132963,13.167857153663022 10.214285917326722,13.3464285852755 10.214285917326722,13.525000016887985 10.214285917326722,13.703571448500467 10.12500020152048,13.88214288011295 10.12500020152048,14.150000027531673 10.12500020152048,14.328571459144156 10.035714485714239,14.417857174950393 10.035714485714239,14.596428606562878 10.035714485714239,14.775000038175358 10.035714485714239,14.8642857539816 10.035714485714239,15.042857185594084 9.946428769907998,15.310714333012806 9.946428769907998,15.48928576462529 9.946428769907998,15.578571480431528 9.946428769907998,15.667857196237767 9.857143054101757,15.667857196237767 9.857143054101757,15.667857196237767 9.857143054101757,15.667857196237767 9.767857338295519,15.667857196237767 9.767857338295519,15.667857196237767 9.500000190876795,15.667857196237767 9.232143043458072,15.310714333012806 8.964285896039348,15.042857185594084 8.696428748620624,14.596428606562878 8.339285885395663,14.239285743337915 7.982143022170699,13.703571448500467 7.714285874751974,13.3464285852755 7.446428727333251,12.98928572205054 7.267857295720772,12.810714290438057 7.17857157991453,12.721428574631817 7.17857157991453,12.632142858825578 7.089285864108288,12.542857143019335 7.089285864108288,12.453571427213094 7.089285864108288,12.453571427213094 7.089285864108288,12.453571427213094 7.089285864108288,12.36428571140685 7.089285864108288,12.36428571140685 7.089285864108288,12.36428571140685 7.089285864108288,12.274999995600611 7.089285864108288,12.185714279794372 7.089285864108288,12.09642856398813 7.089285864108288,12.09642856398813 7.089285864108288,12.09642856398813 7.000000148302049,12.09642856398813 6.910714432495807,12.09642856398813 6.910714432495807,12.007142848181887 6.732143000883324,12.007142848181887 6.553571569270842,12.007142848181887 6.464285853464601,12.007142848181887 6.375000137658359,12.007142848181887 6.285714421852118,11.917857132375648 6.1964287060458805,11.917857132375648 6.107142990239638,11.917857132375648 6.017857274433398,11.828571416569407 5.928571558627157,11.828571416569407 5.928571558627157,11.828571416569407 5.928571558627157,11.828571416569407 5.839285842820916,11.739285700763165 5.750000127014674,11.739285700763165 5.660714411208433,11.649999984956928 5.660714411208433,11.649999984956928 5.571428695402192,11.649999984956928 5.571428695402192,11.649999984956928 5.571428695402192,11.560714269150685 5.571428695402192,11.560714269150685 5.571428695402192,11.560714269150685 5.660714411208433,11.560714269150685 5.660714411208433,11.560714269150685 5.750000127014674,11.471428553344444 5.839285842820916,11.471428553344444 5.928571558627157,11.471428553344444 6.1964287060458805,11.382142837538202 6.642857285077082,11.20357140592572 7.000000148302049,11.114285690119479 7.535714443139493,11.02499997431324 7.982143022170699,10.935714258506998 8.339285885395663,10.846428542700757 8.607143032814387,10.846428542700757 8.964285896039348,10.757142826894516 9.232143043458072,10.757142826894516 9.500000190876795,10.757142826894516 9.767857338295519,10.757142826894516 10.12500020152048,10.667857111088274 10.482143064745445,10.667857111088274 10.660714496357928,10.667857111088274 10.928571643776651,10.578571395282033 11.017857359582893,10.578571395282033 11.285714507001613,10.578571395282033 11.375000222807854,10.489285679475792 11.464285938614097,10.489285679475792 11.553571654420336,10.489285679475792 11.642857370226576,10.399999963669552 11.732143086032819,10.399999963669552 11.82142880183906,10.310714247863311 12.000000233451543,10.22142853205707 12.089285949257782,10.132142816250829 12.178571665064025,10.042857100444587 12.267857380870263,9.953571384638346 12.357143096676504,9.864285668832105 12.446428812482747,9.774999953025866 12.446428812482747,9.774999953025866 12.446428812482747,9.774999953025866 12.446428812482747,9.774999953025866 12.446428812482747,10.042857100444587 12.357143096676504,10.489285679475792 12.267857380870263,10.757142826894516 12.267857380870263,11.02499997431324 12.178571665064025,11.292857121731961 12.178571665064025,11.560714269150685 12.089285949257782,11.828571416569407 12.089285949257782,12.007142848181887 12.000000233451543,12.185714279794372 12.000000233451543,12.36428571140685 11.910714517645303,12.542857143019335 11.910714517645303,12.721428574631817 11.82142880183906,12.98928572205054 11.732143086032819,13.167857153663022 11.732143086032819,13.257142869469261 11.642857370226576,13.435714301081743 11.642857370226576,13.614285732694228 11.553571654420336,13.703571448500467 11.553571654420336,13.792857164306707 11.553571654420336,13.88214288011295 11.464285938614097,14.060714311725434 11.375000222807854,14.150000027531673 11.375000222807854,14.239285743337915 11.375000222807854,14.328571459144156 11.375000222807854,14.328571459144156 11.375000222807854,14.328571459144156 11.285714507001613,14.328571459144156 11.285714507001613,14.328571459144156 11.285714507001613,14.328571459144156 11.196428791195371,14.328571459144156 11.196428791195371,14.328571459144156 11.196428791195371,14.328571459144156 11.196428791195371,14.328571459144156 11.10714307538913,14.239285743337915 11.10714307538913,14.239285743337915 11.017857359582893,14.150000027531673 10.928571643776651,14.060714311725434 10.83928592797041,13.97142859591919 10.83928592797041,13.88214288011295 10.750000212164169,13.703571448500467 10.660714496357928,13.3464285852755 10.660714496357928,13.257142869469261 10.660714496357928,12.98928572205054 10.660714496357928,12.632142858825578 10.750000212164169,12.36428571140685 10.83928592797041,12.185714279794372 10.83928592797041,12.007142848181887 10.928571643776651,11.739285700763165 11.017857359582893,11.560714269150685 11.10714307538913,11.471428553344444 11.196428791195371,11.382142837538202 11.285714507001613,11.20357140592572 11.285714507001613,11.20357140592572 11.464285938614097,11.114285690119479 11.553571654420336,11.02499997431324 11.553571654420336,11.02499997431324 11.553571654420336,11.02499997431324 11.642857370226576,11.02499997431324 11.642857370226576,11.02499997431324 11.732143086032819,11.292857121731961 11.732143086032819,11.649999984956928 11.82142880183906,12.09642856398813 11.82142880183906,12.542857143019335 11.82142880183906,12.98928572205054 11.732143086032819,13.3464285852755 11.732143086032819,13.703571448500467 11.642857370226576,14.060714311725434 11.464285938614097,14.417857174950393 11.375000222807854,14.775000038175358 11.285714507001613,14.95357146978784 11.196428791195371,14.95357146978784 11.10714307538913,14.95357146978784 11.10714307538913,14.95357146978784 11.017857359582893,14.95357146978784 11.017857359582893,14.95357146978784 10.928571643776651,14.95357146978784 10.660714496357928,14.685714322369117 10.482143064745445,14.060714311725434 10.392857348939204,13.525000016887985 10.303571633132963,12.721428574631817 10.303571633132963,12.09642856398813 10.392857348939204,11.382142837538202 10.482143064745445,10.846428542700757 11.017857359582893,9.953571384638346 11.285714507001613,9.685714237219624 11.553571654420336,9.507142805607142 11.642857370226576,9.4178570898009 11.732143086032819,9.4178570898009 11.82142880183906,9.774999953025866 12.000000233451543,10.22142853205707 12.089285949257782,10.757142826894516 12.089285949257782,11.382142837538202 12.000000233451543,12.185714279794372 11.82142880183906,12.810714290438057 11.642857370226576,13.435714301081743 11.464285938614097,13.88214288011295 11.10714307538913,14.328571459144156 10.928571643776651,14.507142890756635 10.750000212164169,14.596428606562878 10.571428780551686,14.596428606562878 10.482143064745445,14.596428606562878 10.482143064745445,14.507142890756635 10.482143064745445,14.239285743337915 10.303571633132963,13.525000016887985 10.214285917326722,12.810714290438057 10.214285917326722,12.007142848181887 10.482143064745445,11.114285690119479 10.750000212164169,10.489285679475792 11.196428791195371,9.864285668832105 11.642857370226576,9.507142805607142 12.089285949257782,9.23928565818842 12.535714528288986,9.060714226575938 12.714285959901469,9.060714226575938 12.80357167570771,9.060714226575938 12.982143107320192,9.149999942382179 13.160714538932675,9.4178570898009 13.250000254738916,9.864285668832105 13.250000254738916,10.399999963669552 13.160714538932675,11.02499997431324 12.80357167570771,12.007142848181887 12.535714528288986,12.632142858825578 12.267857380870263,13.167857153663022 12.000000233451543,13.435714301081743 11.82142880183906,13.525000016887985 11.642857370226576,13.614285732694228 11.464285938614097,13.614285732694228 11.285714507001613,13.435714301081743 11.10714307538913,12.810714290438057 10.928571643776651,11.828571416569407 10.928571643776651,10.757142826894516 11.10714307538913,9.864285668832105 11.375000222807854,9.32857137399466 11.732143086032819,8.971428510769696 12.089285949257782,8.703571363350973 12.357143096676504,8.614285647544733 12.535714528288986,8.614285647544733 12.714285959901469,8.614285647544733 12.80357167570771,8.703571363350973 12.982143107320192,8.971428510769696 13.160714538932675,9.4178570898009 13.250000254738916,10.042857100444587 13.071428823126432,11.292857121731961 12.625000244095226,12.274999995600611 12.178571665064025,13.078571437856784 11.642857370226576,13.525000016887985 11.10714307538913,13.703571448500467 10.83928592797041,13.792857164306707 10.83928592797041,13.703571448500467 10.83928592797041,13.703571448500467 10.750000212164169,13.167857153663022 10.660714496357928,12.36428571140685 10.660714496357928,11.560714269150685 10.750000212164169,10.846428542700757 11.285714507001613,10.042857100444587 11.732143086032819,9.685714237219624 12.000000233451543,9.596428521413383 12.267857380870263,9.596428521413383 12.357143096676504,9.685714237219624 12.714285959901469,10.22142853205707 12.982143107320192,10.846428542700757 13.160714538932675,11.828571416569407 13.160714538932675,12.542857143019335 12.982143107320192,13.525000016887985 12.625000244095226,14.328571459144156 12.357143096676504,14.775000038175358 12.178571665064025,14.95357146978784 12.089285949257782,14.95357146978784 12.089285949257782,14.95357146978784 12.000000233451543,14.685714322369117 11.732143086032819,13.88214288011295 11.464285938614097,12.810714290438057 11.464285938614097,11.649999984956928 11.553571654420336,10.757142826894516 11.82142880183906,10.22142853205707 12.089285949257782,9.864285668832105 12.267857380870263,9.774999953025866 12.357143096676504,9.774999953025866 12.446428812482747,9.953571384638346 12.714285959901469,10.667857111088274 12.892857391513953,11.560714269150685 12.982143107320192,12.542857143019335 12.892857391513953,13.435714301081743 12.625000244095226,13.97142859591919 12.000000233451543,14.507142890756635 11.464285938614097,14.596428606562878 10.750000212164169,14.507142890756635 10.392857348939204,14.239285743337915 9.946428769907998,13.703571448500467 9.678571622489278,13.078571437856784 9.410714475070554,12.09642856398813 9.321428759264313,11.114285690119479 9.321428759264313,10.310714247863311 9.857143054101757,9.507142805607142 10.303571633132963,9.149999942382179 11.196428791195371,9.060714226575938 11.732143086032819,9.149999942382179 12.178571665064025,9.4178570898009 12.535714528288986,10.042857100444587 12.714285959901469,11.382142837538202 12.625000244095226,12.274999995600611 12.357143096676504,12.98928572205054 11.82142880183906,13.614285732694228 11.285714507001613,13.88214288011295 10.750000212164169,13.88214288011295 9.946428769907998,13.792857164306707 9.678571622489278,13.703571448500467 9.678571622489278,13.614285732694228 9.767857338295519,13.435714301081743 9.857143054101757,12.632142858825578 10.035714485714239,11.828571416569407 10.482143064745445,11.02499997431324 10.83928592797041,10.578571395282033 11.196428791195371,10.399999963669552 11.285714507001613,10.399999963669552 11.285714507001613,10.399999963669552 11.285714507001613,10.399999963669552 11.464285938614097,11.114285690119479 11.553571654420336,11.649999984956928 11.642857370226576,11.917857132375648 11.642857370226576,11.917857132375648 " style="color: rgb(0, 0, 0);"/></g></svg>