<svg xmlns="http://www.w3.org/2000/svg" width="16" height="16" fill="currentColor" style=""><rect id="backgroundrect" width="100%" height="100%" x="0" y="0" fill="none" stroke="none"/><g class="currentLayer" style=""><title>Layer 1</title><path fill-rule="evenodd" clip-rule="evenodd" d="M10.081632651388645,3 h3 v1 h-1 v9 l-1,1 H4.081632651388645 l-1,-1 V4 H2.081632651388645 V3 h3 V2 a1,1 0 0 1 1,-1 h3 a1,1 0 0 1 1,1 v1 zM9.081632651388645,2 H6.081632651388645 v1 h3 V2 zM4.081632651388645,13 h7 V4 H4.081632651388645 v9 zm2,-8 H5.081632651388645 v7 h1 V5 zm1,0 h1 v7 H7.081632651388645 V5 zm2,0 h1 v7 H9.081632651388645 V5 z" id="svg_1" class="selected" fill="#ffffff" fill-opacity="1"/></g></svg>