<svg xmlns="http://www.w3.org/2000/svg" width="512" height="512"><rect id="backgroundrect" width="100%" height="100%" x="0" y="0" fill="none" stroke="none"/><title>ionicons-v5-d</title><g class="currentLayer" style=""><title>Layer 1</title><circle cx="176" cy="416" r="32" id="svg_1" class=""/><circle cx="176.5291005373001" cy="416" r="32" class="selected" id="svg_5" fill="#000000" fill-opacity="1"/><circle cx="400" cy="416" r="32" id="svg_2" class="selected" fill="#000000" fill-opacity="1"/><polygon points="167.78 304 429.12 304 467.52 112 133.89 112 125.42 64 32 64 32 96 98.58 96 146.58 368 432 368 432 336 173.42 336 167.78 304" id="svg_3" class=""/><polygon points="168.30909931659698,304 429.6490956544876,304 468.049089550972,112 134.41909992694855,112 125.94909870624542,64 32.52910053730011,64 32.52910053730011,96 99.1091023683548,96 147.1091023683548,368 432.5291005373001,368 432.5291005373001,336 173.94909870624542,336 168.30909931659698,304 " class="selected" id="svg_4" fill="#000000" fill-opacity="1"/></g></svg>