<svg xmlns="http://www.w3.org/2000/svg" xmlns:xlink="http://www.w3.org/1999/xlink" width="24" height="24" version="1.1" style=""><rect id="backgroundrect" width="100%" height="100%" x="0" y="0" fill="none" stroke="none"/>
    <!-- Uploaded to SVGRepo https://www.svgrepo.com -->
    <title>ic_fluent_comment_24_regular</title>
    <desc>Created with Sketch.</desc>
    
<g class="currentLayer" style=""><title>Layer 1</title><g id="ðŸ”-Product-Icons" stroke="none" stroke-width="1" fill="#000000" fill-rule="evenodd" class="" fill-opacity="1">
        <g id="ic_fluent_comment_24_regular" fill="#000000" fill-rule="nonzero" fill-opacity="1">
            <path d="M5.25,18 C3.45507456,18 2,16.5449254 2,14.75 L2,6.25 C2,4.45507456 3.45507456,3 5.25,3 L18.75,3 C20.5449254,3 22,4.45507456 22,6.25 L22,14.75 C22,16.5449254 20.5449254,18 18.75,18 L13.0124851,18 L7.99868152,21.7506795 C7.44585139,22.1641649 6.66249789,22.0512036 6.2490125,21.4983735 C6.08735764,21.2822409 6,21.0195912 6,20.7499063 L5.99921427,18 L5.25,18 Z M12.5135149,16.5 L18.75,16.5 C19.7164983,16.5 20.5,15.7164983 20.5,14.75 L20.5,6.25 C20.5,5.28350169 19.7164983,4.5 18.75,4.5 L5.25,4.5 C4.28350169,4.5 3.5,5.28350169 3.5,6.25 L3.5,14.75 C3.5,15.7164983 4.28350169,16.5 5.25,16.5 L7.49878573,16.5 L7.49899997,17.2497857 L7.49985739,20.2505702 L12.5135149,16.5 Z" id="ðŸŽ¨-Color" fill="#000000" fill-opacity="1"/>
        </g>
    </g><rect fill="#000000" stroke="#000000" stroke-dashoffset="" fill-rule="evenodd" id="svg_1" x="4" y="4" width="16" height="12" style="color: rgb(0, 0, 0);"/><polyline fill="none" stroke="#000000" stroke-dashoffset="" fill-rule="evenodd" marker-start="" marker-mid="" marker-end="" id="svg_3" points="3.5178572318586507,5.816666552282514 3.5178572318586507,5.816666552282514 3.428571516052409,5.816666552282514 3.428571516052409,5.816666552282514 3.428571516052409,5.816666552282514 3.428571516052409,5.816666552282514 3.428571516052409,5.905952268088755 3.428571516052409,5.905952268088755 3.428571516052409,5.905952268088755 3.428571516052409,5.905952268088755 3.3392858002461683,5.905952268088755 3.3392858002461683,5.995237983894997 3.3392858002461683,5.995237983894997 3.3392858002461683,6.084523699701236 3.3392858002461683,6.084523699701236 3.3392858002461683,6.1738094155074785 3.3392858002461683,6.26309513131372 3.3392858002461683,6.352380847119961 3.3392858002461683,6.4416665629262 3.3392858002461683,6.530952278732442 3.3392858002461683,6.530952278732442 3.3392858002461683,6.620237994538683 3.3392858002461683,6.7988094261511645 3.3392858002461683,6.888095141957407 3.3392858002461683,7.066666573569887 3.3392858002461683,7.24523800518237 3.3392858002461683,7.334523720988611 3.3392858002461683,7.513095152601093 3.3392858002461683,7.691666584213575 3.3392858002461683,7.8702380158260565 3.3392858002461683,8.04880944743854 3.3392858002461683,8.138095163244781 3.428571516052409,8.31666659485726 3.428571516052409,8.495238026469742 3.428571516052409,8.673809458082225 3.5178572318586507,8.852380889694707 3.5178572318586507,9.03095232130719 3.5178572318586507,9.209523752919672 3.60714294766489,9.388095184532151 3.60714294766489,9.566666616144634 3.696428663471131,9.655952331950875 3.696428663471131,9.834523763563357 3.696428663471131,10.01309519517584 3.696428663471131,10.102380910982081 3.696428663471131,10.280952342594563 3.696428663471131,10.370238058400805 3.7857143792773726,10.548809490013287 3.7857143792773726,10.727380921625766 3.7857143792773726,10.816666637432007 3.7857143792773726,11.084523784850731 3.696428663471131,11.263095216463213 3.696428663471131,11.352380932269455 3.696428663471131,11.530952363881939 3.60714294766489,11.798809511300657 3.60714294766489,11.888095227106898 3.60714294766489,12.06666665871938 3.60714294766489,12.245238090331863 3.5178572318586507,12.423809521944346 3.5178572318586507,12.513095237750585 3.5178572318586507,12.780952385169307 3.5178572318586507,12.870238100975548 3.5178572318586507,12.95952381678179 3.5178572318586507,13.227380964200513 3.5178572318586507,13.316666680006755 3.428571516052409,13.584523827425478 3.428571516052409,13.67380954323172 3.428571516052409,13.852380974844202 3.428571516052409,13.852380974844202 3.428571516052409,13.94166669065044 3.428571516052409,14.209523838069163 3.428571516052409,14.298809553875406 3.428571516052409,14.477380985487885 3.428571516052409,14.566666701294128 3.428571516052409,14.65595241710037 3.428571516052409,14.745238132906612 3.428571516052409,14.834523848712852 3.428571516052409,14.923809564519091 3.428571516052409,14.923809564519091 3.428571516052409,15.013095280325334 3.428571516052409,15.013095280325334 3.428571516052409,15.102380996131572 3.428571516052409,15.102380996131572 3.5178572318586507,15.102380996131572 3.60714294766489,15.013095280325334 " style="color: rgb(0, 0, 0);"/><polyline fill="none" stroke="#000000" stroke-dashoffset="" fill-rule="evenodd" marker-start="" marker-mid="" marker-end="" id="svg_4" points="4.767857253146023,16.352381017418946 4.857142968952266,16.352381017418946 4.857142968952266,16.352381017418946 4.857142968952266,16.352381017418946 4.946428684758507,16.352381017418946 4.946428684758507,16.263095301612708 5.0357144005647445,16.263095301612708 5.125000116370986,16.263095301612708 5.303571547983468,16.173809585806467 5.482142979595951,16.173809585806467 5.571428695402192,16.173809585806467 5.839285842820916,16.173809585806467 5.928571558627157,16.173809585806467 6.017857274433398,16.173809585806467 6.285714421852118,16.173809585806467 6.464285853464601,16.173809585806467 6.642857285077082,16.173809585806467 7.000000148302049,16.263095301612708 7.17857157991453,16.263095301612708 7.535714443139493,16.352381017418946 7.714285874751974,16.352381017418946 8.07142873797694,16.352381017418946 8.250000169589422,16.352381017418946 8.517857317008145,16.352381017418946 8.785714464426865,16.441666733225187 9.14285732765183,16.441666733225187 9.410714475070554,16.441666733225187 9.678571622489278,16.441666733225187 9.946428769907998,16.441666733225187 10.214285917326722,16.441666733225187 10.571428780551686,16.441666733225187 10.83928592797041,16.441666733225187 11.196428791195371,16.441666733225187 11.553571654420336,16.441666733225187 12.000000233451543,16.352381017418946 12.267857380870263,16.352381017418946 12.446428812482747,16.352381017418946 12.714285959901469,16.352381017418946 12.982143107320192,16.352381017418946 13.160714538932675,16.352381017418946 13.428571686351399,16.352381017418946 13.607143117963876,16.352381017418946 13.78571454957636,16.352381017418946 13.875000265382603,16.352381017418946 13.964285981188842,16.352381017418946 14.142857412801325,16.263095301612708 14.32142884441381,16.263095301612708 14.410714560220049,16.263095301612708 14.50000027602629,16.263095301612708 14.678571707638769,16.263095301612708 14.76785742344501,16.173809585806467 14.946428855057492,16.173809585806467 15.125000286669975,16.173809585806467 15.214286002476216,16.173809585806467 15.392857434088699,16.173809585806467 15.571428865701181,16.173809585806467 15.750000297313665,16.173809585806467 16.017857444732385,16.173809585806467 16.107143160538627,16.173809585806467 16.37500030795735,16.084523870000226 16.732143171182315,16.084523870000226 17.00000031860104,16.084523870000226 17.089286034407273,16.084523870000226 17.267857466019755,16.084523870000226 17.357143181825997,16.084523870000226 17.446428897632238,16.084523870000226 17.62500032924472,16.084523870000226 17.803571760857203,16.084523870000226 17.982143192469685,16.084523870000226 18.160714624082168,16.173809585806467 18.33928605569465,16.173809585806467 18.517857487307133,16.173809585806467 18.696428918919615,16.263095301612708 18.875000350532098,16.263095301612708 19.14285749795082,16.352381017418946 19.321428929563304,16.352381017418946 19.410714645369545,16.352381017418946 19.50000036117578,16.352381017418946 19.58928607698202,16.352381017418946 19.58928607698202,16.352381017418946 19.58928607698202,16.441666733225187 " style="color: rgb(0, 0, 0);"/><polyline fill="none" stroke="#000000" stroke-dashoffset="" fill-rule="evenodd" marker-start="" marker-mid="" marker-end="" id="svg_5" points="20.125000371819468,15.816666722581502 20.125000371819468,15.727381006775262 20.21428608762571,15.727381006775262 20.21428608762571,15.548809575162778 20.21428608762571,15.280952427744056 20.21428608762571,14.834523848712852 20.21428608762571,14.477380985487885 20.21428608762571,14.120238122262922 20.21428608762571,13.76309525903796 20.125000371819468,13.405952395812996 20.125000371819468,13.04880953258803 20.125000371819468,12.780952385169307 20.035714656013226,12.334523806138105 20.035714656013226,12.06666665871938 20.035714656013226,11.798809511300657 20.035714656013226,11.530952363881939 20.035714656013226,11.173809500656972 20.035714656013226,10.99523806904449 20.035714656013226,10.638095205819525 20.035714656013226,10.459523774207046 20.035714656013226,10.01309519517584 20.035714656013226,9.834523763563357 20.035714656013226,9.566666616144634 20.035714656013226,9.209523752919672 20.035714656013226,9.03095232130719 20.035714656013226,8.673809458082225 19.946428940206985,8.31666659485726 19.946428940206985,7.959523731632298 19.946428940206985,7.780952300019815 19.946428940206985,7.513095152601093 19.946428940206985,7.1559522893761285 19.946428940206985,6.977380857763647 19.946428940206985,6.7988094261511645 19.946428940206985,6.620237994538683 19.946428940206985,6.352380847119961 19.946428940206985,6.1738094155074785 19.946428940206985,6.084523699701236 19.946428940206985,5.995237983894997 19.946428940206985,5.905952268088755 19.946428940206985,5.816666552282514 20.035714656013226,5.816666552282514 20.035714656013226,5.727380836476275 20.035714656013226,5.638095120670033 20.035714656013226,5.638095120670033 20.125000371819468,5.638095120670033 20.125000371819468,5.638095120670033 20.21428608762571,5.816666552282514 20.30357180343195,5.995237983894997 20.39285751923819,6.1738094155074785 20.482143235044433,6.530952278732442 20.482143235044433,6.709523710344925 20.571428950850674,6.977380857763647 20.571428950850674,7.24523800518237 20.660714666656915,7.513095152601093 20.660714666656915,7.691666584213575 20.660714666656915,7.780952300019815 20.660714666656915,7.8702380158260565 20.660714666656915,8.04880944743854 20.660714666656915,8.138095163244781 20.660714666656915,8.31666659485726 20.660714666656915,8.495238026469742 20.660714666656915,8.673809458082225 20.571428950850674,8.852380889694707 20.571428950850674,9.03095232130719 20.571428950850674,9.298809468725914 20.482143235044433,9.477380900338392 20.482143235044433,9.566666616144634 20.482143235044433,9.566666616144634 20.482143235044433,9.566666616144634 20.482143235044433,9.388095184532151 20.482143235044433,8.852380889694707 20.482143235044433,8.495238026469742 20.482143235044433,8.04880944743854 20.39285751923819,7.780952300019815 20.39285751923819,7.423809436794853 20.39285751923819,7.24523800518237 20.39285751923819,7.1559522893761285 20.30357180343195,7.24523800518237 20.30357180343195,7.24523800518237 20.21428608762571,7.334523720988611 " style="color: rgb(0, 0, 0);"/><polyline fill="none" stroke="#000000" stroke-dashoffset="" fill-rule="evenodd" marker-start="" marker-mid="" marker-end="" id="svg_6" points="12.178571665064025,15.995238154193984 12.178571665064025,15.995238154193984 12.178571665064025,16.084523870000226 12.178571665064025,16.084523870000226 12.089285949257782,16.084523870000226 12.000000233451543,16.173809585806467 12.000000233451543,16.263095301612708 11.910714517645303,16.263095301612708 11.910714517645303,16.263095301612708 11.910714517645303,16.352381017418946 11.82142880183906,16.352381017418946 11.82142880183906,16.352381017418946 11.82142880183906,16.441666733225187 11.82142880183906,16.441666733225187 11.732143086032819,16.441666733225187 11.732143086032819,16.530952449031428 11.642857370226576,16.530952449031428 11.642857370226576,16.530952449031428 11.553571654420336,16.62023816483767 11.553571654420336,16.62023816483767 11.464285938614097,16.70952388064391 11.464285938614097,16.798809596450152 11.375000222807854,16.798809596450152 11.285714507001613,16.888095312256393 11.196428791195371,16.977381028062634 11.10714307538913,17.066666743868875 11.017857359582893,17.066666743868875 10.83928592797041,17.155952459675117 10.750000212164169,17.245238175481358 10.660714496357928,17.3345238912876 10.571428780551686,17.42380960709384 10.482143064745445,17.513095322900078 10.392857348939204,17.513095322900078 10.303571633132963,17.60238103870632 10.214285917326722,17.69166675451256 10.12500020152048,17.69166675451256 10.12500020152048,17.7809524703188 10.035714485714239,17.7809524703188 9.946428769907998,17.870238186125043 9.857143054101757,17.870238186125043 9.767857338295519,17.959523901931284 9.678571622489278,18.048809617737525 9.678571622489278,18.048809617737525 9.589285906683036,18.048809617737525 9.410714475070554,18.138095333543767 9.410714475070554,18.227381049350008 9.232143043458072,18.31666676515625 9.14285732765183,18.40595248096249 9.05357161184559,18.40595248096249 8.964285896039348,18.49523819676873 8.785714464426865,18.673809628381214 8.696428748620624,18.673809628381214 8.607143032814387,18.852381059993693 8.517857317008145,18.852381059993693 8.428571601201904,18.941666775799934 8.339285885395663,19.030952491606175 8.250000169589422,19.120238207412417 8.16071445378318,19.209523923218658 8.07142873797694,19.2988096390249 7.982143022170699,19.38809535483114 7.892857306364457,19.47738107063738 7.8035715905582155,19.47738107063738 7.8035715905582155,19.566666786443623 7.8035715905582155,19.566666786443623 7.714285874751974,19.655952502249864 7.714285874751974,19.655952502249864 7.714285874751974,19.655952502249864 7.714285874751974,19.745238218056105 7.714285874751974,19.745238218056105 7.714285874751974,19.745238218056105 7.714285874751974,19.834523933862346 7.714285874751974,19.834523933862346 7.625000158945732,19.923809649668584 7.625000158945732,19.923809649668584 7.625000158945732,19.923809649668584 7.625000158945732,20.013095365474825 7.625000158945732,20.013095365474825 7.535714443139493,20.013095365474825 7.535714443139493,19.923809649668584 7.625000158945732,19.923809649668584 7.625000158945732,19.834523933862346 7.625000158945732,19.655952502249864 7.625000158945732,19.2988096390249 7.625000158945732,19.030952491606175 7.535714443139493,18.584523912574973 7.357143011527013,18.138095333543767 7.267857295720772,17.7809524703188 7.267857295720772,17.513095322900078 7.267857295720772,17.3345238912876 7.267857295720772,17.066666743868875 7.267857295720772,16.798809596450152 7.267857295720772,16.70952388064391 7.267857295720772,16.530952449031428 7.267857295720772,16.441666733225187 7.267857295720772,16.352381017418946 7.267857295720772,16.352381017418946 7.357143011527013,16.352381017418946 7.357143011527013,16.263095301612708 7.446428727333251,16.263095301612708 7.446428727333251,16.263095301612708 7.625000158945732,16.173809585806467 7.714285874751974,16.173809585806467 7.892857306364457,16.173809585806467 8.07142873797694,16.173809585806467 8.339285885395663,16.173809585806467 8.696428748620624,16.173809585806467 9.321428759264313,16.263095301612708 9.589285906683036,16.263095301612708 9.857143054101757,16.441666733225187 10.035714485714239,16.530952449031428 10.12500020152048,16.530952449031428 10.214285917326722,16.62023816483767 10.303571633132963,16.62023816483767 10.303571633132963,16.62023816483767 10.392857348939204,16.62023816483767 10.392857348939204,16.70952388064391 10.303571633132963,16.70952388064391 10.12500020152048,16.798809596450152 9.857143054101757,16.888095312256393 9.678571622489278,16.977381028062634 9.410714475070554,17.066666743868875 9.232143043458072,17.155952459675117 8.964285896039348,17.155952459675117 8.785714464426865,17.155952459675117 8.696428748620624,17.155952459675117 8.517857317008145,17.155952459675117 8.339285885395663,17.066666743868875 8.250000169589422,17.066666743868875 8.07142873797694,17.066666743868875 7.982143022170699,17.066666743868875 7.892857306364457,16.977381028062634 7.8035715905582155,16.977381028062634 7.714285874751974,16.888095312256393 7.625000158945732,16.888095312256393 7.625000158945732,16.888095312256393 7.625000158945732,16.888095312256393 7.625000158945732,16.888095312256393 7.714285874751974,16.977381028062634 7.714285874751974,16.977381028062634 7.714285874751974,17.066666743868875 7.714285874751974,17.155952459675117 7.714285874751974,17.245238175481358 7.714285874751974,17.3345238912876 7.714285874751974,17.513095322900078 7.714285874751974,17.513095322900078 7.714285874751974,17.60238103870632 7.714285874751974,17.60238103870632 7.714285874751974,17.69166675451256 7.8035715905582155,17.69166675451256 7.8035715905582155,17.7809524703188 7.892857306364457,17.7809524703188 7.892857306364457,17.7809524703188 7.982143022170699,17.7809524703188 7.982143022170699,17.7809524703188 8.07142873797694,17.7809524703188 8.16071445378318,17.7809524703188 8.250000169589422,17.870238186125043 8.339285885395663,17.870238186125043 8.428571601201904,17.870238186125043 8.428571601201904,17.870238186125043 8.517857317008145,17.870238186125043 8.517857317008145,17.870238186125043 8.607143032814387,17.870238186125043 8.607143032814387,17.7809524703188 8.696428748620624,17.7809524703188 8.696428748620624,17.7809524703188 8.785714464426865,17.7809524703188 8.785714464426865,17.69166675451256 8.875000180233107,17.69166675451256 8.875000180233107,17.69166675451256 8.875000180233107,17.69166675451256 8.875000180233107,17.69166675451256 8.875000180233107,17.69166675451256 8.785714464426865,17.7809524703188 8.696428748620624,17.7809524703188 8.607143032814387,17.870238186125043 8.428571601201904,17.959523901931284 8.428571601201904,17.959523901931284 8.16071445378318,18.048809617737525 8.16071445378318,18.138095333543767 8.16071445378318,18.138095333543767 8.07142873797694,18.138095333543767 8.07142873797694,18.227381049350008 8.07142873797694,18.227381049350008 7.982143022170699,18.31666676515625 7.982143022170699,18.31666676515625 7.892857306364457,18.40595248096249 7.892857306364457,18.49523819676873 7.892857306364457,18.49523819676873 7.892857306364457,18.49523819676873 7.982143022170699,18.49523819676873 7.982143022170699,18.49523819676873 8.07142873797694,18.49523819676873 8.250000169589422,18.40595248096249 8.250000169589422,18.40595248096249 8.339285885395663,18.31666676515625 8.339285885395663,18.31666676515625 8.428571601201904,18.227381049350008 8.517857317008145,18.138095333543767 8.696428748620624,18.048809617737525 8.785714464426865,17.959523901931284 8.785714464426865,17.959523901931284 8.875000180233107,17.959523901931284 8.875000180233107,17.959523901931284 8.964285896039348,17.959523901931284 8.964285896039348,18.048809617737525 9.14285732765183,18.138095333543767 9.14285732765183,18.227381049350008 9.232143043458072,18.31666676515625 9.321428759264313,18.49523819676873 9.321428759264313,18.673809628381214 9.410714475070554,18.76309534418745 9.410714475070554,18.76309534418745 9.321428759264313,18.76309534418745 9.321428759264313,18.852381059993693 9.232143043458072,18.852381059993693 9.14285732765183,18.852381059993693 9.05357161184559,18.941666775799934 8.964285896039348,18.941666775799934 8.964285896039348,18.941666775799934 8.964285896039348,18.941666775799934 9.05357161184559,18.941666775799934 9.05357161184559,18.852381059993693 9.14285732765183,18.852381059993693 9.232143043458072,18.76309534418745 9.321428759264313,18.584523912574973 9.500000190876795,18.31666676515625 9.767857338295519,18.048809617737525 10.035714485714239,17.7809524703188 10.214285917326722,17.60238103870632 10.392857348939204,17.42380960709384 10.482143064745445,17.245238175481358 10.660714496357928,16.977381028062634 10.83928592797041,16.70952388064391 10.928571643776651,16.62023816483767 11.017857359582893,16.530952449031428 11.017857359582893,16.530952449031428 11.017857359582893,16.441666733225187 11.017857359582893,16.441666733225187 11.10714307538913,16.352381017418946 11.10714307538913,16.263095301612708 11.196428791195371,16.084523870000226 11.196428791195371,15.905952438387741 11.196428791195371,15.63809529096902 11.285714507001613,15.191666711937813 11.285714507001613,14.566666701294128 11.285714507001613,14.120238122262922 11.375000222807854,13.405952395812996 11.375000222807854,12.423809521944346 11.375000222807854,11.798809511300657 11.285714507001613,11.441666648075696 11.285714507001613,11.263095216463213 " style="color: rgb(0, 0, 0);"/></g></svg>