<svg xmlns="http://www.w3.org/2000/svg" width="24" height="24" fill="none"><rect id="backgroundrect" width="100%" height="100%" x="0" y="0" fill="none" stroke="none"/>

<g class="currentLayer" style=""><title>Layer 1</title><path d="M8.52910053730011,4.5 H9.52908053730011 V10.7382 C9.52908053730011,11.1132 9.43538053730011,11.4822 9.25649053730011,11.8117 L5.67179053730011,18.415 C5.03878053730011,19.5811 5.88298053730011,20.9999 7.2097805373001105,20.9999 H17.84840053730011 C19.17520053730011,20.9999 20.01940053730011,19.5811 19.38640053730011,18.415 L15.80170053730011,11.8117 C15.62280053730011,11.4822 15.52910053730011,11.1132 15.52910053730011,10.7382 V4.5 H16.52910053730011 C16.94330053730011,4.5 17.27910053730011,4.16421 17.27910053730011,3.75 C17.27910053730011,3.3357900000000003 16.94330053730011,3 16.52910053730011,3 H8.52910053730011 C8.11489053730011,3 7.77910053730011,3.3357900000000003 7.77910053730011,3.75 C7.77910053730011,4.16421 8.11489053730011,4.5 8.52910053730011,4.5 zM11.02910053730011,10.7382 V4.5 H14.02910053730011 V10.7382 C14.02910053730011,11.3631 14.18520053730011,11.9781 14.48340053730011,12.5273 L15.28280053730011,14 H9.77531053730011 L10.57480053730011,12.5273 C10.87290053730011,11.9781 11.02910053730011,11.3631 11.02910053730011,10.7382 zM8.96102053730011,15.5 H16.097100537300108 L18.06810053730011,19.1307 C18.15850053730011,19.2973 18.03790053730011,19.4999 17.84840053730011,19.4999 H7.2097805373001105 C7.0202405373001096,19.4999 6.89964053730011,19.2973 6.9900705373001095,19.1307 L8.96102053730011,15.5 z" fill="#000000" id="svg_1" class="selected" fill-opacity="1"/></g></svg>