<svg xmlns="http://www.w3.org/2000/svg" xmlns:xlink="http://www.w3.org/1999/xlink" width="24" height="24" version="1.1"><rect id="backgroundrect" width="100%" height="100%" x="0" y="0" fill="none" stroke="none"/>
    <!-- Uploaded to SVGRepo https://www.svgrepo.com -->
    <title>ic_fluent_extension_24_regular</title>
    <desc>Created with Sketch.</desc>
    
<g class="currentLayer" style=""><title>Layer 1</title><g id="ðŸ”-Product-Icons" stroke="none" stroke-width="1" fill="#242424" fill-rule="evenodd" class="selected" fill-opacity="1">
        <g id="ic_fluent_extension_24_regular" fill="#242424" fill-rule="nonzero" fill-opacity="1">
            <path d="M13,2.00423634 C14.5976809,2.00423634 15.9036609,3.25315631 15.9940107,4.82326845 L15.999,4.999 L18.25,5 C19.1171638,5 19.8370138,5.6307249 19.9758229,6.45857899 L19.9941988,6.60662896 L20,6.75018215 L19.999089,10.5011932 L18.0014641,10.5013081 C17.2578749,10.5013081 16.6352666,11.0444906 16.5215026,11.7403495 L16.5062295,11.8725169 L16.5014641,12.0013081 C16.5014641,12.7448973 17.0446466,13.3675056 17.7405055,13.4812697 L17.8726729,13.4965427 L18.001421,13.5013081 L19.999089,13.5011932 L20,17.2526162 C20,18.1707896 19.2928897,18.9238085 18.3934458,18.996815 L18.2499051,19.0026162 L15.999,19.002 L15.9949073,19.1746527 C15.9105551,20.6304745 14.7880945,21.8077938 13.3567472,21.9773891 L13.1762728,21.9932872 L13,21.9983799 C11.4023191,21.9983799 10.0963391,20.7494599 10.0050927,19.1778986 L10,19.002 L7.75,19.0026162 C6.88283624,19.0026162 6.16298617,18.3718913 6.02417709,17.5443003 L6.00580122,17.3962996 L6.00000002,17.2527983 L5.999,15.001 L5.83599833,14.9962154 C4.38017652,14.9118632 3.20285717,13.7894026 3.03326191,12.3580553 L3.01736381,12.1775809 L3.01227112,12.0013081 C3.01227112,10.4036272 4.26119108,9.09764722 5.83593285,9.0064008 L5.999,9.001 L6,6.75 C6,5.88283624 6.6307249,5.16298617 7.45830951,5.02417709 L7.60630906,5.00580122 L7.74980904,5.00000002 L9.999,4.999 L10.0050927,4.82796355 C10.0894449,3.37214174 11.2119055,2.1948224 12.6432528,2.02522713 L12.8237272,2.00932903 L13,2.00423634 Z M13,3.50423634 C12.2203039,3.50423634 11.5795513,4.09912442 11.5068663,4.86038808 L11.4999996,5.00497011 L11.4985379,6.49904559 L7.75,6.5 C7.63165327,6.5 7.53251318,6.58223341 7.50660266,6.692792 L7.49999998,6.75018215 L7.49908901,10.5011633 L6.01227112,10.5013081 C5.18384399,10.5013081 4.51227112,11.172881 4.51227112,12.0013081 C4.51227112,12.7810042 5.1071592,13.4217568 5.86775022,13.4944415 L6.01219809,13.5013081 L7.49908899,13.5011633 L7.5,17.2526162 C7.5,17.3709629 7.58223341,17.470103 7.69261747,17.4960135 L7.74990501,17.5026162 L11.4985387,17.5021414 L11.5,18.9983799 C11.5,19.826807 12.1715729,20.4983799 13,20.4983799 C13.7796961,20.4983799 14.4204487,19.9034918 14.4931337,19.1434507 L14.5000004,18.9991125 L14.498538,17.5021413 L18.25,17.5026162 C18.3683467,17.5026162 18.4674868,17.4203828 18.4933973,17.3100536 L18.5,17.2527983 L18.499,15 L17.9762065,15.0008827 L17.7968187,14.9944087 C16.2855295,14.8922211 15.0927456,13.6769414 15.0068442,12.153191 L15.0018895,11.9760505 L15.0083636,11.7966627 C15.1105511,10.2853735 16.3258308,9.09258955 17.8269888,9.00630828 L18.001421,9.0013081 L18.499,9.001 L18.5,6.75 C18.5,6.65532261 18.4473706,6.57293748 18.3697101,6.53050434 L18.3072025,6.50660266 L18.2498091,6.49999998 L14.4985372,6.49904531 L14.5,5.00423634 C14.5,4.17580922 13.8284271,3.50423634 13,3.50423634 Z" id="ðŸŽ¨-Color" fill="#242424" fill-opacity="1"/>
        </g>
    </g><polyline fill="none" stroke="#242424" stroke-dashoffset="" fill-rule="evenodd" marker-start="" marker-mid="" marker-end="" id="svg_1" points="9.589285906683036,7.364285626257359 9.589285906683036,7.364285626257359 9.500000190876795,7.364285626257359 9.500000190876795,7.364285626257359 9.410714475070554,7.364285626257359 9.410714475070554,7.364285626257359 9.321428759264313,7.4535713420636 9.232143043458072,7.4535713420636 9.05357161184559,7.7214284894823235 8.785714464426865,7.989285636901045 8.607143032814387,8.34642850012601 8.517857317008145,8.43571421593225 8.517857317008145,8.524999931738492 8.517857317008145,8.524999931738492 8.428571601201904,8.524999931738492 8.428571601201904,8.524999931738492 8.339285885395663,8.43571421593225 8.16071445378318,8.078571352707286 8.07142873797694,7.7214284894823235 8.07142873797694,7.542857057869841 7.982143022170699,7.364285626257359 7.982143022170699,7.185714194644877 7.982143022170699,7.0071427630323955 7.982143022170699,6.917857047226155 7.982143022170699,6.917857047226155 7.982143022170699,7.185714194644877 7.892857306364457,7.364285626257359 7.892857306364457,7.4535713420636 7.892857306364457,7.364285626257359 7.892857306364457,7.364285626257359 7.8035715905582155,6.828571331419913 7.8035715905582155,6.382142752388709 7.8035715905582155,6.203571320776227 7.892857306364457,6.024999889163744 7.892857306364457,5.846428457551263 7.892857306364457,5.846428457551263 7.892857306364457,5.846428457551263 7.892857306364457,5.935714173357505 7.8035715905582155,6.203571320776227 7.714285874751974,6.382142752388709 7.714285874751974,6.47142846819495 7.625000158945732,6.649999899807431 7.625000158945732,6.917857047226155 7.625000158945732,7.0071427630323955 7.535714443139493,7.185714194644877 7.535714443139493,7.364285626257359 7.535714443139493,7.542857057869841 7.535714443139493,7.632142773676083 7.535714443139493,7.7214284894823235 7.535714443139493,7.810714205288563 7.535714443139493,7.989285636901045 7.535714443139493,8.078571352707286 7.625000158945732,8.257142784319768 7.625000158945732,8.257142784319768 7.625000158945732,8.34642850012601 7.625000158945732,8.257142784319768 7.714285874751974,8.167857068513527 7.8035715905582155,7.899999921094805 7.982143022170699,7.4535713420636 8.339285885395663,6.917857047226155 8.696428748620624,6.649999899807431 8.964285896039348,6.382142752388709 9.14285732765183,6.203571320776227 9.232143043458072,6.114285604969985 9.321428759264313,6.114285604969985 9.321428759264313,6.114285604969985 9.321428759264313,6.114285604969985 9.321428759264313,6.203571320776227 9.232143043458072,6.203571320776227 9.05357161184559,6.47142846819495 8.875000180233107,6.649999899807431 8.696428748620624,6.917857047226155 8.517857317008145,7.096428478838637 8.339285885395663,7.274999910451117 8.250000169589422,7.364285626257359 8.16071445378318,7.4535713420636 8.07142873797694,7.542857057869841 8.07142873797694,7.542857057869841 8.07142873797694,7.542857057869841 8.07142873797694,7.542857057869841 8.250000169589422,7.4535713420636 8.607143032814387,7.364285626257359 9.05357161184559,7.185714194644877 9.678571622489278,7.096428478838637 10.392857348939204,6.917857047226155 11.196428791195371,6.739285615613672 11.82142880183906,6.649999899807431 12.000000233451543,6.649999899807431 12.089285949257782,6.649999899807431 12.178571665064025,6.649999899807431 12.089285949257782,6.649999899807431 12.000000233451543,6.649999899807431 11.642857370226576,6.828571331419913 11.375000222807854,6.828571331419913 10.12500020152048,7.0071427630323955 9.500000190876795,7.096428478838637 8.875000180233107,7.274999910451117 8.428571601201904,7.364285626257359 8.16071445378318,7.364285626257359 8.07142873797694,7.4535713420636 8.07142873797694,7.4535713420636 8.07142873797694,7.4535713420636 8.16071445378318,7.364285626257359 8.250000169589422,7.364285626257359 8.517857317008145,7.274999910451117 8.964285896039348,7.096428478838637 9.589285906683036,6.828571331419913 10.571428780551686,6.649999899807431 10.928571643776651,6.560714184001191 11.10714307538913,6.560714184001191 11.017857359582893,6.560714184001191 10.928571643776651,6.560714184001191 10.660714496357928,6.649999899807431 10.303571633132963,6.739285615613672 9.946428769907998,6.739285615613672 9.589285906683036,6.828571331419913 9.410714475070554,6.828571331419913 9.14285732765183,6.917857047226155 9.14285732765183,6.917857047226155 9.05357161184559,6.917857047226155 9.14285732765183,6.917857047226155 9.14285732765183,6.917857047226155 9.232143043458072,6.828571331419913 9.321428759264313,6.828571331419913 9.589285906683036,6.649999899807431 9.857143054101757,6.649999899807431 10.214285917326722,6.47142846819495 10.482143064745445,6.382142752388709 10.83928592797041,6.2928570365824665 11.017857359582893,6.2928570365824665 11.196428791195371,6.2928570365824665 11.375000222807854,6.203571320776227 11.464285938614097,6.203571320776227 11.553571654420336,6.203571320776227 11.553571654420336,6.203571320776227 11.642857370226576,6.114285604969985 11.642857370226576,6.114285604969985 11.642857370226576,6.114285604969985 11.732143086032819,6.114285604969985 11.732143086032819,6.024999889163744 11.642857370226576,6.024999889163744 11.553571654420336,5.935714173357505 11.464285938614097,5.935714173357505 11.464285938614097,5.846428457551263 11.464285938614097,5.578571310132539 11.464285938614097,5.399999878520057 11.464285938614097,5.3107141627138175 11.464285938614097,4.9535712994888526 11.464285938614097,4.864285583682611 11.464285938614097,4.685714152070131 11.553571654420336,4.596428436263889 11.553571654420336,4.507142720457648 11.642857370226576,4.417857004651407 11.642857370226576,4.328571288845166 11.732143086032819,4.239285573038925 11.732143086032819,4.239285573038925 11.82142880183906,4.149999857232684 11.910714517645303,4.149999857232684 11.910714517645303,4.060714141426443 11.910714517645303,4.060714141426443 12.000000233451543,3.971428425620203 12.000000233451543,3.971428425620203 12.000000233451543,3.8821427098139614 12.000000233451543,3.8821427098139614 12.089285949257782,3.8821427098139614 12.178571665064025,3.7928569940077197 12.267857380870263,3.7928569940077197 12.446428812482747,3.70357127820148 12.625000244095226,3.614285562395239 12.714285959901469,3.614285562395239 12.714285959901469,3.614285562395239 12.80357167570771,3.614285562395239 12.892857391513953,3.614285562395239 12.982143107320192,3.614285562395239 12.982143107320192,3.614285562395239 13.071428823126432,3.614285562395239 13.071428823126432,3.614285562395239 13.160714538932675,3.614285562395239 13.250000254738916,3.614285562395239 13.250000254738916,3.614285562395239 13.250000254738916,3.614285562395239 13.33928597054516,3.70357127820148 13.428571686351399,3.70357127820148 13.428571686351399,3.7928569940077197 13.517857402157636,3.7928569940077197 13.517857402157636,3.8821427098139614 13.607143117963876,3.971428425620203 13.696428833770119,4.060714141426443 13.696428833770119,4.060714141426443 13.78571454957636,4.149999857232684 13.78571454957636,4.239285573038925 13.875000265382603,4.328571288845166 13.875000265382603,4.328571288845166 13.964285981188842,4.417857004651407 13.964285981188842,4.507142720457648 13.964285981188842,4.596428436263889 13.964285981188842,4.685714152070131 13.964285981188842,4.864285583682611 14.053571696995084,4.864285583682611 14.053571696995084,4.9535712994888526 14.053571696995084,4.9535712994888526 14.053571696995084,5.042857015295094 14.053571696995084,5.132142731101335 14.053571696995084,5.221428446907576 14.053571696995084,5.3107141627138175 14.053571696995084,5.399999878520057 14.053571696995084,5.399999878520057 14.053571696995084,5.489285594326298 14.053571696995084,5.578571310132539 14.053571696995084,5.667857025938781 14.053571696995084,5.667857025938781 14.053571696995084,5.846428457551263 14.053571696995084,5.935714173357505 14.142857412801325,5.935714173357505 14.142857412801325,6.024999889163744 14.142857412801325,6.114285604969985 14.142857412801325,6.203571320776227 14.142857412801325,6.2928570365824665 14.142857412801325,6.2928570365824665 14.142857412801325,6.382142752388709 14.142857412801325,6.382142752388709 14.142857412801325,6.382142752388709 14.142857412801325,6.47142846819495 14.053571696995084,6.47142846819495 14.053571696995084,6.47142846819495 13.875000265382603,6.47142846819495 13.696428833770119,6.47142846819495 13.517857402157636,6.382142752388709 13.428571686351399,6.382142752388709 13.250000254738916,6.382142752388709 13.160714538932675,6.382142752388709 13.071428823126432,6.382142752388709 12.892857391513953,6.382142752388709 12.714285959901469,6.2928570365824665 12.625000244095226,6.2928570365824665 12.535714528288986,6.2928570365824665 12.446428812482747,6.2928570365824665 12.357143096676504,6.2928570365824665 12.267857380870263,6.2928570365824665 12.178571665064025,6.2928570365824665 12.089285949257782,6.2928570365824665 12.089285949257782,6.2928570365824665 11.910714517645303,6.2928570365824665 11.82142880183906,6.203571320776227 11.642857370226576,6.203571320776227 11.553571654420336,6.203571320776227 11.375000222807854,6.203571320776227 11.375000222807854,6.203571320776227 11.375000222807854,6.114285604969985 11.464285938614097,6.114285604969985 11.642857370226576,6.024999889163744 11.82142880183906,5.935714173357505 12.089285949257782,5.757142741745022 12.267857380870263,5.578571310132539 12.446428812482747,5.399999878520057 12.625000244095226,5.221428446907576 12.80357167570771,5.042857015295094 13.071428823126432,4.77499986787637 13.250000254738916,4.685714152070131 13.33928597054516,4.596428436263889 13.33928597054516,4.507142720457648 13.428571686351399,4.507142720457648 13.428571686351399,4.417857004651407 13.517857402157636,4.417857004651407 13.517857402157636,4.328571288845166 13.517857402157636,4.328571288845166 13.428571686351399,4.328571288845166 13.33928597054516,4.328571288845166 13.250000254738916,4.328571288845166 13.071428823126432,4.328571288845166 12.982143107320192,4.328571288845166 12.80357167570771,4.328571288845166 12.625000244095226,4.417857004651407 12.535714528288986,4.417857004651407 12.446428812482747,4.417857004651407 12.446428812482747,4.417857004651407 12.357143096676504,4.507142720457648 12.357143096676504,4.507142720457648 12.357143096676504,4.507142720457648 12.267857380870263,4.507142720457648 12.267857380870263,4.596428436263889 12.267857380870263,4.596428436263889 12.178571665064025,4.864285583682611 12.178571665064025,4.9535712994888526 12.178571665064025,5.132142731101335 12.178571665064025,5.221428446907576 12.178571665064025,5.399999878520057 12.178571665064025,5.578571310132539 12.178571665064025,5.667857025938781 12.267857380870263,5.667857025938781 12.357143096676504,5.667857025938781 12.446428812482747,5.757142741745022 12.535714528288986,5.757142741745022 12.625000244095226,5.757142741745022 12.80357167570771,5.667857025938781 12.892857391513953,5.578571310132539 13.071428823126432,5.578571310132539 13.160714538932675,5.489285594326298 13.250000254738916,5.399999878520057 13.33928597054516,5.3107141627138175 13.33928597054516,5.3107141627138175 13.250000254738916,5.3107141627138175 13.250000254738916,5.399999878520057 13.250000254738916,5.399999878520057 13.250000254738916,5.399999878520057 13.160714538932675,5.489285594326298 13.160714538932675,5.489285594326298 13.160714538932675,5.489285594326298 13.250000254738916,5.489285594326298 13.250000254738916,5.399999878520057 13.33928597054516,5.399999878520057 13.428571686351399,5.3107141627138175 13.517857402157636,5.3107141627138175 13.607143117963876,5.221428446907576 13.607143117963876,5.221428446907576 13.607143117963876,5.3107141627138175 13.607143117963876,5.3107141627138175 13.607143117963876,5.489285594326298 13.607143117963876,5.846428457551263 13.607143117963876,6.114285604969985 13.607143117963876,6.2928570365824665 13.607143117963876,6.2928570365824665 13.607143117963876,6.382142752388709 13.696428833770119,6.382142752388709 13.696428833770119,6.382142752388709 13.696428833770119,6.382142752388709 13.696428833770119,6.382142752388709 13.78571454957636,6.47142846819495 13.964285981188842,6.47142846819495 13.964285981188842,6.47142846819495 14.142857412801325,6.47142846819495 14.232143128607566,6.47142846819495 14.410714560220049,6.47142846819495 14.589285991832531,6.47142846819495 14.678571707638769,6.47142846819495 14.76785742344501,6.47142846819495 14.857143139251253,6.47142846819495 15.035714570863734,6.47142846819495 15.303571718282459,6.47142846819495 15.392857434088699,6.47142846819495 15.571428865701181,6.47142846819495 15.660714581507422,6.47142846819495 15.839286013119905,6.47142846819495 15.839286013119905,6.47142846819495 16.017857444732385,6.47142846819495 16.107143160538627,6.47142846819495 16.107143160538627,6.47142846819495 16.196428876344868,6.560714184001191 16.28571459215111,6.560714184001191 16.37500030795735,6.560714184001191 16.553571739569833,6.560714184001191 16.642857455376074,6.560714184001191 16.732143171182315,6.560714184001191 16.821428886988556,6.560714184001191 16.910714602794798,6.560714184001191 17.00000031860104,6.560714184001191 17.00000031860104,6.560714184001191 17.089286034407273,6.560714184001191 17.267857466019755,6.560714184001191 17.357143181825997,6.560714184001191 17.357143181825997,6.560714184001191 17.446428897632238,6.560714184001191 17.446428897632238,6.560714184001191 17.53571461343848,6.560714184001191 17.53571461343848,6.560714184001191 17.53571461343848,6.560714184001191 17.53571461343848,6.560714184001191 17.62500032924472,6.560714184001191 17.62500032924472,6.560714184001191 17.62500032924472,6.560714184001191 17.71428604505096,6.560714184001191 17.803571760857203,6.560714184001191 17.803571760857203,6.560714184001191 17.892857476663444,6.560714184001191 17.892857476663444,6.560714184001191 17.982143192469685,6.560714184001191 17.982143192469685,6.560714184001191 17.982143192469685,6.560714184001191 18.071428908275927,6.560714184001191 18.071428908275927,6.560714184001191 18.071428908275927,6.560714184001191 18.071428908275927,6.649999899807431 18.160714624082168,6.649999899807431 18.160714624082168,6.649999899807431 18.160714624082168,6.649999899807431 18.160714624082168,6.739285615613672 18.25000033988841,6.739285615613672 18.25000033988841,6.828571331419913 18.25000033988841,6.917857047226155 18.25000033988841,7.0071427630323955 18.25000033988841,7.096428478838637 18.33928605569465,7.096428478838637 18.33928605569465,7.185714194644877 18.33928605569465,7.185714194644877 18.33928605569465,7.185714194644877 18.33928605569465,7.274999910451117 18.33928605569465,7.274999910451117 18.33928605569465,7.364285626257359 18.33928605569465,7.4535713420636 18.33928605569465,7.542857057869841 18.33928605569465,7.632142773676083 18.33928605569465,7.632142773676083 18.33928605569465,7.7214284894823235 18.33928605569465,7.810714205288563 18.33928605569465,7.810714205288563 18.33928605569465,7.899999921094805 18.33928605569465,7.899999921094805 18.33928605569465,7.989285636901045 18.33928605569465,7.989285636901045 18.33928605569465,8.078571352707286 18.25000033988841,8.167857068513527 18.25000033988841,8.167857068513527 18.25000033988841,8.257142784319768 18.25000033988841,8.257142784319768 18.25000033988841,8.34642850012601 18.25000033988841,8.34642850012601 18.25000033988841,8.43571421593225 18.160714624082168,8.43571421593225 18.160714624082168,8.524999931738492 18.160714624082168,8.524999931738492 18.160714624082168,8.614285647544733 18.160714624082168,8.614285647544733 18.071428908275927,8.614285647544733 18.071428908275927,8.703571363350974 18.071428908275927,8.703571363350974 18.071428908275927,8.703571363350974 17.982143192469685,8.792857079157216 17.982143192469685,8.792857079157216 17.892857476663444,8.792857079157216 17.803571760857203,8.882142794963457 17.71428604505096,8.882142794963457 17.71428604505096,8.882142794963457 17.62500032924472,8.971428510769698 17.53571461343848,8.971428510769698 17.446428897632238,8.971428510769698 17.357143181825997,9.060714226575936 17.267857466019755,9.060714226575936 17.089286034407273,9.060714226575936 17.00000031860104,9.060714226575936 16.910714602794798,9.060714226575936 16.642857455376074,9.060714226575936 16.46428602376359,9.060714226575936 16.46428602376359,9.060714226575936 16.37500030795735,9.060714226575936 16.28571459215111,9.149999942382177 16.196428876344868,9.149999942382177 16.107143160538627,9.149999942382177 15.928571728926142,9.149999942382177 15.839286013119905,9.149999942382177 15.750000297313665,9.149999942382177 15.660714581507422,9.239285658188418 15.660714581507422,9.239285658188418 15.571428865701181,9.239285658188418 15.48214314989494,9.32857137399466 15.48214314989494,9.32857137399466 15.48214314989494,9.32857137399466 15.392857434088699,9.32857137399466 15.392857434088699,9.4178570898009 15.303571718282459,9.4178570898009 15.303571718282459,9.4178570898009 15.303571718282459,9.507142805607142 15.303571718282459,9.507142805607142 15.303571718282459,9.596428521413383 15.303571718282459,9.596428521413383 15.214286002476216,9.685714237219624 15.214286002476216,9.685714237219624 15.214286002476216,9.774999953025866 15.214286002476216,9.864285668832107 15.214286002476216,9.953571384638348 15.125000286669975,10.04285710044459 15.125000286669975,10.13214281625083 15.125000286669975,10.13214281625083 15.125000286669975,10.221428532057068 15.125000286669975,10.31071424786331 15.125000286669975,10.31071424786331 15.125000286669975,10.39999996366955 15.035714570863734,10.489285679475792 15.035714570863734,10.578571395282033 15.035714570863734,10.667857111088274 15.035714570863734,10.757142826894516 15.035714570863734,10.757142826894516 15.035714570863734,10.846428542700757 15.035714570863734,10.935714258506998 15.035714570863734,11.02499997431324 14.946428855057492,11.11428569011948 14.946428855057492,11.292857121731963 14.946428855057492,11.292857121731963 14.946428855057492,11.382142837538204 14.946428855057492,11.382142837538204 14.946428855057492,11.471428553344442 14.946428855057492,11.560714269150685 14.946428855057492,11.560714269150685 14.946428855057492,11.739285700763165 14.946428855057492,11.739285700763165 15.035714570863734,11.828571416569407 15.035714570863734,11.917857132375648 15.035714570863734,12.007142848181887 15.035714570863734,12.09642856398813 15.035714570863734,12.185714279794372 15.035714570863734,12.274999995600613 15.035714570863734,12.364285711406854 15.035714570863734,12.453571427213094 15.125000286669975,12.453571427213094 15.125000286669975,12.632142858825574 15.125000286669975,12.632142858825574 15.125000286669975,12.81071429043806 15.125000286669975,12.900000006244298 15.125000286669975,12.989285722050537 15.125000286669975,13.07857143785678 15.125000286669975,13.167857153663022 15.125000286669975,13.346428585275504 15.125000286669975,13.435714301081743 15.125000286669975,13.703571448500469 15.125000286669975,13.79285716430671 15.125000286669975,13.88214288011295 15.125000286669975,13.971428595919193 15.125000286669975,14.060714311725434 15.125000286669975,14.150000027531672 15.125000286669975,14.150000027531672 15.214286002476216,14.239285743337915 15.214286002476216,14.239285743337915 15.214286002476216,14.328571459144154 15.214286002476216,14.328571459144154 15.303571718282459,14.417857174950393 15.392857434088699,14.417857174950393 15.392857434088699,14.417857174950393 15.392857434088699,14.417857174950393 15.571428865701181,14.507142890756636 15.660714581507422,14.507142890756636 15.750000297313665,14.507142890756636 15.839286013119905,14.596428606562878 15.928571728926142,14.596428606562878 16.017857444732385,14.596428606562878 16.107143160538627,14.596428606562878 16.196428876344868,14.68571432236912 16.28571459215111,14.68571432236912 16.37500030795735,14.68571432236912 16.37500030795735,14.77500003817536 16.46428602376359,14.77500003817536 16.553571739569833,14.77500003817536 16.642857455376074,14.77500003817536 16.642857455376074,14.8642857539816 16.821428886988556,14.8642857539816 16.910714602794798,14.8642857539816 17.00000031860104,14.953571469787843 17.089286034407273,14.953571469787843 17.089286034407273,14.953571469787843 17.178571750213514,14.953571469787843 17.267857466019755,14.953571469787843 17.357143181825997,14.953571469787843 17.357143181825997,15.042857185594084 17.446428897632238,15.042857185594084 17.53571461343848,15.042857185594084 17.62500032924472,15.042857185594084 17.71428604505096,15.132142901400327 17.71428604505096,15.132142901400327 17.803571760857203,15.132142901400327 17.892857476663444,15.132142901400327 17.892857476663444,15.132142901400327 17.982143192469685,15.132142901400327 17.982143192469685,15.132142901400327 18.071428908275927,15.132142901400327 18.071428908275927,15.132142901400327 18.160714624082168,15.132142901400327 18.160714624082168,15.132142901400327 18.25000033988841,15.132142901400327 18.25000033988841,15.132142901400327 18.25000033988841,15.132142901400327 18.25000033988841,15.221428617206566 18.25000033988841,15.221428617206566 18.25000033988841,15.310714333012804 18.25000033988841,15.310714333012804 18.33928605569465,15.489285764625286 18.33928605569465,15.489285764625286 18.33928605569465,15.578571480431528 18.33928605569465,15.66785719623777 18.25000033988841,15.66785719623777 18.25000033988841,15.75714291204401 18.25000033988841,15.84642862785025 18.25000033988841,15.935714343656493 18.25000033988841,16.114285775268975 18.160714624082168,16.114285775268975 18.160714624082168,16.203571491075216 18.160714624082168,16.203571491075216 18.160714624082168,16.292857206881457 18.160714624082168,16.292857206881457 18.160714624082168,16.3821429226877 18.160714624082168,16.47142863849394 18.160714624082168,16.560714354300178 18.160714624082168,16.560714354300178 18.160714624082168,16.65000007010642 18.160714624082168,16.73928578591266 18.160714624082168,16.8285715017189 18.160714624082168,16.8285715017189 18.160714624082168,16.917857217525142 18.160714624082168,16.917857217525142 18.160714624082168,17.007142933331384 18.160714624082168,17.096428649137625 18.071428908275927,17.096428649137625 18.071428908275927,17.185714364943866 18.071428908275927,17.185714364943866 18.071428908275927,17.185714364943866 18.071428908275927,17.185714364943866 18.071428908275927,17.185714364943866 17.982143192469685,17.185714364943866 17.982143192469685,17.275000080750107 17.892857476663444,17.275000080750107 17.892857476663444,17.275000080750107 17.803571760857203,17.275000080750107 17.71428604505096,17.36428579655635 17.71428604505096,17.36428579655635 17.53571461343848,17.36428579655635 17.53571461343848,17.36428579655635 17.357143181825997,17.45357151236259 17.178571750213514,17.45357151236259 16.821428886988556,17.36428579655635 16.37500030795735,17.36428579655635 16.107143160538627,17.36428579655635 15.839286013119905,17.36428579655635 15.660714581507422,17.36428579655635 15.48214314989494,17.275000080750107 15.303571718282459,17.275000080750107 15.035714570863734,17.275000080750107 14.946428855057492,17.275000080750107 14.76785742344501,17.275000080750107 14.678571707638769,17.185714364943866 14.50000027602629,17.185714364943866 14.32142884441381,17.185714364943866 14.232143128607566,17.185714364943866 14.053571696995084,17.185714364943866 13.875000265382603,17.185714364943866 13.78571454957636,17.185714364943866 13.607143117963876,17.185714364943866 13.517857402157636,17.185714364943866 13.33928597054516,17.185714364943866 13.160714538932675,17.185714364943866 12.892857391513953,17.185714364943866 12.80357167570771,17.185714364943866 12.625000244095226,17.185714364943866 12.446428812482747,17.096428649137625 12.178571665064025,17.096428649137625 12.000000233451543,17.096428649137625 11.82142880183906,17.096428649137625 11.642857370226576,17.096428649137625 11.553571654420336,17.096428649137625 11.285714507001613,17.096428649137625 11.10714307538913,17.096428649137625 11.017857359582893,17.096428649137625 10.83928592797041,17.096428649137625 10.660714496357928,17.096428649137625 10.482143064745445,17.096428649137625 10.392857348939204,17.096428649137625 10.214285917326722,17.096428649137625 10.12500020152048,17.096428649137625 10.035714485714239,17.096428649137625 9.946428769907998,17.096428649137625 9.767857338295519,17.096428649137625 9.589285906683036,17.096428649137625 9.500000190876795,17.185714364943866 9.321428759264313,17.185714364943866 9.232143043458072,17.185714364943866 9.14285732765183,17.185714364943866 9.05357161184559,17.185714364943866 8.964285896039348,17.185714364943866 8.785714464426865,17.185714364943866 8.696428748620624,17.185714364943866 8.607143032814387,17.185714364943866 8.517857317008145,17.185714364943866 8.517857317008145,17.185714364943866 8.428571601201904,17.185714364943866 8.339285885395663,17.185714364943866 8.339285885395663,17.185714364943866 8.250000169589422,17.185714364943866 8.16071445378318,17.185714364943866 7.982143022170699,17.185714364943866 7.982143022170699,17.185714364943866 7.892857306364457,17.185714364943866 7.892857306364457,17.185714364943866 7.8035715905582155,17.185714364943866 7.714285874751974,17.185714364943866 7.714285874751974,17.185714364943866 7.625000158945732,17.185714364943866 7.625000158945732,17.185714364943866 7.625000158945732,17.185714364943866 7.535714443139493,17.096428649137625 7.535714443139493,17.096428649137625 7.535714443139493,17.096428649137625 7.446428727333251,17.096428649137625 7.446428727333251,17.096428649137625 7.535714443139493,17.096428649137625 7.535714443139493,17.007142933331384 7.535714443139493,17.007142933331384 7.535714443139493,17.007142933331384 7.535714443139493,17.007142933331384 7.625000158945732,16.917857217525142 7.625000158945732,16.8285715017189 7.625000158945732,16.73928578591266 7.625000158945732,16.560714354300178 7.625000158945732,16.292857206881457 7.625000158945732,16.025000059462734 7.535714443139493,15.84642862785025 7.535714443139493,15.578571480431528 7.535714443139493,15.310714333012804 7.535714443139493,15.132142901400327 7.446428727333251,14.8642857539816 7.446428727333251,14.68571432236912 7.446428727333251,14.507142890756636 7.357143011527013,14.328571459144154 7.357143011527013,14.060714311725434 7.357143011527013,13.79285716430671 7.267857295720772,13.614285732694228 7.267857295720772,13.257142869469263 7.267857295720772,12.989285722050537 7.267857295720772,12.721428574631819 7.267857295720772,12.364285711406854 7.267857295720772,12.09642856398813 7.267857295720772,11.917857132375648 7.267857295720772,11.560714269150685 7.267857295720772,11.292857121731963 7.267857295720772,10.935714258506998 7.267857295720772,10.757142826894516 7.357143011527013,10.39999996366955 7.357143011527013,10.221428532057068 7.446428727333251,9.864285668832107 7.446428727333251,9.596428521413383 7.535714443139493,9.239285658188418 7.535714443139493,9.060714226575936 7.535714443139493,8.971428510769698 7.625000158945732,8.792857079157216 7.625000158945732,8.614285647544733 7.625000158945732,8.524999931738492 7.625000158945732,8.43571421593225 7.714285874751974,8.34642850012601 7.714285874751974,8.257142784319768 7.714285874751974,8.078571352707286 7.714285874751974,8.078571352707286 7.714285874751974,7.989285636901045 7.714285874751974,7.899999921094805 7.714285874751974,7.899999921094805 7.8035715905582155,7.899999921094805 7.8035715905582155,7.810714205288563 7.892857306364457,7.810714205288563 7.892857306364457,7.810714205288563 7.892857306364457,7.7214284894823235 7.982143022170699,7.7214284894823235 8.16071445378318,7.632142773676083 8.339285885395663,7.542857057869841 8.517857317008145,7.542857057869841 8.696428748620624,7.4535713420636 8.785714464426865,7.364285626257359 9.05357161184559,7.364285626257359 9.321428759264313,7.274999910451117 9.589285906683036,7.185714194644877 9.857143054101757,7.185714194644877 10.12500020152048,7.185714194644877 10.482143064745445,7.096428478838637 10.660714496357928,7.096428478838637 10.928571643776651,7.096428478838637 11.10714307538913,7.0071427630323955 11.285714507001613,7.0071427630323955 11.553571654420336,7.0071427630323955 11.82142880183906,6.917857047226155 12.089285949257782,6.917857047226155 12.446428812482747,6.917857047226155 12.714285959901469,6.917857047226155 12.892857391513953,6.917857047226155 13.071428823126432,6.917857047226155 13.33928597054516,6.828571331419913 13.78571454957636,6.828571331419913 14.053571696995084,6.828571331419913 14.142857412801325,6.828571331419913 14.32142884441381,6.828571331419913 14.410714560220049,6.828571331419913 14.76785742344501,6.828571331419913 14.946428855057492,6.828571331419913 15.125000286669975,6.828571331419913 15.214286002476216,6.828571331419913 15.392857434088699,6.828571331419913 15.48214314989494,6.828571331419913 15.660714581507422,6.828571331419913 15.839286013119905,6.828571331419913 16.017857444732385,6.917857047226155 16.107143160538627,6.917857047226155 16.196428876344868,6.917857047226155 16.28571459215111,6.917857047226155 16.37500030795735,6.917857047226155 16.46428602376359,6.917857047226155 16.46428602376359,6.917857047226155 16.553571739569833,6.917857047226155 16.642857455376074,7.0071427630323955 16.642857455376074,7.0071427630323955 16.732143171182315,7.0071427630323955 16.821428886988556,7.0071427630323955 16.910714602794798,7.0071427630323955 16.910714602794798,7.0071427630323955 17.00000031860104,7.096428478838637 17.089286034407273,7.096428478838637 17.178571750213514,7.096428478838637 17.267857466019755,7.096428478838637 17.357143181825997,7.185714194644877 17.446428897632238,7.185714194644877 17.53571461343848,7.185714194644877 17.62500032924472,7.185714194644877 17.62500032924472,7.185714194644877 17.62500032924472,7.274999910451117 17.62500032924472,7.274999910451117 17.62500032924472,7.274999910451117 17.62500032924472,7.364285626257359 17.62500032924472,7.364285626257359 17.62500032924472,7.4535713420636 17.62500032924472,7.542857057869841 17.62500032924472,7.632142773676083 17.62500032924472,7.7214284894823235 17.62500032924472,7.810714205288563 17.62500032924472,7.810714205288563 17.62500032924472,7.899999921094805 17.62500032924472,7.989285636901045 17.62500032924472,7.989285636901045 17.53571461343848,8.078571352707286 17.53571461343848,8.078571352707286 17.53571461343848,8.078571352707286 17.446428897632238,8.167857068513527 17.267857466019755,8.167857068513527 17.178571750213514,8.257142784319768 17.00000031860104,8.257142784319768 16.732143171182315,8.43571421593225 16.46428602376359,8.524999931738492 16.28571459215111,8.614285647544733 16.107143160538627,8.614285647544733 15.839286013119905,8.703571363350974 15.660714581507422,8.792857079157216 15.48214314989494,8.882142794963457 15.303571718282459,8.971428510769698 15.214286002476216,9.060714226575936 15.125000286669975,9.149999942382177 15.125000286669975,9.149999942382177 15.125000286669975,9.239285658188418 15.125000286669975,9.239285658188418 15.125000286669975,9.32857137399466 15.125000286669975,9.32857137399466 15.125000286669975,9.4178570898009 15.125000286669975,9.4178570898009 15.214286002476216,9.507142805607142 15.303571718282459,9.507142805607142 15.392857434088699,9.596428521413383 15.392857434088699,9.596428521413383 15.48214314989494,9.596428521413383 15.571428865701181,9.596428521413383 15.660714581507422,9.596428521413383 15.750000297313665,9.596428521413383 15.750000297313665,9.507142805607142 15.839286013119905,9.507142805607142 15.839286013119905,9.507142805607142 15.928571728926142,9.507142805607142 15.928571728926142,9.507142805607142 15.928571728926142,9.507142805607142 15.928571728926142,9.507142805607142 15.839286013119905,9.507142805607142 15.839286013119905,9.596428521413383 15.750000297313665,9.596428521413383 15.750000297313665,9.596428521413383 15.660714581507422,9.596428521413383 15.571428865701181,9.685714237219624 15.48214314989494,9.685714237219624 15.48214314989494,9.685714237219624 15.392857434088699,9.774999953025866 15.303571718282459,9.774999953025866 15.214286002476216,9.864285668832107 15.125000286669975,9.864285668832107 15.035714570863734,9.864285668832107 14.946428855057492,10.04285710044459 14.857143139251253,10.04285710044459 14.678571707638769,10.221428532057068 14.589285991832531,10.31071424786331 14.50000027602629,10.489285679475792 14.410714560220049,10.578571395282033 14.32142884441381,10.757142826894516 14.232143128607566,10.846428542700757 14.142857412801325,11.02499997431324 14.053571696995084,11.203571405925722 14.053571696995084,11.382142837538204 14.053571696995084,11.560714269150685 14.053571696995084,11.649999984956924 14.053571696995084,11.739285700763165 14.142857412801325,11.917857132375648 14.142857412801325,12.09642856398813 14.232143128607566,12.185714279794372 14.32142884441381,12.364285711406854 14.32142884441381,12.453571427213094 14.410714560220049,12.542857143019337 14.410714560220049,12.721428574631819 14.50000027602629,12.81071429043806 14.589285991832531,12.989285722050537 14.589285991832531,13.07857143785678 14.678571707638769,13.167857153663022 14.678571707638769,13.257142869469263 14.76785742344501,13.346428585275504 14.76785742344501,13.435714301081743 14.76785742344501,13.525000016887986 14.857143139251253,13.703571448500469 14.857143139251253,13.79285716430671 14.946428855057492,13.88214288011295 14.946428855057492,13.88214288011295 14.946428855057492,13.971428595919193 14.946428855057492,13.971428595919193 15.035714570863734,14.060714311725434 15.035714570863734,14.060714311725434 15.125000286669975,14.060714311725434 15.125000286669975,14.150000027531672 15.214286002476216,14.150000027531672 15.303571718282459,14.150000027531672 15.392857434088699,14.150000027531672 15.48214314989494,14.150000027531672 15.571428865701181,14.150000027531672 15.571428865701181,14.150000027531672 15.660714581507422,14.150000027531672 15.660714581507422,14.150000027531672 15.660714581507422,14.150000027531672 15.750000297313665,14.150000027531672 15.750000297313665,14.060714311725434 15.750000297313665,14.060714311725434 15.750000297313665,14.060714311725434 15.750000297313665,13.971428595919193 15.750000297313665,13.971428595919193 15.660714581507422,13.971428595919193 15.660714581507422,13.971428595919193 15.571428865701181,13.971428595919193 15.571428865701181,13.971428595919193 15.571428865701181,13.971428595919193 15.571428865701181,14.060714311725434 15.571428865701181,14.060714311725434 15.571428865701181,14.060714311725434 15.571428865701181,14.150000027531672 15.571428865701181,14.150000027531672 15.571428865701181,14.150000027531672 15.571428865701181,14.150000027531672 15.660714581507422,14.239285743337915 15.660714581507422,14.239285743337915 15.750000297313665,14.417857174950393 15.839286013119905,14.596428606562878 15.839286013119905,14.77500003817536 15.928571728926142,14.8642857539816 16.017857444732385,14.953571469787843 16.107143160538627,15.042857185594084 16.107143160538627,15.132142901400327 16.196428876344868,15.221428617206566 16.28571459215111,15.221428617206566 16.28571459215111,15.310714333012804 16.37500030795735,15.310714333012804 16.37500030795735,15.310714333012804 16.46428602376359,15.400000048819043 16.553571739569833,15.400000048819043 16.642857455376074,15.400000048819043 16.732143171182315,15.400000048819043 16.821428886988556,15.489285764625286 16.821428886988556,15.489285764625286 16.910714602794798,15.489285764625286 17.089286034407273,15.578571480431528 17.178571750213514,15.578571480431528 17.178571750213514,15.578571480431528 17.267857466019755,15.66785719623777 17.357143181825997,15.66785719623777 17.446428897632238,15.66785719623777 17.446428897632238,15.66785719623777 17.53571461343848,15.66785719623777 17.53571461343848,15.66785719623777 17.53571461343848,15.66785719623777 17.53571461343848,15.66785719623777 17.53571461343848,15.66785719623777 17.53571461343848,15.75714291204401 17.53571461343848,15.75714291204401 17.62500032924472,15.75714291204401 17.62500032924472,15.84642862785025 17.62500032924472,15.935714343656493 17.62500032924472,16.025000059462734 17.62500032924472,16.114285775268975 17.62500032924472,16.114285775268975 17.62500032924472,16.114285775268975 17.62500032924472,16.203571491075216 17.71428604505096,16.203571491075216 17.71428604505096,16.203571491075216 17.71428604505096,16.292857206881457 17.71428604505096,16.292857206881457 17.62500032924472,16.292857206881457 17.62500032924472,16.3821429226877 17.446428897632238,16.3821429226877 17.357143181825997,16.47142863849394 17.267857466019755,16.47142863849394 17.089286034407273,16.560714354300178 17.089286034407273,16.560714354300178 17.00000031860104,16.560714354300178 17.00000031860104,16.560714354300178 16.910714602794798,16.65000007010642 16.821428886988556,16.65000007010642 16.732143171182315,16.65000007010642 16.732143171182315,16.65000007010642 16.642857455376074,16.65000007010642 16.642857455376074,16.73928578591266 16.553571739569833,16.73928578591266 16.46428602376359,16.73928578591266 16.37500030795735,16.73928578591266 16.28571459215111,16.8285715017189 16.196428876344868,16.8285715017189 16.107143160538627,16.8285715017189 16.017857444732385,16.8285715017189 15.928571728926142,16.8285715017189 15.660714581507422,16.8285715017189 15.392857434088699,16.73928578591266 15.214286002476216,16.73928578591266 14.857143139251253,16.73928578591266 14.589285991832531,16.65000007010642 14.50000027602629,16.65000007010642 14.32142884441381,16.65000007010642 14.32142884441381,16.65000007010642 14.142857412801325,16.560714354300178 14.053571696995084,16.560714354300178 13.875000265382603,16.560714354300178 13.78571454957636,16.560714354300178 13.607143117963876,16.560714354300178 13.607143117963876,16.560714354300178 13.428571686351399,16.560714354300178 13.250000254738916,16.47142863849394 13.160714538932675,16.47142863849394 13.071428823126432,16.47142863849394 12.982143107320192,16.47142863849394 12.80357167570771,16.47142863849394 12.714285959901469,16.47142863849394 12.535714528288986,16.47142863849394 12.535714528288986,16.47142863849394 12.357143096676504,16.47142863849394 12.267857380870263,16.47142863849394 12.089285949257782,16.47142863849394 11.910714517645303,16.47142863849394 11.732143086032819,16.47142863849394 11.642857370226576,16.47142863849394 11.464285938614097,16.47142863849394 11.285714507001613,16.47142863849394 11.285714507001613,16.47142863849394 11.10714307538913,16.47142863849394 11.017857359582893,16.47142863849394 10.83928592797041,16.47142863849394 10.750000212164169,16.47142863849394 10.660714496357928,16.47142863849394 10.571428780551686,16.47142863849394 10.392857348939204,16.47142863849394 10.214285917326722,16.47142863849394 10.035714485714239,16.47142863849394 9.946428769907998,16.47142863849394 9.857143054101757,16.47142863849394 9.678571622489278,16.47142863849394 9.589285906683036,16.47142863849394 9.321428759264313,16.47142863849394 9.232143043458072,16.47142863849394 9.05357161184559,16.47142863849394 8.964285896039348,16.47142863849394 8.875000180233107,16.47142863849394 8.696428748620624,16.47142863849394 8.607143032814387,16.47142863849394 8.517857317008145,16.47142863849394 8.428571601201904,16.47142863849394 8.339285885395663,16.47142863849394 8.250000169589422,16.47142863849394 8.16071445378318,16.47142863849394 8.16071445378318,16.47142863849394 8.07142873797694,16.47142863849394 8.07142873797694,16.47142863849394 8.07142873797694,16.47142863849394 8.16071445378318,16.47142863849394 8.16071445378318,16.47142863849394 8.16071445378318,16.47142863849394 8.250000169589422,16.47142863849394 8.250000169589422,16.47142863849394 8.428571601201904,16.3821429226877 8.696428748620624,16.292857206881457 8.964285896039348,16.203571491075216 9.05357161184559,16.114285775268975 9.232143043458072,16.114285775268975 9.589285906683036,15.935714343656493 9.946428769907998,15.84642862785025 10.392857348939204,15.75714291204401 10.83928592797041,15.66785719623777 11.196428791195371,15.578571480431528 11.553571654420336,15.578571480431528 11.82142880183906,15.489285764625286 12.178571665064025,15.489285764625286 12.80357167570771,15.489285764625286 13.33928597054516,15.400000048819043 13.607143117963876,15.400000048819043 13.964285981188842,15.310714333012804 14.142857412801325,15.310714333012804 14.32142884441381,15.310714333012804 14.50000027602629,15.310714333012804 14.678571707638769,15.310714333012804 14.857143139251253,15.310714333012804 15.035714570863734,15.310714333012804 15.214286002476216,15.310714333012804 15.303571718282459,15.310714333012804 15.571428865701181,15.310714333012804 15.660714581507422,15.310714333012804 15.750000297313665,15.310714333012804 15.839286013119905,15.310714333012804 15.928571728926142,15.310714333012804 16.017857444732385,15.310714333012804 16.107143160538627,15.310714333012804 16.196428876344868,15.310714333012804 16.28571459215111,15.310714333012804 16.37500030795735,15.310714333012804 16.37500030795735,15.400000048819043 16.46428602376359,15.400000048819043 16.553571739569833,15.400000048819043 16.642857455376074,15.489285764625286 16.732143171182315,15.489285764625286 16.821428886988556,15.489285764625286 16.821428886988556,15.578571480431528 16.910714602794798,15.578571480431528 16.910714602794798,15.66785719623777 17.00000031860104,15.66785719623777 17.00000031860104,15.66785719623777 17.00000031860104,15.75714291204401 17.00000031860104,15.75714291204401 17.00000031860104,15.75714291204401 17.00000031860104,15.84642862785025 16.910714602794798,15.84642862785025 16.910714602794798,15.935714343656493 16.821428886988556,15.935714343656493 16.732143171182315,16.025000059462734 16.553571739569833,16.025000059462734 16.46428602376359,16.114285775268975 16.37500030795735,16.114285775268975 16.28571459215111,16.203571491075216 16.107143160538627,16.203571491075216 16.017857444732385,16.292857206881457 15.928571728926142,16.292857206881457 15.928571728926142,16.292857206881457 15.839286013119905,16.292857206881457 15.750000297313665,16.292857206881457 15.660714581507422,16.292857206881457 15.48214314989494,16.292857206881457 15.392857434088699,16.292857206881457 15.214286002476216,16.292857206881457 15.125000286669975,16.292857206881457 14.857143139251253,16.292857206881457 14.678571707638769,16.203571491075216 14.410714560220049,16.203571491075216 14.142857412801325,16.114285775268975 13.875000265382603,16.114285775268975 13.696428833770119,16.114285775268975 13.517857402157636,16.114285775268975 13.250000254738916,16.114285775268975 12.982143107320192,16.114285775268975 12.80357167570771,16.025000059462734 12.625000244095226,16.025000059462734 12.357143096676504,16.025000059462734 12.178571665064025,16.025000059462734 12.000000233451543,16.025000059462734 11.732143086032819,16.025000059462734 11.553571654420336,16.025000059462734 11.464285938614097,16.025000059462734 11.375000222807854,16.025000059462734 11.285714507001613,16.025000059462734 11.10714307538913,15.935714343656493 11.10714307538913,15.935714343656493 11.10714307538913,15.935714343656493 11.017857359582893,15.935714343656493 10.928571643776651,15.935714343656493 10.750000212164169,15.935714343656493 10.660714496357928,15.935714343656493 10.482143064745445,15.935714343656493 10.482143064745445,15.84642862785025 10.303571633132963,15.84642862785025 10.214285917326722,15.84642862785025 10.035714485714239,15.84642862785025 9.857143054101757,15.84642862785025 9.678571622489278,15.84642862785025 9.589285906683036,15.84642862785025 9.321428759264313,15.84642862785025 9.232143043458072,15.84642862785025 9.05357161184559,15.84642862785025 8.964285896039348,15.84642862785025 8.785714464426865,15.84642862785025 8.696428748620624,15.84642862785025 8.607143032814387,15.84642862785025 8.517857317008145,15.84642862785025 8.428571601201904,15.84642862785025 8.339285885395663,15.84642862785025 8.250000169589422,15.84642862785025 8.16071445378318,15.84642862785025 8.07142873797694,15.75714291204401 7.982143022170699,15.75714291204401 7.982143022170699,15.75714291204401 7.982143022170699,15.75714291204401 7.982143022170699,15.75714291204401 8.07142873797694,15.75714291204401 8.16071445378318,15.66785719623777 8.339285885395663,15.66785719623777 8.428571601201904,15.578571480431528 8.607143032814387,15.489285764625286 8.696428748620624,15.489285764625286 8.964285896039348,15.400000048819043 9.14285732765183,15.310714333012804 9.500000190876795,15.221428617206566 9.857143054101757,15.221428617206566 10.12500020152048,15.132142901400327 10.214285917326722,15.132142901400327 10.571428780551686,15.042857185594084 10.83928592797041,15.042857185594084 11.10714307538913,14.953571469787843 11.464285938614097,14.953571469787843 11.82142880183906,14.8642857539816 12.089285949257782,14.8642857539816 12.267857380870263,14.8642857539816 12.625000244095226,14.8642857539816 12.714285959901469,14.8642857539816 12.892857391513953,14.77500003817536 13.160714538932675,14.77500003817536 13.250000254738916,14.77500003817536 13.428571686351399,14.77500003817536 13.607143117963876,14.77500003817536 13.875000265382603,14.68571432236912 13.964285981188842,14.68571432236912 14.053571696995084,14.68571432236912 14.142857412801325,14.68571432236912 14.32142884441381,14.596428606562878 14.50000027602629,14.596428606562878 14.678571707638769,14.596428606562878 14.76785742344501,14.596428606562878 14.857143139251253,14.596428606562878 14.946428855057492,14.507142890756636 15.035714570863734,14.507142890756636 15.035714570863734,14.507142890756636 15.125000286669975,14.507142890756636 15.125000286669975,14.507142890756636 15.035714570863734,14.507142890756636 15.035714570863734,14.507142890756636 14.857143139251253,14.507142890756636 14.678571707638769,14.596428606562878 14.410714560220049,14.68571432236912 14.142857412801325,14.68571432236912 13.875000265382603,14.68571432236912 13.607143117963876,14.68571432236912 13.33928597054516,14.68571432236912 13.071428823126432,14.68571432236912 12.714285959901469,14.68571432236912 12.446428812482747,14.68571432236912 12.089285949257782,14.596428606562878 11.82142880183906,14.596428606562878 11.464285938614097,14.596428606562878 11.10714307538913,14.507142890756636 10.571428780551686,14.507142890756636 10.303571633132963,14.507142890756636 9.946428769907998,14.507142890756636 9.767857338295519,14.507142890756636 9.589285906683036,14.507142890756636 9.410714475070554,14.507142890756636 9.232143043458072,14.507142890756636 9.14285732765183,14.507142890756636 8.964285896039348,14.596428606562878 8.785714464426865,14.596428606562878 8.696428748620624,14.596428606562878 8.607143032814387,14.68571432236912 8.428571601201904,14.68571432236912 8.428571601201904,14.68571432236912 8.250000169589422,14.77500003817536 8.16071445378318,14.77500003817536 8.07142873797694,14.8642857539816 7.982143022170699,14.8642857539816 7.892857306364457,14.8642857539816 7.892857306364457,14.8642857539816 7.892857306364457,14.8642857539816 7.8035715905582155,14.8642857539816 7.892857306364457,14.8642857539816 7.892857306364457,14.8642857539816 8.07142873797694,14.77500003817536 8.16071445378318,14.77500003817536 8.339285885395663,14.68571432236912 8.607143032814387,14.596428606562878 8.964285896039348,14.417857174950393 9.410714475070554,14.328571459144154 9.857143054101757,14.239285743337915 10.392857348939204,14.150000027531672 10.928571643776651,14.060714311725434 11.285714507001613,14.060714311725434 11.642857370226576,14.060714311725434 11.910714517645303,13.971428595919193 12.178571665064025,13.971428595919193 12.446428812482747,13.971428595919193 12.714285959901469,13.88214288011295 12.892857391513953,13.88214288011295 13.33928597054516,13.88214288011295 13.517857402157636,13.88214288011295 13.607143117963876,13.79285716430671 13.696428833770119,13.79285716430671 13.78571454957636,13.79285716430671 13.964285981188842,13.79285716430671 14.053571696995084,13.79285716430671 14.142857412801325,13.79285716430671 14.232143128607566,13.79285716430671 14.32142884441381,13.79285716430671 14.410714560220049,13.79285716430671 14.50000027602629,13.79285716430671 14.589285991832531,13.79285716430671 14.678571707638769,13.79285716430671 14.589285991832531,13.79285716430671 14.589285991832531,13.79285716430671 14.589285991832531,13.79285716430671 14.50000027602629,13.88214288011295 14.410714560220049,13.88214288011295 14.232143128607566,13.971428595919193 14.232143128607566,13.971428595919193 14.053571696995084,13.971428595919193 13.964285981188842,14.060714311725434 13.875000265382603,14.060714311725434 13.78571454957636,14.060714311725434 13.607143117963876,14.150000027531672 13.517857402157636,14.150000027531672 13.250000254738916,14.150000027531672 12.982143107320192,14.150000027531672 12.714285959901469,14.060714311725434 12.357143096676504,14.060714311725434 12.089285949257782,14.060714311725434 11.82142880183906,13.971428595919193 11.375000222807854,13.971428595919193 11.196428791195371,13.971428595919193 10.928571643776651,13.971428595919193 10.660714496357928,13.971428595919193 10.482143064745445,13.971428595919193 10.392857348939204,13.971428595919193 10.214285917326722,13.971428595919193 10.035714485714239,13.971428595919193 10.035714485714239,13.971428595919193 9.857143054101757,13.971428595919193 9.767857338295519,13.971428595919193 9.678571622489278,13.971428595919193 9.589285906683036,13.971428595919193 9.410714475070554,13.971428595919193 9.232143043458072,13.971428595919193 9.05357161184559,13.971428595919193 8.964285896039348,13.971428595919193 8.875000180233107,13.971428595919193 8.696428748620624,14.060714311725434 8.517857317008145,14.060714311725434 8.517857317008145,14.060714311725434 8.339285885395663,14.060714311725434 8.250000169589422,14.060714311725434 8.16071445378318,14.060714311725434 7.982143022170699,14.150000027531672 7.892857306364457,14.150000027531672 7.8035715905582155,14.150000027531672 7.8035715905582155,14.150000027531672 7.8035715905582155,14.150000027531672 7.714285874751974,14.150000027531672 7.625000158945732,14.150000027531672 7.714285874751974,14.150000027531672 7.8035715905582155,14.060714311725434 7.892857306364457,14.060714311725434 8.07142873797694,13.971428595919193 8.250000169589422,13.88214288011295 8.428571601201904,13.79285716430671 8.696428748620624,13.703571448500469 9.232143043458072,13.525000016887986 9.589285906683036,13.346428585275504 10.035714485714239,13.257142869469263 10.392857348939204,13.257142869469263 10.83928592797041,13.167857153663022 11.10714307538913,13.07857143785678 11.375000222807854,13.07857143785678 11.642857370226576,13.07857143785678 11.910714517645303,13.07857143785678 12.357143096676504,12.989285722050537 12.625000244095226,12.989285722050537 12.892857391513953,12.989285722050537 13.071428823126432,12.989285722050537 13.160714538932675,12.989285722050537 13.250000254738916,12.989285722050537 13.607143117963876,12.989285722050537 13.78571454957636,12.989285722050537 13.964285981188842,12.989285722050537 13.964285981188842,12.989285722050537 14.053571696995084,12.989285722050537 14.053571696995084,12.989285722050537 14.142857412801325,12.989285722050537 14.232143128607566,12.989285722050537 14.232143128607566,12.989285722050537 14.232143128607566,12.989285722050537 14.053571696995084,13.07857143785678 13.964285981188842,13.07857143785678 13.696428833770119,13.167857153663022 13.428571686351399,13.167857153663022 13.160714538932675,13.167857153663022 12.714285959901469,13.167857153663022 12.267857380870263,13.167857153663022 11.732143086032819,13.07857143785678 11.285714507001613,13.07857143785678 10.83928592797041,13.07857143785678 10.482143064745445,12.989285722050537 10.303571633132963,12.989285722050537 10.035714485714239,12.989285722050537 9.946428769907998,12.989285722050537 9.767857338295519,12.989285722050537 9.410714475070554,12.989285722050537 9.232143043458072,12.989285722050537 9.14285732765183,12.989285722050537 8.964285896039348,12.989285722050537 8.785714464426865,12.989285722050537 8.696428748620624,12.989285722050537 8.517857317008145,13.07857143785678 8.428571601201904,13.07857143785678 8.339285885395663,13.07857143785678 8.250000169589422,13.07857143785678 8.16071445378318,13.07857143785678 8.07142873797694,13.167857153663022 7.892857306364457,13.167857153663022 7.8035715905582155,13.257142869469263 7.714285874751974,13.257142869469263 7.714285874751974,13.257142869469263 7.625000158945732,13.257142869469263 7.535714443139493,13.346428585275504 7.446428727333251,13.346428585275504 7.357143011527013,13.346428585275504 7.357143011527013,13.346428585275504 7.357143011527013,13.346428585275504 7.357143011527013,13.346428585275504 7.446428727333251,13.346428585275504 7.535714443139493,13.257142869469263 7.714285874751974,13.167857153663022 7.982143022170699,13.07857143785678 8.250000169589422,12.900000006244298 8.607143032814387,12.721428574631819 9.05357161184559,12.542857143019337 9.589285906683036,12.453571427213094 9.946428769907998,12.274999995600613 10.482143064745445,12.185714279794372 10.83928592797041,12.185714279794372 11.196428791195371,12.09642856398813 11.553571654420336,12.09642856398813 11.82142880183906,12.09642856398813 12.000000233451543,12.09642856398813 12.178571665064025,12.09642856398813 12.446428812482747,12.09642856398813 12.625000244095226,12.09642856398813 12.892857391513953,12.09642856398813 12.982143107320192,12.09642856398813 13.071428823126432,12.09642856398813 13.160714538932675,12.09642856398813 13.250000254738916,12.09642856398813 13.33928597054516,12.09642856398813 13.517857402157636,12.185714279794372 13.607143117963876,12.185714279794372 13.696428833770119,12.185714279794372 13.696428833770119,12.185714279794372 13.78571454957636,12.185714279794372 13.78571454957636,12.185714279794372 13.875000265382603,12.185714279794372 13.78571454957636,12.185714279794372 13.78571454957636,12.185714279794372 13.696428833770119,12.185714279794372 13.517857402157636,12.274999995600613 13.33928597054516,12.364285711406854 12.982143107320192,12.364285711406854 12.535714528288986,12.274999995600613 12.089285949257782,12.185714279794372 11.553571654420336,12.185714279794372 10.928571643776651,12.09642856398813 10.303571633132963,12.007142848181887 9.946428769907998,12.007142848181887 9.589285906683036,12.007142848181887 9.321428759264313,12.007142848181887 9.05357161184559,12.007142848181887 8.875000180233107,12.007142848181887 8.607143032814387,12.007142848181887 8.517857317008145,12.007142848181887 8.428571601201904,12.007142848181887 8.339285885395663,12.09642856398813 8.16071445378318,12.09642856398813 8.07142873797694,12.09642856398813 7.982143022170699,12.185714279794372 7.8035715905582155,12.185714279794372 7.8035715905582155,12.185714279794372 7.714285874751974,12.185714279794372 7.714285874751974,12.185714279794372 7.625000158945732,12.185714279794372 7.714285874751974,12.185714279794372 7.8035715905582155,12.185714279794372 7.892857306364457,12.09642856398813 8.250000169589422,11.917857132375648 8.696428748620624,11.739285700763165 9.14285732765183,11.471428553344442 9.410714475070554,11.292857121731963 9.946428769907998,11.11428569011948 10.571428780551686,10.935714258506998 11.196428791195371,10.846428542700757 11.553571654420336,10.757142826894516 11.82142880183906,10.757142826894516 12.089285949257782,10.757142826894516 12.267857380870263,10.757142826894516 12.535714528288986,10.757142826894516 12.714285959901469,10.757142826894516 12.892857391513953,10.757142826894516 12.982143107320192,10.757142826894516 13.160714538932675,10.757142826894516 13.33928597054516,10.846428542700757 13.428571686351399,10.846428542700757 13.696428833770119,11.02499997431324 13.875000265382603,11.11428569011948 14.053571696995084,11.203571405925722 14.142857412801325,11.292857121731963 14.232143128607566,11.292857121731963 14.232143128607566,11.292857121731963 14.32142884441381,11.382142837538204 14.32142884441381,11.382142837538204 14.232143128607566,11.382142837538204 14.232143128607566,11.471428553344442 14.053571696995084,11.471428553344442 13.964285981188842,11.560714269150685 13.78571454957636,11.560714269150685 13.607143117963876,11.649999984956924 13.428571686351399,11.649999984956924 13.250000254738916,11.649999984956924 13.071428823126432,11.649999984956924 12.892857391513953,11.649999984956924 12.714285959901469,11.649999984956924 12.446428812482747,11.649999984956924 12.267857380870263,11.649999984956924 12.000000233451543,11.649999984956924 11.642857370226576,11.649999984956924 11.017857359582893,11.649999984956924 10.660714496357928,11.649999984956924 10.303571633132963,11.560714269150685 10.035714485714239,11.560714269150685 9.767857338295519,11.560714269150685 9.500000190876795,11.560714269150685 9.232143043458072,11.560714269150685 9.14285732765183,11.560714269150685 8.964285896039348,11.560714269150685 8.785714464426865,11.560714269150685 8.607143032814387,11.560714269150685 8.517857317008145,11.560714269150685 8.339285885395663,11.560714269150685 8.250000169589422,11.560714269150685 8.16071445378318,11.560714269150685 8.16071445378318,11.471428553344442 8.250000169589422,11.471428553344442 8.250000169589422,11.471428553344442 8.339285885395663,11.471428553344442 8.428571601201904,11.382142837538204 8.428571601201904,11.382142837538204 8.696428748620624,11.292857121731963 8.964285896039348,11.11428569011948 9.500000190876795,11.02499997431324 9.857143054101757,10.846428542700757 10.392857348939204,10.757142826894516 10.83928592797041,10.667857111088274 11.196428791195371,10.667857111088274 11.910714517645303,10.578571395282033 12.357143096676504,10.578571395282033 12.714285959901469,10.489285679475792 12.892857391513953,10.489285679475792 13.160714538932675,10.489285679475792 13.250000254738916,10.489285679475792 13.428571686351399,10.489285679475792 13.607143117963876,10.489285679475792 13.696428833770119,10.489285679475792 13.696428833770119,10.489285679475792 13.78571454957636,10.489285679475792 13.696428833770119,10.489285679475792 13.696428833770119,10.489285679475792 13.696428833770119,10.489285679475792 13.517857402157636,10.489285679475792 13.33928597054516,10.578571395282033 13.071428823126432,10.667857111088274 12.714285959901469,10.667857111088274 12.178571665064025,10.667857111088274 11.732143086032819,10.667857111088274 11.196428791195371,10.667857111088274 10.482143064745445,10.667857111088274 10.303571633132963,10.667857111088274 10.035714485714239,10.667857111088274 9.767857338295519,10.667857111088274 9.500000190876795,10.667857111088274 9.232143043458072,10.667857111088274 8.964285896039348,10.667857111088274 8.875000180233107,10.757142826894516 8.607143032814387,10.757142826894516 8.517857317008145,10.757142826894516 8.339285885395663,10.846428542700757 8.16071445378318,10.846428542700757 7.892857306364457,10.846428542700757 7.714285874751974,10.846428542700757 7.446428727333251,10.846428542700757 7.357143011527013,10.846428542700757 7.357143011527013,10.846428542700757 7.446428727333251,10.846428542700757 7.446428727333251,10.757142826894516 7.535714443139493,10.757142826894516 7.625000158945732,10.667857111088274 7.8035715905582155,10.578571395282033 7.982143022170699,10.39999996366955 8.250000169589422,10.13214281625083 8.339285885395663,10.04285710044459 8.428571601201904,9.953571384638348 8.517857317008145,9.953571384638348 8.517857317008145,9.864285668832107 8.517857317008145,9.774999953025866 8.607143032814387,9.685714237219624 8.607143032814387,9.507142805607142 8.607143032814387,9.4178570898009 8.517857317008145,9.32857137399466 8.517857317008145,9.239285658188418 8.428571601201904,9.239285658188418 8.428571601201904,9.149999942382177 8.428571601201904,9.149999942382177 8.428571601201904,9.149999942382177 8.517857317008145,9.149999942382177 8.428571601201904,9.149999942382177 8.428571601201904,9.149999942382177 8.428571601201904,9.149999942382177 8.339285885395663,9.149999942382177 8.339285885395663,9.149999942382177 8.250000169589422,9.149999942382177 8.16071445378318,9.239285658188418 8.16071445378318,9.239285658188418 8.07142873797694,9.149999942382177 8.07142873797694,9.149999942382177 8.07142873797694,9.060714226575936 8.07142873797694,9.060714226575936 8.07142873797694,8.971428510769698 8.16071445378318,8.882142794963457 8.250000169589422,8.792857079157216 8.339285885395663,8.703571363350974 8.428571601201904,8.614285647544733 8.517857317008145,8.524999931738492 8.696428748620624,8.43571421593225 8.875000180233107,8.257142784319768 9.05357161184559,8.167857068513527 9.14285732765183,8.078571352707286 9.232143043458072,7.989285636901045 9.321428759264313,7.989285636901045 9.410714475070554,7.899999921094805 9.500000190876795,7.810714205288563 9.678571622489278,7.7214284894823235 9.767857338295519,7.632142773676083 9.767857338295519,7.632142773676083 9.946428769907998,7.542857057869841 10.214285917326722,7.4535713420636 10.482143064745445,7.364285626257359 10.660714496357928,7.274999910451117 10.928571643776651,7.274999910451117 11.017857359582893,7.185714194644877 11.553571654420336,7.185714194644877 11.82142880183906,7.185714194644877 12.089285949257782,7.185714194644877 12.446428812482747,7.185714194644877 12.535714528288986,7.185714194644877 12.714285959901469,7.185714194644877 12.892857391513953,7.185714194644877 13.160714538932675,7.185714194644877 13.517857402157636,7.185714194644877 13.696428833770119,7.185714194644877 13.78571454957636,7.185714194644877 14.053571696995084,7.185714194644877 14.32142884441381,7.185714194644877 14.76785742344501,7.185714194644877 15.214286002476216,7.185714194644877 15.48214314989494,7.185714194644877 15.571428865701181,7.185714194644877 15.750000297313665,7.185714194644877 16.017857444732385,7.185714194644877 16.196428876344868,7.185714194644877 16.37500030795735,7.185714194644877 16.46428602376359,7.185714194644877 16.553571739569833,7.185714194644877 16.642857455376074,7.185714194644877 16.732143171182315,7.185714194644877 16.821428886988556,7.185714194644877 16.821428886988556,7.185714194644877 16.821428886988556,7.274999910451117 16.821428886988556,7.274999910451117 16.821428886988556,7.274999910451117 16.821428886988556,7.274999910451117 16.821428886988556,7.364285626257359 16.732143171182315,7.4535713420636 16.642857455376074,7.632142773676083 16.642857455376074,7.7214284894823235 16.553571739569833,7.7214284894823235 16.553571739569833,7.7214284894823235 16.46428602376359,7.810714205288563 16.37500030795735,7.899999921094805 16.196428876344868,7.899999921094805 15.928571728926142,7.989285636901045 15.660714581507422,8.078571352707286 15.48214314989494,8.078571352707286 15.392857434088699,8.167857068513527 15.303571718282459,8.167857068513527 15.214286002476216,8.167857068513527 15.035714570863734,8.167857068513527 14.857143139251253,8.257142784319768 14.678571707638769,8.257142784319768 14.410714560220049,8.34642850012601 14.142857412801325,8.34642850012601 13.78571454957636,8.43571421593225 13.517857402157636,8.43571421593225 13.160714538932675,8.43571421593225 12.80357167570771,8.43571421593225 12.625000244095226,8.524999931738492 12.267857380870263,8.524999931738492 11.732143086032819,8.524999931738492 11.375000222807854,8.43571421593225 11.10714307538913,8.43571421593225 10.660714496357928,8.43571421593225 10.392857348939204,8.43571421593225 10.214285917326722,8.43571421593225 9.946428769907998,8.43571421593225 9.767857338295519,8.43571421593225 9.678571622489278,8.43571421593225 9.500000190876795,8.524999931738492 9.321428759264313,8.524999931738492 9.14285732765183,8.524999931738492 9.05357161184559,8.524999931738492 8.964285896039348,8.614285647544733 8.875000180233107,8.614285647544733 8.785714464426865,8.703571363350974 8.696428748620624,8.703571363350974 8.696428748620624,8.703571363350974 8.607143032814387,8.792857079157216 8.607143032814387,8.792857079157216 8.517857317008145,8.792857079157216 8.517857317008145,8.882142794963457 8.607143032814387,8.882142794963457 8.607143032814387,8.792857079157216 8.785714464426865,8.703571363350974 9.05357161184559,8.614285647544733 9.14285732765183,8.614285647544733 9.410714475070554,8.43571421593225 9.946428769907998,8.167857068513527 10.482143064745445,7.899999921094805 11.017857359582893,7.810714205288563 11.464285938614097,7.7214284894823235 11.642857370226576,7.632142773676083 12.000000233451543,7.632142773676083 12.267857380870263,7.542857057869841 12.714285959901469,7.542857057869841 12.892857391513953,7.542857057869841 13.071428823126432,7.542857057869841 13.428571686351399,7.542857057869841 13.78571454957636,7.542857057869841 14.053571696995084,7.632142773676083 14.32142884441381,7.632142773676083 14.50000027602629,7.632142773676083 14.678571707638769,7.632142773676083 14.946428855057492,7.632142773676083 15.125000286669975,7.632142773676083 15.303571718282459,7.632142773676083 15.660714581507422,7.632142773676083 15.839286013119905,7.632142773676083 15.928571728926142,7.632142773676083 16.017857444732385,7.632142773676083 16.017857444732385,7.632142773676083 16.017857444732385,7.632142773676083 16.017857444732385,7.7214284894823235 15.928571728926142,7.7214284894823235 15.928571728926142,7.7214284894823235 15.750000297313665,7.810714205288563 15.660714581507422,7.899999921094805 15.48214314989494,7.989285636901045 15.303571718282459,8.167857068513527 15.214286002476216,8.257142784319768 15.035714570863734,8.43571421593225 14.857143139251253,8.524999931738492 14.589285991832531,8.614285647544733 14.32142884441381,8.703571363350974 14.142857412801325,8.703571363350974 13.875000265382603,8.792857079157216 13.607143117963876,8.792857079157216 13.160714538932675,8.882142794963457 12.80357167570771,8.882142794963457 12.178571665064025,8.971428510769698 11.732143086032819,9.060714226575936 11.10714307538913,9.060714226575936 10.660714496357928,9.060714226575936 10.12500020152048,9.060714226575936 9.857143054101757,9.060714226575936 9.589285906683036,9.060714226575936 9.410714475070554,9.060714226575936 8.964285896039348,9.060714226575936 8.875000180233107,9.149999942382177 8.696428748620624,9.149999942382177 8.517857317008145,9.149999942382177 8.339285885395663,9.239285658188418 8.16071445378318,9.239285658188418 8.07142873797694,9.239285658188418 7.982143022170699,9.239285658188418 7.892857306364457,9.239285658188418 7.892857306364457,9.239285658188418 7.892857306364457,9.32857137399466 7.8035715905582155,9.32857137399466 7.8035715905582155,9.32857137399466 7.892857306364457,9.32857137399466 7.982143022170699,9.4178570898009 8.16071445378318,9.4178570898009 8.339285885395663,9.507142805607142 8.607143032814387,9.507142805607142 8.785714464426865,9.507142805607142 8.964285896039348,9.596428521413383 9.232143043458072,9.596428521413383 9.410714475070554,9.685714237219624 9.678571622489278,9.685714237219624 10.035714485714239,9.774999953025866 10.303571633132963,9.774999953025866 10.660714496357928,9.774999953025866 10.928571643776651,9.774999953025866 11.285714507001613,9.774999953025866 11.553571654420336,9.774999953025866 12.178571665064025,9.774999953025866 12.535714528288986,9.774999953025866 12.982143107320192,9.774999953025866 13.33928597054516,9.685714237219624 13.607143117963876,9.685714237219624 13.964285981188842,9.685714237219624 14.32142884441381,9.596428521413383 14.678571707638769,9.596428521413383 14.946428855057492,9.596428521413383 15.125000286669975,9.507142805607142 15.303571718282459,9.507142805607142 15.48214314989494,9.507142805607142 15.571428865701181,9.4178570898009 15.660714581507422,9.4178570898009 15.750000297313665,9.4178570898009 15.750000297313665,9.4178570898009 15.660714581507422,9.4178570898009 15.660714581507422,9.507142805607142 15.571428865701181,9.507142805607142 15.392857434088699,9.596428521413383 15.214286002476216,9.685714237219624 15.035714570863734,9.774999953025866 14.857143139251253,9.864285668832107 14.589285991832531,9.953571384638348 14.410714560220049,10.04285710044459 14.232143128607566,10.04285710044459 14.053571696995084,10.13214281625083 13.875000265382603,10.13214281625083 13.696428833770119,10.221428532057068 13.428571686351399,10.31071424786331 13.250000254738916,10.31071424786331 12.982143107320192,10.39999996366955 12.80357167570771,10.39999996366955 12.625000244095226,10.39999996366955 12.446428812482747,10.489285679475792 12.089285949257782,10.489285679475792 11.642857370226576,10.489285679475792 11.553571654420336,10.489285679475792 11.285714507001613,10.489285679475792 10.928571643776651,10.489285679475792 10.571428780551686,10.39999996366955 10.392857348939204,10.39999996366955 10.12500020152048,10.39999996366955 10.035714485714239,10.39999996366955 9.857143054101757,10.31071424786331 9.767857338295519,10.31071424786331 9.589285906683036,10.31071424786331 9.410714475070554,10.31071424786331 9.232143043458072,10.31071424786331 9.14285732765183,10.31071424786331 9.05357161184559,10.31071424786331 8.785714464426865,10.31071424786331 8.696428748620624,10.31071424786331 8.607143032814387,10.31071424786331 8.517857317008145,10.31071424786331 8.339285885395663,10.31071424786331 8.250000169589422,10.31071424786331 8.07142873797694,10.31071424786331 7.982143022170699,10.39999996366955 7.892857306364457,10.39999996366955 7.8035715905582155,10.39999996366955 7.714285874751974,10.39999996366955 7.625000158945732,10.489285679475792 7.446428727333251,10.489285679475792 7.357143011527013,10.489285679475792 7.267857295720772,10.489285679475792 7.089285864108288,10.489285679475792 7.000000148302049,10.489285679475792 6.910714432495807,10.578571395282033 6.8214287166895655,10.578571395282033 6.732143000883324,10.578571395282033 6.642857285077082,10.578571395282033 6.553571569270842,10.578571395282033 6.464285853464601,10.578571395282033 6.375000137658359,10.578571395282033 6.285714421852118,10.578571395282033 6.285714421852118,10.578571395282033 6.1964287060458805,10.578571395282033 6.107142990239638,10.578571395282033 6.017857274433398,10.578571395282033 6.017857274433398,10.578571395282033 6.017857274433398,10.578571395282033 5.928571558627157,10.578571395282033 5.839285842820916,10.578571395282033 5.839285842820916,10.578571395282033 5.750000127014674,10.578571395282033 5.660714411208433,10.667857111088274 5.660714411208433,10.667857111088274 5.571428695402192,10.667857111088274 5.482142979595951,10.667857111088274 5.482142979595951,10.667857111088274 5.392857263789709,10.667857111088274 5.303571547983468,10.667857111088274 5.214285832177227,10.757142826894516 5.125000116370986,10.757142826894516 5.0357144005647445,10.757142826894516 4.946428684758507,10.846428542700757 4.946428684758507,10.846428542700757 4.857142968952266,10.846428542700757 4.857142968952266,10.846428542700757 4.767857253146023,10.935714258506998 4.767857253146023,10.935714258506998 4.678571537339783,10.935714258506998 4.678571537339783,10.935714258506998 4.589285821533542,11.02499997431324 4.589285821533542,11.02499997431324 4.589285821533542,11.02499997431324 4.589285821533542,11.02499997431324 4.589285821533542,11.02499997431324 4.589285821533542,11.11428569011948 4.589285821533542,11.11428569011948 4.589285821533542,11.11428569011948 4.589285821533542,11.203571405925722 4.589285821533542,11.203571405925722 4.589285821533542,11.203571405925722 4.678571537339783,11.292857121731963 4.678571537339783,11.382142837538204 4.678571537339783,11.382142837538204 4.678571537339783,11.382142837538204 4.767857253146023,11.471428553344442 4.767857253146023,11.560714269150685 4.767857253146023,11.560714269150685 4.767857253146023,11.649999984956924 4.857142968952266,11.649999984956924 4.857142968952266,11.649999984956924 4.857142968952266,11.739285700763165 4.857142968952266,11.828571416569407 4.857142968952266,11.828571416569407 4.857142968952266,11.917857132375648 4.857142968952266,11.917857132375648 4.857142968952266,11.917857132375648 4.857142968952266,12.007142848181887 4.857142968952266,12.09642856398813 4.857142968952266,12.09642856398813 4.857142968952266,12.185714279794372 4.857142968952266,12.274999995600613 4.857142968952266,12.364285711406854 4.857142968952266,12.364285711406854 4.857142968952266,12.453571427213094 4.857142968952266,12.453571427213094 4.857142968952266,12.453571427213094 4.857142968952266,12.542857143019337 4.857142968952266,12.542857143019337 4.857142968952266,12.632142858825574 4.946428684758507,12.632142858825574 4.946428684758507,12.721428574631819 4.946428684758507,12.721428574631819 5.0357144005647445,12.81071429043806 5.0357144005647445,12.81071429043806 5.0357144005647445,12.900000006244298 5.125000116370986,12.900000006244298 5.125000116370986,12.989285722050537 5.214285832177227,13.07857143785678 5.214285832177227,13.07857143785678 5.303571547983468,13.07857143785678 5.303571547983468,13.167857153663022 5.303571547983468,13.167857153663022 5.392857263789709,13.167857153663022 5.482142979595951,13.167857153663022 5.482142979595951,13.257142869469263 5.571428695402192,13.257142869469263 5.571428695402192,13.257142869469263 5.660714411208433,13.257142869469263 5.660714411208433,13.257142869469263 5.750000127014674,13.257142869469263 5.750000127014674,13.257142869469263 5.839285842820916,13.346428585275504 5.928571558627157,13.346428585275504 6.017857274433398,13.346428585275504 6.107142990239638,13.346428585275504 6.1964287060458805,13.346428585275504 6.1964287060458805,13.346428585275504 6.285714421852118,13.346428585275504 6.375000137658359,13.346428585275504 6.553571569270842,13.346428585275504 6.642857285077082,13.346428585275504 6.732143000883324,13.346428585275504 6.8214287166895655,13.257142869469263 6.910714432495807,13.257142869469263 7.000000148302049,13.257142869469263 7.000000148302049,13.257142869469263 7.000000148302049,13.167857153663022 6.910714432495807,13.167857153663022 6.8214287166895655,12.989285722050537 6.8214287166895655,12.721428574631819 6.8214287166895655,12.542857143019337 6.8214287166895655,12.274999995600613 6.8214287166895655,11.828571416569407 6.8214287166895655,11.560714269150685 6.8214287166895655,11.382142837538204 6.8214287166895655,11.292857121731963 6.8214287166895655,11.292857121731963 6.8214287166895655,11.292857121731963 6.8214287166895655,11.203571405925722 6.8214287166895655,11.203571405925722 6.8214287166895655,11.11428569011948 6.8214287166895655,11.11428569011948 6.8214287166895655,11.11428569011948 6.8214287166895655,11.11428569011948 6.642857285077082,11.02499997431324 6.553571569270842,10.846428542700757 6.464285853464601,10.757142826894516 6.464285853464601,10.667857111088274 6.375000137658359,10.667857111088274 6.375000137658359,10.667857111088274 6.375000137658359,10.667857111088274 6.285714421852118,10.667857111088274 6.285714421852118,10.667857111088274 6.285714421852118,10.667857111088274 6.1964287060458805,10.757142826894516 6.107142990239638,10.757142826894516 5.928571558627157,10.846428542700757 5.839285842820916,10.846428542700757 5.839285842820916,10.935714258506998 5.750000127014674,10.935714258506998 5.660714411208433,10.935714258506998 5.660714411208433,10.935714258506998 5.571428695402192,11.02499997431324 5.482142979595951,11.02499997431324 5.482142979595951,11.02499997431324 5.482142979595951,11.11428569011948 5.392857263789709,11.11428569011948 5.392857263789709,11.11428569011948 5.392857263789709,11.11428569011948 5.392857263789709,11.292857121731963 5.392857263789709,11.471428553344442 5.392857263789709,11.560714269150685 5.392857263789709,11.649999984956924 5.392857263789709,11.739285700763165 5.392857263789709,11.828571416569407 5.482142979595951,11.917857132375648 5.482142979595951,12.007142848181887 5.571428695402192,12.09642856398813 5.660714411208433,12.185714279794372 5.660714411208433,12.185714279794372 5.660714411208433,12.274999995600613 5.750000127014674,12.274999995600613 5.750000127014674,12.364285711406854 5.839285842820916,12.364285711406854 5.928571558627157,12.364285711406854 5.928571558627157,12.453571427213094 6.017857274433398,12.453571427213094 6.107142990239638,12.453571427213094 6.107142990239638,12.542857143019337 6.1964287060458805,12.542857143019337 6.1964287060458805,12.542857143019337 6.1964287060458805,12.542857143019337 6.1964287060458805,12.542857143019337 6.1964287060458805,12.453571427213094 6.1964287060458805,12.453571427213094 6.1964287060458805,12.453571427213094 6.1964287060458805,12.274999995600613 6.1964287060458805,12.09642856398813 6.1964287060458805,12.007142848181887 6.1964287060458805,11.917857132375648 6.1964287060458805,11.828571416569407 6.1964287060458805,11.739285700763165 6.1964287060458805,11.649999984956924 6.1964287060458805,11.560714269150685 6.1964287060458805,11.560714269150685 6.1964287060458805,11.471428553344442 6.1964287060458805,11.471428553344442 6.107142990239638,11.382142837538204 6.107142990239638,11.292857121731963 6.107142990239638,11.292857121731963 6.107142990239638,11.203571405925722 6.1964287060458805,11.203571405925722 6.1964287060458805,11.11428569011948 6.1964287060458805,11.11428569011948 6.1964287060458805,11.11428569011948 6.285714421852118,11.11428569011948 7.089285864108288,11.02499997431324 7.8035715905582155,10.846428542700757 8.428571601201904,10.757142826894516 8.875000180233107,10.667857111088274 9.321428759264313,10.489285679475792 9.767857338295519,10.39999996366955 10.303571633132963,10.31071424786331 10.750000212164169,10.221428532057068 11.10714307538913,10.221428532057068 11.196428791195371,10.13214281625083 11.10714307538913,10.13214281625083 11.017857359582893,10.13214281625083 10.928571643776651,10.13214281625083 10.750000212164169,10.13214281625083 10.660714496357928,10.13214281625083 10.571428780551686,10.13214281625083 10.571428780551686,10.13214281625083 10.482143064745445,10.13214281625083 10.482143064745445,10.04285710044459 10.482143064745445,9.953571384638348 10.482143064745445,9.864285668832107 10.482143064745445,9.685714237219624 10.571428780551686,9.507142805607142 10.660714496357928,9.32857137399466 10.750000212164169,9.239285658188418 10.83928592797041,9.060714226575936 10.928571643776651,8.971428510769698 10.928571643776651,8.971428510769698 10.928571643776651,8.971428510769698 10.928571643776651,9.060714226575936 10.928571643776651,9.596428521413383 11.017857359582893,10.04285710044459 11.10714307538913,10.31071424786331 11.10714307538913,10.667857111088274 11.196428791195371,10.935714258506998 11.196428791195371,11.292857121731963 11.196428791195371,11.560714269150685 11.196428791195371,11.828571416569407 11.285714507001613,12.007142848181887 11.285714507001613,12.274999995600613 11.285714507001613,12.721428574631819 11.285714507001613,12.989285722050537 11.196428791195371,13.346428585275504 11.196428791195371,13.79285716430671 11.196428791195371,14.239285743337915 11.196428791195371,14.507142890756636 11.196428791195371,14.953571469787843 11.196428791195371,15.221428617206566 11.196428791195371,15.578571480431528 11.196428791195371,15.84642862785025 11.196428791195371,16.025000059462734 11.196428791195371,16.203571491075216 11.196428791195371,16.292857206881457 11.196428791195371,16.3821429226877 11.196428791195371,16.47142863849394 11.196428791195371,16.560714354300178 11.285714507001613,16.65000007010642 11.375000222807854,16.73928578591266 11.375000222807854,16.73928578591266 11.375000222807854,16.73928578591266 11.464285938614097,16.73928578591266 11.464285938614097,16.73928578591266 11.553571654420336,16.73928578591266 11.642857370226576,16.73928578591266 11.642857370226576,16.65000007010642 11.732143086032819,16.65000007010642 11.732143086032819,16.65000007010642 11.82142880183906,16.65000007010642 11.82142880183906,16.65000007010642 11.82142880183906,16.65000007010642 11.82142880183906,16.73928578591266 11.82142880183906,16.917857217525142 11.82142880183906,17.007142933331384 11.732143086032819,17.185714364943866 11.732143086032819,17.275000080750107 11.732143086032819,17.36428579655635 11.82142880183906,17.45357151236259 11.82142880183906,17.54285722816883 11.82142880183906,17.632142943975072 11.82142880183906,17.72142865978131 11.82142880183906,17.81071437558755 11.82142880183906,17.900000091393792 11.82142880183906,17.900000091393792 11.82142880183906,17.989285807200034 11.82142880183906,17.989285807200034 11.82142880183906,18.078571523006275 11.82142880183906,18.167857238812516 11.82142880183906,18.167857238812516 11.82142880183906,18.257142954618757 11.82142880183906,18.257142954618757 11.732143086032819,18.346428670425 11.732143086032819,18.43571438623124 11.732143086032819,18.43571438623124 11.732143086032819,18.52500010203748 11.82142880183906,18.52500010203748 11.82142880183906,18.614285817843722 11.82142880183906,18.614285817843722 11.82142880183906,18.703571533649963 11.82142880183906,18.703571533649963 11.82142880183906,18.792857249456205 11.82142880183906,18.882142965262446 11.82142880183906,18.882142965262446 11.82142880183906,18.971428681068684 11.82142880183906,18.971428681068684 11.82142880183906,19.060714396874925 11.82142880183906,19.060714396874925 11.82142880183906,19.150000112681166 11.910714517645303,19.239285828487407 11.910714517645303,19.239285828487407 11.910714517645303,19.32857154429365 11.910714517645303,19.32857154429365 11.910714517645303,19.41785726009989 11.910714517645303,19.41785726009989 12.000000233451543,19.50714297590613 12.000000233451543,19.50714297590613 12.000000233451543,19.50714297590613 12.000000233451543,19.50714297590613 12.000000233451543,19.596428691712372 12.000000233451543,19.596428691712372 12.000000233451543,19.596428691712372 12.089285949257782,19.685714407518613 12.089285949257782,19.685714407518613 12.089285949257782,19.775000123324855 12.089285949257782,19.775000123324855 12.089285949257782,19.775000123324855 12.178571665064025,19.775000123324855 12.178571665064025,19.775000123324855 12.446428812482747,19.953571554937337 12.446428812482747,19.953571554937337 12.446428812482747,19.953571554937337 " style="color: rgb(0, 0, 0);"/><polyline fill="#242424" stroke="#242424" stroke-dashoffset="" fill-rule="evenodd" marker-start="" marker-mid="" marker-end="" id="svg_2" points="14.32142884441381,17.12619055440637 14.32142884441381,17.12619055440637 14.232143128607566,17.12619055440637 14.232143128607566,17.215476270212612 14.142857412801325,17.483333417631336 14.053571696995084,17.840476280856297 13.964285981188842,18.376190575693744 13.875000265382603,18.73333343891871 13.78571454957636,19.00119058633743 13.696428833770119,19.179762017949912 13.696428833770119,19.269047733756153 13.696428833770119,19.447619165368636 13.607143117963876,19.536904881174877 13.607143117963876,19.71547631278736 13.607143117963876,19.8047620285936 13.517857402157636,19.894047744399842 13.517857402157636,19.983333460206083 13.517857402157636,20.07261917601232 13.517857402157636,20.07261917601232 13.428571686351399,20.07261917601232 13.517857402157636,19.983333460206083 13.517857402157636,19.983333460206083 13.696428833770119,19.894047744399842 13.78571454957636,19.8047620285936 13.964285981188842,19.626190596981118 14.053571696995084,19.447619165368636 14.142857412801325,19.269047733756153 14.232143128607566,19.00119058633743 14.410714560220049,18.73333343891871 14.410714560220049,18.554762007306227 14.50000027602629,18.376190575693744 14.50000027602629,18.286904859887503 14.410714560220049,18.197619144081262 14.410714560220049,18.10833342827502 14.32142884441381,18.01904771246878 14.232143128607566,17.840476280856297 14.142857412801325,17.661904849243815 14.053571696995084,17.572619133437577 13.964285981188842,17.483333417631336 13.964285981188842,17.483333417631336 13.964285981188842,17.483333417631336 13.964285981188842,17.572619133437577 13.964285981188842,17.751190565050056 13.875000265382603,17.92976199666254 13.78571454957636,18.01904771246878 13.78571454957636,18.10833342827502 13.696428833770119,18.197619144081262 13.696428833770119,18.197619144081262 13.696428833770119,18.197619144081262 13.607143117963876,18.197619144081262 13.607143117963876,18.286904859887503 13.607143117963876,18.286904859887503 13.517857402157636,18.286904859887503 13.517857402157636,18.286904859887503 13.428571686351399,18.376190575693744 13.250000254738916,18.554762007306227 13.160714538932675,18.73333343891871 12.982143107320192,19.179762017949912 12.80357167570771,19.536904881174877 12.625000244095226,19.894047744399842 12.535714528288986,20.07261917601232 12.446428812482747,20.251190607624803 12.357143096676504,20.340476323431044 12.357143096676504,20.340476323431044 12.357143096676504,20.429762039237286 12.267857380870263,20.429762039237286 12.267857380870263,20.429762039237286 12.267857380870263,20.340476323431044 12.267857380870263,20.340476323431044 12.267857380870263,19.894047744399842 12.267857380870263,19.447619165368636 12.267857380870263,19.00119058633743 12.357143096676504,18.73333343891871 12.446428812482747,18.465476291499986 12.446428812482747,18.197619144081262 12.535714528288986,18.01904771246878 12.625000244095226,17.840476280856297 12.625000244095226,17.751190565050056 12.625000244095226,17.661904849243815 12.625000244095226,17.661904849243815 12.625000244095226,17.572619133437577 12.625000244095226,17.572619133437577 12.625000244095226,17.572619133437577 12.535714528288986,17.483333417631336 12.535714528288986,17.483333417631336 12.446428812482747,17.394047701825095 12.446428812482747,17.394047701825095 12.357143096676504,17.304761986018853 12.357143096676504,17.304761986018853 12.357143096676504,17.304761986018853 12.357143096676504,17.304761986018853 12.267857380870263,17.304761986018853 12.357143096676504,17.304761986018853 12.446428812482747,17.304761986018853 12.535714528288986,17.215476270212612 12.714285959901469,17.215476270212612 12.892857391513953,17.12619055440637 13.071428823126432,17.12619055440637 13.33928597054516,17.12619055440637 13.517857402157636,17.12619055440637 13.696428833770119,17.03690483860013 13.78571454957636,17.03690483860013 13.78571454957636,17.03690483860013 " style="color: rgb(0, 0, 0);"/></g></svg>